<svg width="208" height="56" viewBox="0 0 208 56" fill="none" xmlns="http://www.w3.org/2000/svg">
<path d="M66.8273 20.7143C66.7399 20.7121 61.9057 20.7109 61.8171 20.7109C60.9102 20.7109 60.0968 20.7973 59.377 20.9701C58.6572 21.1428 58.0381 21.402 57.5199 21.7475C57.0016 22.0786 56.6057 22.4961 56.3322 22.9999C56.0586 23.5038 55.9219 24.0796 55.9219 24.7275C55.9219 25.4041 56.0514 25.9799 56.3106 26.455C56.5841 26.9157 56.944 27.3044 57.3903 27.6211C57.851 27.9234 58.362 28.1826 58.9235 28.3985C59.4993 28.6144 60.0896 28.8016 60.6942 28.96C61.2989 29.1183 61.8819 29.2767 62.4434 29.435C63.0192 29.5934 63.5303 29.7733 63.9765 29.9749C64.4372 30.1764 64.7971 30.4284 65.0563 30.7307C65.3298 31.033 65.4665 31.4145 65.4665 31.8752C65.4665 32.1775 65.4018 32.4438 65.2722 32.6742C65.1426 32.9045 64.9627 33.1061 64.7323 33.2788C64.502 33.4372 64.2285 33.5739 63.9118 33.6891C63.6094 33.7899 63.2711 33.8691 62.8968 33.9266C62.5225 33.9698 62.1338 33.9914 61.7307 33.9914C61.6745 33.9914 56.4063 33.9909 56.351 33.9898V36.0416C56.4066 36.0425 61.6749 36.0429 61.7307 36.0429C62.9256 36.0429 63.9837 35.8917 64.9051 35.5894C65.8409 35.2871 66.5751 34.8048 67.1077 34.1426C67.6404 33.466 67.9067 32.595 67.9067 31.5297C67.9067 30.8531 67.7699 30.2844 67.4964 29.8237C67.2229 29.3487 66.8558 28.9528 66.3951 28.636C65.9488 28.3193 65.4378 28.053 64.8619 27.8371C64.3005 27.6211 63.7174 27.434 63.1128 27.2756C62.5225 27.1028 61.9395 26.9445 61.3636 26.8005C60.8022 26.6422 60.2911 26.4694 59.8304 26.2823C59.3842 26.0951 59.0243 25.872 58.7507 25.6128C58.4772 25.3393 58.3404 24.9938 58.3404 24.5763C58.3404 24.202 58.47 23.8853 58.7291 23.6262C59.0027 23.3526 59.3986 23.1439 59.9168 22.9999C60.4351 22.8416 61.0757 22.7624 61.8387 22.7624C61.9208 22.7624 66.7478 22.7638 66.8273 22.7666V20.7143Z" fill="white"/>
<path fill-rule="evenodd" clip-rule="evenodd" d="M78.4004 36.0429C76.8744 36.0429 75.5499 35.7622 74.427 35.2007C73.3185 34.6393 72.4619 33.7899 71.8573 32.6526C71.267 31.5153 70.9719 30.0901 70.9719 28.3769C70.9719 26.6494 71.267 25.2241 71.8573 24.1012C72.4619 22.9639 73.3185 22.1146 74.427 21.5531C75.5499 20.9917 76.8744 20.7109 78.4004 20.7109C79.9551 20.7109 81.2868 20.9917 82.3953 21.5531C83.5038 22.1146 84.3532 22.9639 84.9434 24.1012C85.5481 25.2241 85.8504 26.6494 85.8504 28.3769C85.8504 30.0901 85.5481 31.5153 84.9434 32.6526C84.3532 33.7899 83.5038 34.6393 82.3953 35.2007C81.2868 35.7622 79.9551 36.0429 78.4004 36.0429ZM78.4004 33.9914C79.1922 33.9914 79.8904 33.8835 80.495 33.6675C81.114 33.4516 81.6323 33.1205 82.0498 32.6742C82.4817 32.2279 82.8056 31.6664 83.0215 30.9898C83.2519 30.3132 83.367 29.5286 83.367 28.636V28.161C83.367 27.2396 83.2519 26.4406 83.0215 25.764C82.8056 25.0874 82.4817 24.5259 82.0498 24.0796C81.6323 23.6334 81.114 23.3023 80.495 23.0863C79.8904 22.8704 79.1922 22.7624 78.4004 22.7624C77.623 22.7624 76.9248 22.8704 76.3057 23.0863C75.7011 23.3023 75.1828 23.6334 74.7509 24.0796C74.3334 24.5259 74.0167 25.0874 73.8008 25.764C73.5848 26.4406 73.4769 27.2396 73.4769 28.161V28.636C73.4769 29.5286 73.5848 30.3132 73.8008 30.9898C74.0167 31.6664 74.3334 32.2279 74.7509 32.6742C75.1828 33.1205 75.7011 33.4516 76.3057 33.6675C76.9248 33.8835 77.623 33.9914 78.4004 33.9914Z" fill="white"/>
<path d="M89.6107 23.1309V35.7837H92.0293V29.4782H99.4145V27.4267H92.0293V23.9074C92.0293 23.4301 92.4163 23.0431 92.8936 23.0431H100.192V20.97H91.7717C90.5782 20.97 89.6107 21.9375 89.6107 23.1309Z" fill="white"/>
<path d="M107.412 35.7837V23.0431H102.51V20.97H114.775V23.0431H109.83V35.7837H107.412Z" fill="white"/>
<path fill-rule="evenodd" clip-rule="evenodd" d="M117.978 20.97V35.7837H120.397V30.0612H125.536L128.343 35.7837H130.978L127.89 29.6509C128.711 29.3054 129.344 28.7655 129.79 28.0313C130.237 27.2971 130.46 26.4334 130.46 25.44C130.46 24.5475 130.287 23.7701 129.941 23.1078C129.596 22.4312 129.078 21.9058 128.387 21.5315C127.696 21.1572 126.825 20.97 125.774 20.97H117.978ZM125.579 28.0313H120.397V23.0431H125.579C126.112 23.0431 126.558 23.1366 126.918 23.3238C127.278 23.5109 127.552 23.7845 127.739 24.1444C127.926 24.4899 128.02 24.9146 128.02 25.4184C128.02 26.239 127.804 26.8796 127.372 27.3403C126.954 27.801 126.357 28.0313 125.579 28.0313Z" fill="white"/>
<path d="M138.323 35.7837V29.6941L132.558 20.97H135.322L139.554 27.5347H139.662L143.852 20.97H146.508L140.742 29.6941V35.7837H138.323Z" fill="white"/>
<path d="M148.365 34.596V35.7837H160.609V33.7106H151.907L160.415 22.1577V20.97H148.927V23.0431H156.83L148.365 34.596Z" fill="white"/>
<path d="M166.285 35.7837C165.092 35.7837 164.124 34.8162 164.124 33.6227V23.1309C164.124 21.9375 165.092 20.97 166.285 20.97H175.612V23.0431H167.407C166.93 23.0431 166.543 23.4301 166.543 23.9074V27.1676H174.662V29.2406H166.543V32.8463C166.543 33.3236 166.93 33.7106 167.407 33.7106H175.742V35.7837H166.285Z" fill="white"/>
<path d="M179.647 35.7837V20.97H181.979L189.558 31.4864H189.666V20.97H191.999V35.7837H189.753L182.087 25.1161H181.979V35.7837H179.647Z" fill="white"/>
<mask id="mask0_629_17999" style="mask-type:alpha" maskUnits="userSpaceOnUse" x="16" y="15" width="27" height="27">
<path fill-rule="evenodd" clip-rule="evenodd" d="M23.7631 15C16.8635 15 13.4055 23.3396 18.2808 28.222L27.289 37.2433H16.644V41.133H34.3876C41.2902 41.133 44.7468 32.7873 39.8657 27.9067L30.8476 18.8897H41.5222V15H23.7631ZM30.8457 18.8897H23.7631C20.3274 18.8897 18.6056 23.0424 21.0332 25.4735L30.0483 34.5017L27.3027 37.2433H34.3876C37.8247 37.2433 39.546 33.0876 37.1154 30.6573L28.0964 21.6393L30.8457 18.8897Z" fill="#0038FF"/>
</mask>
<g mask="url(#mask0_629_17999)">
<g filter="url(#filter0_f_629_17999)">
<g filter="url(#filter1_f_629_17999)">
<path d="M84.9969 22.6196C84.9969 10.9885 74.66 1.55957 61.9086 1.55957C49.1573 1.55957 38.8203 10.9885 38.8203 22.6196C38.8203 34.2508 49.1573 43.6797 61.9086 43.6797C74.66 43.6797 84.9969 34.2508 84.9969 22.6196Z" fill="#4E67E8"/>
</g>
<g filter="url(#filter2_f_629_17999)">
<path d="M47.4721 26.9376C46.2942 20.6077 35.6406 17.2809 23.6766 19.5072C11.7126 21.7334 2.96872 28.6696 4.14659 34.9995C5.32445 41.3295 15.978 44.6562 27.942 42.43C39.9061 40.2038 48.6499 33.2676 47.4721 26.9376Z" fill="#052DE9"/>
</g>
<g filter="url(#filter3_f_629_17999)">
<path d="M42.3021 31.3094C23.3968 32.307 17.5743 50.1214 10.9994 49.6144C2.73425 48.977 4.27425 32.2673 10.9994 25.9007C18.9265 18.3961 55.114 30.6333 42.3021 31.3094Z" fill="#00EAFF"/>
</g>
<g filter="url(#filter4_f_629_17999)">
<path d="M22.018 30.0059C16.2118 30.0059 13.4824 26.9184 13.4824 22.7549C13.4824 14.0672 64.7353 10.9782 72.4967 18.2232C78.2006 23.5477 77.4692 31.0452 71.4567 33.7074C64.6621 36.716 60.5035 36.0857 53.8278 33.7075C48.2578 31.7231 46.4437 29.8539 40.323 28.1805C34.594 26.6141 27.1754 30.0059 22.018 30.0059Z" fill="#BADAFF"/>
</g>
<g filter="url(#filter5_f_629_17999)">
<path d="M25.9061 46.2841C25.9061 41.3366 21.4338 37.3259 15.9169 37.3259C10.4 37.3259 5.92773 41.3366 5.92773 46.2841C5.92773 51.2315 10.4 55.2422 15.9169 55.2422C21.4338 55.2422 25.9061 51.2315 25.9061 46.2841Z" fill="#303E57"/>
</g>
</g>
</g>
<defs>
<filter id="filter0_f_629_17999" x="-2.85118" y="-5.32969" width="94.7395" height="67.4641" filterUnits="userSpaceOnUse" color-interpolation-filters="sRGB">
<feFlood flood-opacity="0" result="BackgroundImageFix"/>
<feBlend mode="normal" in="SourceGraphic" in2="BackgroundImageFix" result="shape"/>
<feGaussianBlur stdDeviation="3.4461" result="effect1_foregroundBlur_629_17999"/>
</filter>
<filter id="filter1_f_629_17999" x="28.679" y="-8.57878" width="66.4583" height="62.3998" filterUnits="userSpaceOnUse" color-interpolation-filters="sRGB">
<feFlood flood-opacity="0" result="BackgroundImageFix"/>
<feBlend mode="normal" in="SourceGraphic" in2="BackgroundImageFix" result="shape"/>
<feGaussianBlur stdDeviation="5.07064" result="effect1_foregroundBlur_629_17999"/>
</filter>
<filter id="filter2_f_629_17999" x="-9.4807" y="5.29079" width="70.5805" height="51.3559" filterUnits="userSpaceOnUse" color-interpolation-filters="sRGB">
<feFlood flood-opacity="0" result="BackgroundImageFix"/>
<feBlend mode="normal" in="SourceGraphic" in2="BackgroundImageFix" result="shape"/>
<feGaussianBlur stdDeviation="6.76086" result="effect1_foregroundBlur_629_17999"/>
</filter>
<filter id="filter3_f_629_17999" x="-1.39757" y="16.7157" width="53.1799" height="39.6701" filterUnits="userSpaceOnUse" color-interpolation-filters="sRGB">
<feFlood flood-opacity="0" result="BackgroundImageFix"/>
<feBlend mode="normal" in="SourceGraphic" in2="BackgroundImageFix" result="shape"/>
<feGaussianBlur stdDeviation="3.38043" result="effect1_foregroundBlur_629_17999"/>
</filter>
<filter id="filter4_f_629_17999" x="6.72157" y="7.41883" width="76.4338" height="35.0764" filterUnits="userSpaceOnUse" color-interpolation-filters="sRGB">
<feFlood flood-opacity="0" result="BackgroundImageFix"/>
<feBlend mode="normal" in="SourceGraphic" in2="BackgroundImageFix" result="shape"/>
<feGaussianBlur stdDeviation="3.38043" result="effect1_foregroundBlur_629_17999"/>
</filter>
<filter id="filter5_f_629_17999" x="-4.21355" y="27.1868" width="40.2611" height="38.1966" filterUnits="userSpaceOnUse" color-interpolation-filters="sRGB">
<feFlood flood-opacity="0" result="BackgroundImageFix"/>
<feBlend mode="normal" in="SourceGraphic" in2="BackgroundImageFix" result="shape"/>
<feGaussianBlur stdDeviation="5.07064" result="effect1_foregroundBlur_629_17999"/>
</filter>
</defs>
</svg>
