<svg width="92" height="40" viewBox="0 0 92 40" fill="none" xmlns="http://www.w3.org/2000/svg">
<path fill-rule="evenodd" clip-rule="evenodd" d="M74.5692 11.4297H49.4279V28.5725H74.5692V11.4297ZM57.3674 16.1498V23.6107C57.3674 23.6146 57.3675 23.6185 57.3675 23.6225C57.3676 23.6265 57.3677 23.6305 57.3678 23.6345C57.3682 23.6502 57.3686 23.6659 57.3674 23.6811C57.3639 23.7242 57.3753 23.7497 57.4247 23.7427C57.4364 23.7415 57.4482 23.7419 57.4599 23.7423C57.4631 23.7424 57.4663 23.7425 57.4695 23.7426C57.4722 23.7426 57.4748 23.7427 57.4775 23.7427C57.6857 23.7427 57.894 23.7428 58.1023 23.7429C58.5191 23.7431 58.9362 23.7433 59.3533 23.7427C59.3604 23.7427 59.3671 23.7427 59.3733 23.7428C59.3786 23.7428 59.3836 23.7429 59.3883 23.743C59.4284 23.7435 59.4479 23.7437 59.4572 23.7341C59.466 23.7249 59.4656 23.7069 59.4649 23.6718C59.4646 23.6599 59.4643 23.6461 59.4643 23.63V16.1604L59.4642 16.1523L59.4639 16.1428C59.4635 16.1311 59.4631 16.1193 59.4643 16.1076C59.4687 16.0636 59.4538 16.0407 59.4062 16.046C59.3968 16.0472 59.387 16.0468 59.3772 16.0464C59.3722 16.0462 59.3671 16.046 59.3621 16.046C59.1519 16.046 58.9417 16.0459 58.7313 16.0458H58.7306C58.3099 16.0456 57.8891 16.0454 57.4687 16.046C57.4563 16.046 57.4453 16.0458 57.4357 16.0457C57.4011 16.0452 57.3836 16.0449 57.375 16.0535C57.3663 16.0622 57.3665 16.0799 57.3671 16.1154C57.3672 16.1254 57.3674 16.1368 57.3674 16.1498ZM67.8115 16.0463H64.6823C63.6405 16.0463 62.5987 16.0463 61.5577 16.0454C61.5539 16.0454 61.5501 16.0454 61.5462 16.0454C61.5422 16.0455 61.5381 16.0455 61.5341 16.0456C61.5185 16.0458 61.5031 16.046 61.4872 16.0454C61.452 16.0436 61.4397 16.0603 61.4423 16.0929C61.4429 16.1028 61.4427 16.1124 61.4425 16.1221C61.4424 16.1269 61.4423 16.1319 61.4423 16.1369V17.9233L61.4422 17.9419C61.4421 17.9802 61.442 17.9991 61.4514 18.0083C61.4605 18.0172 61.4785 18.0171 61.514 18.0168C61.5177 18.0167 61.5215 18.0167 61.5256 18.0167C61.5297 18.0166 61.5339 18.0166 61.5383 18.0166H63.5031C63.5672 18.0166 63.5989 18.0166 63.6146 18.0325C63.63 18.048 63.63 18.0788 63.63 18.1398V23.6479C63.63 23.6585 63.6298 23.6679 63.6297 23.6762C63.6293 23.7078 63.629 23.7244 63.6372 23.733C63.6461 23.7424 63.6651 23.7423 63.7048 23.7421L63.7243 23.7421H65.6097C65.6688 23.7421 65.6981 23.7421 65.7126 23.7274C65.7269 23.713 65.7269 23.6844 65.7269 23.6277V18.1196C65.7269 18.1077 65.7267 18.0973 65.7266 18.088C65.7261 18.0539 65.7258 18.036 65.7345 18.0268C65.744 18.0169 65.7639 18.0171 65.8055 18.0174C65.8135 18.0174 65.8222 18.0175 65.8317 18.0175H67.8317C67.9181 18.0175 67.9181 18.0175 67.919 17.9321V16.1545C67.919 16.1423 67.9191 16.1314 67.9192 16.1218C67.9197 16.0831 67.9199 16.0639 67.9104 16.0545C67.9011 16.0452 67.8823 16.0455 67.8451 16.046C67.8352 16.0461 67.8241 16.0463 67.8115 16.0463Z" fill="#B0B0B0"/>
<path d="M33.8534 19.0422C34.21 18.3848 34.7798 18.0698 35.3328 18.0575C36.4546 18.0548 37.1881 18.6858 37.3881 19.5606C37.5093 20.0877 37.4553 20.5999 37.1961 21.0786C36.8908 21.6409 36.4148 21.9683 35.7743 22.0413C35.1549 22.1126 34.6143 21.9375 34.1728 21.4922C33.8897 21.2071 33.7189 20.8595 33.6464 20.467C33.5544 19.9698 33.611 19.4884 33.8534 19.0422Z" fill="#B0B0B0"/>
<path fill-rule="evenodd" clip-rule="evenodd" d="M42.5707 11.4297H17.4297V28.5725H42.5707L49.4274 20.0011L42.5707 11.4297ZM28.5454 18.7484C28.5836 18.7793 28.622 18.8104 28.6608 18.8416C28.6866 18.8259 28.7026 18.8044 28.7176 18.7842C28.7211 18.7795 28.7246 18.7748 28.7281 18.7703C28.8643 18.6084 28.9997 18.4456 29.1351 18.2828C29.4067 17.9581 29.6774 17.6333 29.9482 17.3077C30.0021 17.2426 30.0004 17.2127 29.9384 17.1599C29.8898 17.1177 29.8402 17.0763 29.7898 17.0349C29.3598 16.6829 28.8873 16.4084 28.352 16.2491C27.9946 16.1435 27.6292 16.0854 27.2576 16.0599C26.7727 16.0273 26.2923 16.0431 25.8163 16.1531C24.1494 16.5368 22.9054 17.9167 22.7594 19.6856C22.7205 20.1625 22.7576 20.6351 22.8797 21.0989C23.1575 22.1487 23.761 22.9531 24.7192 23.4829C25.2412 23.7715 25.8065 23.9238 26.4011 23.9713C26.9045 24.0118 27.4027 23.981 27.8946 23.8701C28.7263 23.6826 29.4615 23.3042 30.1154 22.763C30.1676 22.7199 30.1888 22.6768 30.1888 22.6081C30.1867 21.7662 30.1868 20.9237 30.187 20.0816L30.1871 19.4497C30.1871 19.4388 30.1863 19.4277 30.1855 19.4166C30.1838 19.392 30.1821 19.3674 30.1888 19.345C30.1966 19.3189 30.1825 19.304 30.1688 19.2894C30.1576 19.2774 30.1465 19.2657 30.1481 19.2482C30.1517 19.2192 30.1322 19.2148 30.1092 19.2148H26.5975C26.5908 19.2148 26.5839 19.2149 26.5771 19.2151C26.5632 19.2155 26.5492 19.2159 26.5356 19.2148C26.5002 19.2112 26.4887 19.2288 26.4914 19.2614C26.4925 19.2749 26.4921 19.2888 26.4917 19.3026C26.4916 19.3095 26.4914 19.3163 26.4914 19.323C26.4914 19.5078 26.4913 19.6926 26.4912 19.8774C26.491 20.247 26.4908 20.6166 26.4914 20.9862C26.4914 21.0015 26.4911 21.0147 26.4908 21.026C26.4901 21.0598 26.4897 21.0772 26.4983 21.0861C26.5073 21.0954 26.5262 21.0952 26.5653 21.0947C26.575 21.0946 26.586 21.0945 26.5984 21.0945H27.9875C27.9998 21.0945 28.0106 21.0944 28.0202 21.0942C28.0587 21.0938 28.0774 21.0936 28.0864 21.1028C28.0948 21.1115 28.0945 21.1286 28.094 21.162C28.0938 21.1737 28.0936 21.1875 28.0937 21.2036C28.0943 21.2839 28.0941 21.3639 28.0939 21.444C28.0938 21.4841 28.0937 21.5242 28.0937 21.5644V21.5673C28.0937 21.7325 28.0937 21.7338 27.9442 21.8055C27.5062 22.015 27.0435 22.0748 26.5657 22.015C26.0348 21.949 25.6101 21.6982 25.2987 21.2643C25.0961 20.9818 24.9855 20.6633 24.9439 20.3201C24.8917 19.8818 24.9448 19.4603 25.1439 19.0625C25.3836 18.5847 25.7464 18.2414 26.2675 18.0839C26.6329 17.973 27.0028 18.0021 27.3691 18.0822C27.7008 18.1543 27.9902 18.3162 28.2565 18.5195C28.3541 18.5933 28.449 18.6703 28.5454 18.7484ZM38.3728 17.1519C37.5544 16.4074 36.5794 16.0528 35.5716 16.0449C35.1063 16.0457 34.7585 16.0836 34.3896 16.1795C33.319 16.4585 32.4811 17.0569 31.9246 18.0126C31.3531 18.9929 31.2372 20.0446 31.5566 21.1261C31.914 22.3353 32.6758 23.2153 33.8543 23.7055C34.7594 24.0812 35.6973 24.1314 36.6431 23.8832C37.742 23.5955 38.5843 22.9592 39.1364 21.9665C39.6018 21.1296 39.7265 20.232 39.5531 19.2948C39.3974 18.4526 39.0081 17.731 38.3728 17.1519Z" fill="#B0B0B0"/>
</svg>
