<svg width="129" height="56" viewBox="0 0 129 56" fill="none" xmlns="http://www.w3.org/2000/svg">
<path fill-rule="evenodd" clip-rule="evenodd" d="M109.002 15H70.2812V41.4H109.002V15ZM82.5089 22.269V28.0274V33.7587C82.5089 33.771 82.5092 33.7832 82.5095 33.7954C82.5101 33.8197 82.5107 33.8437 82.5089 33.8671C82.5035 33.9336 82.5211 33.9729 82.5971 33.962C82.6152 33.9602 82.6333 33.9608 82.6514 33.9614C82.6604 33.9617 82.6695 33.962 82.6785 33.962C82.9989 33.962 83.3194 33.9622 83.6401 33.9623H83.6404H83.6407C84.2827 33.9626 84.925 33.9629 85.5674 33.962C85.5778 33.962 85.5876 33.9621 85.5967 33.9622C85.6055 33.9622 85.6137 33.9623 85.6214 33.9624C85.6831 33.9632 85.7131 33.9636 85.7274 33.9488C85.741 33.9347 85.7404 33.9069 85.7393 33.8528C85.7389 33.8345 85.7384 33.8133 85.7384 33.7885V22.2853C85.7384 22.2763 85.7381 22.2672 85.7378 22.2582C85.7372 22.2401 85.7366 22.2221 85.7384 22.204C85.7452 22.1362 85.7221 22.101 85.6488 22.1091C85.6344 22.1109 85.6194 22.1103 85.6042 22.1097H85.6042C85.5965 22.1094 85.5887 22.1091 85.581 22.1091C85.2573 22.1091 84.9334 22.109 84.6095 22.1088H84.6094H84.6092H84.6086C83.9607 22.1085 83.3125 22.1082 82.665 22.1091C82.6457 22.1091 82.6289 22.1089 82.614 22.1086C82.5607 22.1078 82.5339 22.1074 82.5206 22.1207C82.5072 22.134 82.5076 22.1613 82.5084 22.2161C82.5086 22.2315 82.5089 22.249 82.5089 22.269ZM98.594 22.1095H93.7769H93.7752C92.1705 22.1095 90.5658 22.1095 88.9625 22.1082C88.9502 22.1082 88.9381 22.1083 88.926 22.1085C88.9021 22.1088 88.8783 22.1091 88.8539 22.1082C88.7996 22.1055 88.7806 22.1312 88.7847 22.1813C88.7856 22.1967 88.7853 22.2114 88.785 22.2263C88.7849 22.231 88.7848 22.2357 88.7848 22.2405C88.7847 22.2433 88.7847 22.2462 88.7847 22.2491V25.0002L88.7846 25.0288C88.7843 25.0878 88.7842 25.1169 88.7987 25.1311C88.8127 25.1448 88.8405 25.1446 88.8951 25.1441L88.9326 25.1439H91.9586C92.0572 25.1439 92.1061 25.1439 92.1303 25.1683C92.154 25.1923 92.154 25.2397 92.154 25.3336V33.816C92.154 33.8323 92.1538 33.8468 92.1536 33.8596V33.8597C92.1529 33.9084 92.1525 33.9338 92.1651 33.9471C92.1788 33.9616 92.208 33.9614 92.2692 33.9611L92.2992 33.9611H92.3399H95.203C95.294 33.9611 95.3391 33.9611 95.3614 33.9385C95.3835 33.9163 95.3835 33.8723 95.3835 33.7849V25.3025C95.3835 25.284 95.3832 25.2678 95.383 25.2534C95.3822 25.201 95.3818 25.1737 95.3952 25.1596C95.4097 25.1444 95.4405 25.1446 95.5046 25.1451L95.5449 25.1452H98.6252C98.7581 25.1452 98.7582 25.1452 98.7595 25.0138V24.9731V22.2762C98.7595 22.2574 98.7597 22.2407 98.7599 22.2259C98.7606 22.1662 98.761 22.1366 98.7464 22.1221C98.732 22.1079 98.7031 22.1083 98.6457 22.1091H98.6457C98.6305 22.1093 98.6134 22.1095 98.594 22.1095Z" fill="#FF5F00"/>
<path fill-rule="evenodd" clip-rule="evenodd" d="M59.72 15H21V41.4H59.72L70.28 28.2L59.72 15ZM38.1195 26.2708C38.1782 26.3184 38.2373 26.3664 38.2972 26.4144C38.337 26.3902 38.3615 26.3571 38.3846 26.326L38.3846 26.326L38.3847 26.3259L38.3847 26.3259C38.3901 26.3187 38.3954 26.3115 38.4008 26.3046C38.6106 26.0552 38.8191 25.8045 39.0276 25.5538C39.4459 25.0537 39.8629 24.5536 40.2799 24.0522C40.363 23.9519 40.3603 23.9058 40.2649 23.8245C40.1899 23.7595 40.1136 23.6958 40.0359 23.6321C39.3737 23.09 38.646 22.6671 37.8216 22.4219C37.2711 22.2592 36.7084 22.1698 36.136 22.1305C35.3893 22.0803 34.6494 22.1047 33.9163 22.2741C31.3491 22.865 29.4332 24.99 29.2083 27.714C29.1484 28.4486 29.2056 29.1763 29.3937 29.8906C29.8215 31.5074 30.7508 32.746 32.2266 33.5619C33.0306 34.0064 33.9013 34.2409 34.817 34.3141C35.5923 34.3764 36.3595 34.329 37.1171 34.1582C38.398 33.8695 39.5304 33.2868 40.5374 32.4533C40.6178 32.3869 40.6505 32.3205 40.6505 32.2148C40.6472 30.9182 40.6474 29.6207 40.6477 28.3237L40.6478 27.3508C40.6478 27.334 40.6466 27.3169 40.6454 27.2998V27.2998V27.2998C40.6428 27.2619 40.6402 27.2241 40.6505 27.1896C40.6624 27.1494 40.6408 27.1264 40.6197 27.104C40.6024 27.0855 40.5853 27.0674 40.5878 27.0405C40.5933 26.9958 40.5633 26.989 40.5279 26.989H40.4325H35.1195C35.1091 26.989 35.0986 26.9893 35.088 26.9896L35.088 26.9896C35.0666 26.9902 35.0451 26.9908 35.0241 26.989C34.9696 26.9836 34.9519 27.0107 34.956 27.0608C34.9578 27.0817 34.9572 27.1031 34.9566 27.1243C34.9563 27.1349 34.956 27.1454 34.956 27.1557C34.956 27.4403 34.9558 27.7249 34.9557 28.0095C34.9554 28.5787 34.9551 29.1479 34.956 29.7171C34.956 29.7406 34.9556 29.7609 34.9552 29.7783C34.9541 29.8304 34.9535 29.8572 34.9666 29.8708C34.9805 29.8852 35.0097 29.8849 35.0698 29.8842C35.0848 29.884 35.1018 29.8838 35.1209 29.8838H37.2602C37.2791 29.8838 37.2958 29.8836 37.3106 29.8834C37.3699 29.8827 37.3987 29.8824 37.4125 29.8966C37.4254 29.91 37.425 29.9364 37.4242 29.9877V29.9877C37.4239 30.0058 37.4236 30.027 37.4237 30.0518C37.4246 30.1756 37.4243 30.2987 37.424 30.422L37.424 30.4242L37.4237 30.6075V30.612C37.4237 30.8663 37.4237 30.8683 37.1935 30.9788C36.5189 31.3014 35.8063 31.3935 35.0704 31.3014C34.2529 31.1997 33.5988 30.8135 33.1191 30.1453C32.8071 29.7103 32.6368 29.2197 32.5727 28.6912C32.4923 28.0163 32.5741 27.3671 32.8807 26.7545C33.2499 26.0186 33.8086 25.4901 34.6112 25.2475C35.174 25.0768 35.7436 25.1215 36.3077 25.2448C36.8187 25.3559 37.2643 25.6053 37.6745 25.9184C37.8248 26.032 37.971 26.1505 38.1195 26.2708ZM53.2548 23.8123C51.9943 22.6657 50.4927 22.1196 48.9406 22.1074C48.2239 22.1087 47.6884 22.167 47.1201 22.3147C45.4713 22.7443 44.1809 23.6659 43.3238 25.1377C42.4435 26.6474 42.265 28.2669 42.7569 29.9325C43.3075 31.7946 44.4807 33.1498 46.2957 33.9047C47.6897 34.4834 49.1341 34.5606 50.5908 34.1785C52.2832 33.7353 53.5805 32.7555 54.4307 31.2268C55.1475 29.9379 55.3396 28.5556 55.0725 27.1123C54.8327 25.8153 54.2332 24.704 53.2548 23.8123ZM46.2944 26.7233C46.8435 25.7109 47.7211 25.2258 48.5727 25.2068C50.3006 25.2027 51.4302 26.1744 51.7382 27.5215C51.9248 28.3333 51.8417 29.1221 51.4425 29.8593C50.9723 30.7253 50.2392 31.2295 49.2527 31.342C48.2988 31.4517 47.4663 31.182 46.7863 30.4963C46.3502 30.0572 46.0873 29.5219 45.9755 28.9174C45.8338 28.1517 45.921 27.4104 46.2944 26.7233Z" fill="currentColor"/>
</svg>
