<svg width="149" height="40" viewBox="0 0 149 40" fill="none" xmlns="http://www.w3.org/2000/svg">
<path fill-rule="evenodd" clip-rule="evenodd" d="M22.6532 10.9297C18.1739 10.9297 15.9289 16.4004 19.094 19.6031L24.9423 25.521H18.0314V28.0725H29.5508C34.032 28.0725 36.2761 22.5979 33.1072 19.3963L27.2526 13.4813H34.1826V10.9297H22.6532ZM27.2513 13.4813H22.6532C20.4227 13.4813 19.3049 16.2054 20.8809 17.8002L26.7336 23.7225L24.9511 25.521H29.5508C31.7822 25.521 32.8996 22.7949 31.3217 21.2007L25.4664 15.285L27.2513 13.4813Z" fill="#B0B0B0"/>
<path d="M50.1251 14.4841C50.0683 14.4827 46.9299 14.4819 46.8724 14.4819C46.2836 14.4819 45.7555 14.5385 45.2882 14.6518C44.8209 14.765 44.419 14.9349 44.0825 15.1614C43.7461 15.3784 43.4891 15.6521 43.3115 15.9824C43.1339 16.3127 43.0451 16.6902 43.0451 17.1149C43.0451 17.5584 43.1292 17.9359 43.2975 18.2473C43.475 18.5493 43.7087 18.8041 43.9984 19.0117C44.2975 19.2099 44.6293 19.3798 44.9938 19.5213C45.3676 19.6629 45.7508 19.7855 46.1434 19.8894C46.5359 19.9932 46.9144 20.097 47.2789 20.2008C47.6528 20.3046 47.9846 20.4225 48.2743 20.5547C48.5734 20.6868 48.807 20.8519 48.9753 21.0501C49.1529 21.2483 49.2416 21.4984 49.2416 21.8004C49.2416 21.9985 49.1996 22.1731 49.1155 22.3241C49.0314 22.4751 48.9145 22.6072 48.765 22.7205C48.6154 22.8243 48.4379 22.9139 48.2323 22.9894C48.036 23.0555 47.8163 23.1074 47.5733 23.1451C47.3303 23.1734 47.078 23.1876 46.8163 23.1876C46.7798 23.1876 43.3596 23.1872 43.3237 23.1865V24.5316C43.3598 24.5321 46.78 24.5324 46.8163 24.5324C47.592 24.5324 48.279 24.4333 48.8771 24.2351C49.4846 24.0369 49.9613 23.7208 50.3071 23.2867C50.6529 22.8431 50.8258 22.2722 50.8258 21.5739C50.8258 21.1303 50.737 20.7576 50.5595 20.4556C50.3819 20.1442 50.1436 19.8846 49.8445 19.677C49.5547 19.4694 49.223 19.2948 48.8491 19.1533C48.4846 19.0117 48.1061 18.889 47.7135 18.7852C47.3303 18.672 46.9518 18.5682 46.578 18.4738C46.2135 18.37 45.8817 18.2567 45.5826 18.1341C45.2929 18.0114 45.0592 17.8651 44.8816 17.6952C44.7041 17.5159 44.6153 17.2894 44.6153 17.0158C44.6153 16.7704 44.6994 16.5628 44.8676 16.3929C45.0452 16.2136 45.3022 16.0768 45.6387 15.9824C45.9751 15.8786 46.3911 15.8267 46.8864 15.8267C46.9397 15.8267 50.0734 15.8276 50.1251 15.8294V14.4841Z" fill="#B0B0B0"/>
<path fill-rule="evenodd" clip-rule="evenodd" d="M57.6384 24.5324C56.6477 24.5324 55.7879 24.3484 55.0589 23.9803C54.3392 23.6123 53.7831 23.0555 53.3906 22.31C53.0074 21.5644 52.8158 20.6302 52.8158 19.5072C52.8158 18.3747 53.0074 17.4404 53.3906 16.7044C53.7831 15.9588 54.3392 15.402 55.0589 15.034C55.7879 14.6659 56.6477 14.4819 57.6384 14.4819C58.6478 14.4819 59.5124 14.6659 60.232 15.034C60.9517 15.402 61.5031 15.9588 61.8863 16.7044C62.2788 17.4404 62.4751 18.3747 62.4751 19.5072C62.4751 20.6302 62.2788 21.5644 61.8863 22.31C61.5031 23.0555 60.9517 23.6123 60.232 23.9803C59.5124 24.3484 58.6478 24.5324 57.6384 24.5324ZM57.6384 23.1876C58.1525 23.1876 58.6058 23.1168 58.9983 22.9753C59.4002 22.8337 59.7367 22.6167 60.0077 22.3241C60.2881 22.0316 60.4984 21.6635 60.6386 21.22C60.7881 20.7764 60.8629 20.2621 60.8629 19.677V19.3656C60.8629 18.7616 60.7881 18.2379 60.6386 17.7943C60.4984 17.3508 60.2881 16.9827 60.0077 16.6902C59.7367 16.3976 59.4002 16.1806 58.9983 16.039C58.6058 15.8975 58.1525 15.8267 57.6384 15.8267C57.1337 15.8267 56.6805 15.8975 56.2786 16.039C55.886 16.1806 55.5496 16.3976 55.2692 16.6902C54.9981 16.9827 54.7925 17.3508 54.6523 17.7943C54.5121 18.2379 54.442 18.7616 54.442 19.3656V19.677C54.442 20.2621 54.5121 20.7764 54.6523 21.22C54.7925 21.6635 54.9981 22.0316 55.2692 22.3241C55.5496 22.6167 55.886 22.8337 56.2786 22.9753C56.6805 23.1168 57.1337 23.1876 57.6384 23.1876Z" fill="#B0B0B0"/>
<path d="M64.9164 16.0683V24.3625H66.4865V20.229H71.2811V18.8843H66.4865V16.5773C66.4865 16.2644 66.7378 16.0107 67.0477 16.0107H71.7858V14.6518H66.3193C65.5445 14.6518 64.9164 15.286 64.9164 16.0683Z" fill="#B0B0B0"/>
<path d="M76.4731 24.3625V16.0107H73.2907V14.6518H81.2536V16.0107H78.0432V24.3625H76.4731Z" fill="#B0B0B0"/>
<path fill-rule="evenodd" clip-rule="evenodd" d="M83.3329 14.6518V24.3625H84.903V20.6112H88.2396L90.0621 24.3625H91.7725L89.7677 20.3423C90.3005 20.1158 90.7117 19.7619 91.0014 19.2806C91.2912 18.7993 91.436 18.2331 91.436 17.582C91.436 16.9969 91.3239 16.4873 91.0996 16.0532C90.8753 15.6096 90.5388 15.2652 90.0902 15.0198C89.6416 14.7744 89.0761 14.6518 88.3938 14.6518H83.3329ZM88.2677 19.2806H84.903V16.0107H88.2677C88.6135 16.0107 88.9032 16.072 89.1369 16.1947C89.3705 16.3174 89.5481 16.4967 89.6696 16.7326C89.7911 16.9591 89.8519 17.2375 89.8519 17.5678C89.8519 18.1057 89.7117 18.5257 89.4313 18.8276C89.1602 19.1296 88.7724 19.2806 88.2677 19.2806Z" fill="#B0B0B0"/>
<path d="M96.5413 24.3625V20.3706L92.7982 14.6518H94.5926L97.3404 18.955H97.4105L100.13 14.6518H101.855L98.1115 20.3706V24.3625H96.5413Z" fill="#B0B0B0"/>
<path d="M103.061 23.5839V24.3625H111.01V23.0035H105.36L110.883 15.4303V14.6518H103.425V16.0107H108.556L103.061 23.5839Z" fill="#B0B0B0"/>
<path d="M114.694 24.3625C113.92 24.3625 113.291 23.7283 113.291 22.9459V16.0683C113.291 15.286 113.92 14.6518 114.694 14.6518H120.75V16.0107H115.423C115.113 16.0107 114.862 16.2644 114.862 16.5773V18.7144H120.133V20.0733H114.862V22.4369C114.862 22.7499 115.113 23.0035 115.423 23.0035H120.834V24.3625H114.694Z" fill="#B0B0B0"/>
<path d="M123.369 24.3625V14.6518H124.883L129.804 21.5455H129.874V14.6518H131.388V24.3625H129.93L124.953 17.3696H124.883V24.3625H123.369Z" fill="#B0B0B0"/>
</svg>
