<svg xmlns="http://www.w3.org/2000/svg" width="40" height="40" viewBox="0 0 40 40" fill="none"><path stroke="currentColor" stroke-linecap="round" stroke-linejoin="round" stroke-width="1.5" d="M13.75 32.5v5m-7.5-35h15a2.5 2.5 0 0 1 2.5 2.5v32.188a.313.313 0 0 1-.313.312H3.75V5a2.5 2.5 0 0 1 2.5-2.5ZM25 15h8.75a2.5 2.5 0 0 1 2.5 2.5v20h-12.5V16.25A1.25 1.25 0 0 1 25 15Z"/><path fill="currentColor" d="M7.916 32.646a1.196 1.196 0 0 1-1.23-.66 1.202 1.202 0 0 1 .879-1.714 1.196 1.196 0 0 1 1.252.618 1.202 1.202 0 0 1-.901 1.756Zm0-6.001a1.195 1.195 0 0 1-1.23-.66 1.202 1.202 0 0 1 .879-1.715 1.196 1.196 0 0 1 1.252.618 1.202 1.202 0 0 1-.901 1.757Zm0-6.002a1.196 1.196 0 0 1-1.23-.66 1.202 1.202 0 0 1 .879-1.714 1.196 1.196 0 0 1 1.252.618 1.203 1.203 0 0 1-.901 1.756Zm0-6.001a1.196 1.196 0 0 1-1.23-.66 1.202 1.202 0 0 1 .879-1.714 1.196 1.196 0 0 1 1.252.617 1.202 1.202 0 0 1-.901 1.757Zm0-6.002a1.196 1.196 0 0 1-1.23-.66 1.202 1.202 0 0 1 .879-1.714 1.196 1.196 0 0 1 1.252.618 1.202 1.202 0 0 1-.901 1.756Zm5.99 18.005a1.196 1.196 0 0 1-1.23-.66 1.202 1.202 0 0 1 .879-1.715 1.196 1.196 0 0 1 1.251.618 1.202 1.202 0 0 1-.9 1.757Zm0-6.002a1.196 1.196 0 0 1-1.23-.66 1.202 1.202 0 0 1 .879-1.714 1.196 1.196 0 0 1 1.251.618 1.203 1.203 0 0 1-.9 1.756Zm0-6.001a1.196 1.196 0 0 1-1.23-.66 1.202 1.202 0 0 1 .879-1.714 1.196 1.196 0 0 1 1.251.617 1.203 1.203 0 0 1-.9 1.757Zm0-6.002a1.196 1.196 0 0 1-1.23-.66 1.202 1.202 0 0 1 .879-1.714 1.196 1.196 0 0 1 1.251.618 1.203 1.203 0 0 1-.9 1.756Zm5.989 24.006a1.196 1.196 0 0 1-1.23-.66 1.202 1.202 0 0 1 .88-1.714 1.196 1.196 0 0 1 1.25.618 1.202 1.202 0 0 1-.9 1.756Zm0-6.001a1.195 1.195 0 0 1-1.23-.66 1.202 1.202 0 0 1 .88-1.715 1.196 1.196 0 0 1 1.25.618 1.202 1.202 0 0 1-.9 1.757Zm0-6.002a1.196 1.196 0 0 1-1.23-.66 1.202 1.202 0 0 1 .88-1.714 1.196 1.196 0 0 1 1.25.618 1.203 1.203 0 0 1-.9 1.756ZM20.887 14.64a1.25 1.25 0 0 0-.005-1.767 1.25 1.25 0 0 0-1.767-.004 1.25 1.25 0 0 0 .005 1.767c.489.489 1.28.49 1.767.004ZM20.162 8.74a1.25 1.25 0 1 1-.324-2.48 1.25 1.25 0 0 1 .324 2.48ZM31.25 31.25a1.25 1.25 0 1 0 0 2.5 1.25 1.25 0 0 0 0-2.5Zm0-6.25a1.25 1.25 0 1 0 0 2.5 1.25 1.25 0 0 0 0-2.5Zm0-6.25a1.25 1.25 0 1 0 0 2.5 1.25 1.25 0 0 0 0-2.5Zm-5 12.5a1.25 1.25 0 1 0 0 2.5 1.25 1.25 0 0 0 0-2.5Zm0-6.25a1.25 1.25 0 1 0 0 2.5 1.25 1.25 0 0 0 0-2.5Zm0-6.25a1.25 1.25 0 1 0 0 2.5 1.25 1.25 0 0 0 0-2.5Z"/></svg>