<svg xmlns="http://www.w3.org/2000/svg" width="32" height="32" viewBox="0 0 32 32" fill="none"><g stroke="currentColor" stroke-linecap="round" stroke-linejoin="round" stroke-width="1.5" clip-path="url(#a)"><path d="M13.05 9.854C8.66 6.86 4.57 9.145 1.14 12.665l7.59 4.572m13.416 1.714c2.995 4.389.709 8.48-2.811 11.909l-4.572-7.589"/><path d="m12.064 11.475 8.457 8.457m-11.794-2.72 6.057 6.057c4.845-2.902 10.354-5.714 12.868-8.32 5.44-5.44 2.286-12.891 2.286-12.891s-7.451-3.154-12.891 2.286c-2.606 2.514-5.44 8.045-8.32 12.868Z"/><path d="M23.998 9.145a1.143 1.143 0 1 0 0-2.285 1.143 1.143 0 0 0 0 2.285ZM8.409 28.436c-1.326 1.28-7.268 2.423-7.268 2.423s1.142-5.943 2.422-7.268A3.431 3.431 0 0 1 9.5 25.988a3.428 3.428 0 0 1-1.09 2.448Z"/></g><defs><clipPath id="a"><path fill="#fff" d="M0 0h32v32H0z"/></clipPath></defs></svg>