<svg width="44" height="36" viewBox="0 0 44 36" fill="none" xmlns="http://www.w3.org/2000/svg">
    <path
        d="M35.1416 34C37.6656 34 39.7136 31.954 39.7136 29.428V20.286L41.9996 18L39.7136 15.714V6.572C39.7136 4.046 37.6676 2 35.1416 2M8.858 2C6.332 2 4.286 4.046 4.286 6.572V15.714L2 18L4.286 20.286V29.428C4.286 31.954 6.332 34 8.858 34M13 18L17.8686 22.8686C18.2646 23.2646 18.4627 23.4627 18.691 23.5368C18.8918 23.6021 19.1082 23.6021 19.309 23.5368C19.5373 23.4627 19.7354 23.2646 20.1314 22.8686L31 12"
        stroke="currentColor" stroke-width="3" stroke-linecap="square" stroke-linejoin="round" />
</svg>