<svg width="48" height="48" viewBox="0 0 48 48" fill="none" xmlns="http://www.w3.org/2000/svg">
<path d="M37.1416 40C39.6656 40 41.7136 37.954 41.7136 35.428V26.286L43.9996 24L41.7136 21.714V12.572C41.7136 10.046 39.6676 8 37.1416 8M10.858 8C8.332 8 6.286 10.046 6.286 12.572V21.714L4 24L6.286 26.286V35.428C6.286 37.954 8.332 40 10.858 40M15 24L19.8686 28.8686C20.2646 29.2646 20.4627 29.4627 20.691 29.5368C20.8918 29.6021 21.1082 29.6021 21.309 29.5368C21.5373 29.4627 21.7354 29.2646 22.1314 28.8686L33 18" stroke="currentColor" stroke-width="3" stroke-linecap="square" stroke-linejoin="round"/>
</svg>
