<svg width="826" height="352" viewBox="0 0 826 352" fill="none" xmlns="http://www.w3.org/2000/svg">
<g opacity="0.6">
<path d="M825.79 176C825.79 224.513 812.269 268.411 790.435 300.168C768.598 331.926 738.483 351.5 705.278 351.5C672.073 351.5 641.957 331.926 620.121 300.168C598.287 268.411 584.766 224.513 584.766 176C584.766 127.487 598.287 83.5887 620.121 51.8325C641.957 20.074 672.073 0.5 705.278 0.5C738.483 0.5 768.598 20.074 790.435 51.8325C812.269 83.5887 825.79 127.487 825.79 176Z" stroke="#C6DAFF"/>
<path d="M742.364 176C742.364 224.513 728.843 268.411 707.009 300.168C685.173 331.926 655.057 351.5 621.852 351.5C588.648 351.5 558.532 331.926 536.696 300.168C514.861 268.411 501.34 224.513 501.34 176C501.34 127.487 514.861 83.5887 536.696 51.8325C558.532 20.074 588.648 0.5 621.852 0.5C655.057 0.5 685.173 20.074 707.009 51.8325C728.843 83.5887 742.364 127.487 742.364 176Z" stroke="#AAC7FF"/>
<path d="M658.939 176C658.939 224.513 645.418 268.411 623.583 300.168C601.747 331.926 571.631 351.5 538.426 351.5C505.222 351.5 475.106 331.926 453.27 300.168C431.435 268.411 417.914 224.513 417.914 176C417.914 127.487 431.435 83.5887 453.27 51.8325C475.106 20.074 505.222 0.5 538.426 0.5C571.631 0.5 601.747 20.074 623.583 51.8325C645.418 83.5887 658.939 127.487 658.939 176Z" stroke="#8EB4FF"/>
<path d="M575.513 176C575.513 224.513 561.992 268.411 540.157 300.168C518.321 331.926 488.205 351.5 455.001 351.5C421.796 351.5 391.68 331.926 369.844 300.168C348.009 268.411 334.488 224.513 334.488 176C334.488 127.487 348.009 83.5887 369.844 51.8325C391.68 20.074 421.796 0.5 455.001 0.5C488.205 0.5 518.321 20.074 540.157 51.8325C561.992 83.5887 575.513 127.487 575.513 176Z" stroke="#71A1FF"/>
<path d="M492.091 176C492.091 224.513 478.57 268.411 456.735 300.168C434.899 331.926 404.783 351.5 371.579 351.5C338.374 351.5 308.258 331.926 286.422 300.168C264.587 268.411 251.066 224.513 251.066 176C251.066 127.487 264.587 83.5887 286.422 51.8325C308.258 20.074 338.374 0.5 371.579 0.5C404.783 0.5 434.899 20.074 456.735 51.8325C478.57 83.5887 492.091 127.487 492.091 176Z" stroke="#558FFF"/>
<path d="M408.661 176C408.661 224.513 395.14 268.411 373.306 300.168C351.469 331.926 321.354 351.5 288.149 351.5C254.944 351.5 224.829 331.926 202.992 300.168C181.158 268.411 167.637 224.513 167.637 176C167.637 127.487 181.158 83.5887 202.992 51.8325C224.829 20.074 254.944 0.5 288.149 0.5C321.354 0.5 351.469 20.074 373.306 51.8325C395.14 83.5887 408.661 127.487 408.661 176Z" stroke="#397CFF"/>
<path d="M325.236 176C325.236 224.513 311.714 268.411 289.88 300.168C268.044 331.926 237.928 351.5 204.723 351.5C171.519 351.5 141.403 331.926 119.567 300.168C97.732 268.411 84.2109 224.513 84.2109 176C84.2109 127.487 97.732 83.5887 119.567 51.8325C141.403 20.074 171.519 0.5 204.723 0.5C237.928 0.5 268.044 20.074 289.88 51.8325C311.714 83.5887 325.236 127.487 325.236 176Z" stroke="#1C69FF"/>
<path d="M241.814 176C241.814 224.513 228.293 268.411 206.458 300.168C184.622 331.926 154.506 351.5 121.301 351.5C88.0968 351.5 57.9809 331.926 36.1447 300.168C14.3101 268.411 0.789062 224.513 0.789062 176C0.789062 127.487 14.3101 83.5887 36.1447 51.8325C57.9809 20.074 88.0968 0.5 121.301 0.5C154.506 0.5 184.622 20.074 206.458 51.8325C228.293 83.5887 241.814 127.487 241.814 176Z" stroke="#0056FF"/>
</g>
</svg>
