<svg width="22" height="22" viewBox="0 0 22 22" fill="none" xmlns="http://www.w3.org/2000/svg">
<path d="M11.0028 21.2448C16.5978 21.2448 21.2482 16.6042 21.2482 10.9993C21.2482 5.40434 16.5875 0.753906 10.9925 0.753906C5.3881 0.753906 0.757812 5.40434 0.757812 10.9993C0.757812 16.6042 5.39796 21.2448 11.0028 21.2448ZM11.0032 19.5373C6.26153 19.5373 2.47424 15.7402 2.47424 10.9993C2.47424 6.26791 6.25124 2.46133 10.9925 2.46133C15.7235 2.46133 19.5301 6.26834 19.5404 10.9993C19.5502 15.7406 15.7334 19.5373 11.0024 19.5373M10.9925 12.8173C11.4742 12.8173 11.7455 12.5461 11.7554 12.024L11.9062 6.72048C11.9165 6.20791 11.5145 5.82648 10.9822 5.82648C10.4397 5.82648 10.0582 6.19805 10.0681 6.71019L10.1988 12.024C10.2087 12.5362 10.4902 12.8173 10.9925 12.8173ZM10.9925 16.0818C11.5647 16.0818 12.0768 15.6198 12.0768 15.0373C12.0768 14.4446 11.575 13.9925 10.9925 13.9925C10.3998 13.9925 9.90738 14.4545 9.90738 15.0373C9.90738 15.6099 10.4097 16.0818 10.9925 16.0818Z" fill="#FF0000"/>
</svg>
