<svg width="24" height="24" viewBox="0 0 24 24" fill="none" xmlns="http://www.w3.org/2000/svg">
<path d="M12 4.62651C14.3855 4.62651 14.7108 4.62651 15.6867 4.62651C16.5542 4.62651 16.988 4.84337 17.3133 4.95181C17.747 5.16868 18.0723 5.27711 18.3976 5.60241C18.7229 5.92771 18.9398 6.25301 19.0482 6.68675C19.1566 7.01205 19.2651 7.44578 19.3735 8.31325C19.3735 9.28916 19.3735 9.50602 19.3735 12C19.3735 14.494 19.3735 14.7108 19.3735 15.6867C19.3735 16.5542 19.1566 16.988 19.0482 17.3133C18.8313 17.747 18.7229 18.0723 18.3976 18.3976C18.0723 18.7229 17.747 18.9398 17.3133 19.0482C16.988 19.1566 16.5542 19.2651 15.6867 19.3735C14.7108 19.3735 14.494 19.3735 12 19.3735C9.50602 19.3735 9.28916 19.3735 8.31325 19.3735C7.44578 19.3735 7.01205 19.1566 6.68675 19.0482C6.25301 18.8313 5.92771 18.7229 5.60241 18.3976C5.27711 18.0723 5.06024 17.747 4.95181 17.3133C4.84337 16.988 4.73494 16.5542 4.62651 15.6867C4.62651 14.7108 4.62651 14.494 4.62651 12C4.62651 9.50602 4.62651 9.28916 4.62651 8.31325C4.62651 7.44578 4.84337 7.01205 4.95181 6.68675C5.16868 6.25301 5.27711 5.92771 5.60241 5.60241C5.92771 5.27711 6.25301 5.06024 6.68675 4.95181C7.01205 4.84337 7.44578 4.73494 8.31325 4.62651C9.28916 4.62651 9.61446 4.62651 12 4.62651ZM12 3C9.50602 3 9.28916 3 8.31325 3C7.33735 3 6.68675 3.21687 6.14458 3.43374C5.60241 3.6506 5.06024 3.9759 4.51807 4.51807C3.9759 5.06024 3.75904 5.49398 3.43374 6.14458C3.21687 6.68675 3.10843 7.33735 3 8.31325C3 9.28916 3 9.61446 3 12C3 14.494 3 14.7108 3 15.6867C3 16.6627 3.21687 17.3133 3.43374 17.8554C3.6506 18.3976 3.9759 18.9398 4.51807 19.4819C5.06024 20.0241 5.49398 20.241 6.14458 20.5663C6.68675 20.7831 7.33735 20.8916 8.31325 21C9.28916 21 9.61446 21 12 21C14.3855 21 14.7108 21 15.6867 21C16.6627 21 17.3133 20.7831 17.8554 20.5663C18.3976 20.3494 18.9398 20.0241 19.4819 19.4819C20.0241 18.9398 20.241 18.506 20.5663 17.8554C20.7831 17.3133 20.8916 16.6627 21 15.6867C21 14.7108 21 14.3855 21 12C21 9.61446 21 9.28916 21 8.31325C21 7.33735 20.7831 6.68675 20.5663 6.14458C20.3494 5.60241 20.0241 5.06024 19.4819 4.51807C18.9398 3.9759 18.506 3.75904 17.8554 3.43374C17.3133 3.21687 16.6627 3.10843 15.6867 3C14.7108 3 14.494 3 12 3Z" fill="white"/>
<path d="M12 7.33735C9.39759 7.33735 7.33735 9.39759 7.33735 12C7.33735 14.6024 9.39759 16.6627 12 16.6627C14.6024 16.6627 16.6627 14.6024 16.6627 12C16.6627 9.39759 14.6024 7.33735 12 7.33735ZM12 15.0361C10.3735 15.0361 8.96386 13.7349 8.96386 12C8.96386 10.3735 10.2651 8.96386 12 8.96386C13.6265 8.96386 15.0361 10.2651 15.0361 12C15.0361 13.6265 13.6265 15.0361 12 15.0361Z" fill="white"/>
<path d="M16.7711 8.31325C17.3699 8.31325 17.8554 7.82778 17.8554 7.22892C17.8554 6.63005 17.3699 6.14458 16.7711 6.14458C16.1722 6.14458 15.6867 6.63005 15.6867 7.22892C15.6867 7.82778 16.1722 8.31325 16.7711 8.31325Z" fill="white"/>
</svg>
