<svg width="24" height="24" viewBox="0 0 24 24" fill="none" xmlns="http://www.w3.org/2000/svg">
<path d="M20 13.5849V19H16.7713V13.9151C16.7713 12.6604 16.3004 11.8019 15.157 11.8019C14.2825 11.8019 13.7444 12.3962 13.5426 12.9245C13.4753 13.1226 13.4081 13.3868 13.4081 13.717V19H10.1794C10.1794 19 10.2466 10.4151 10.1794 9.55661H13.4081V10.8774C13.8117 10.217 14.6188 9.29245 16.3004 9.29245C18.3856 9.29245 20 10.6792 20 13.5849ZM6.81614 5C5.73991 5 5 5.72642 5 6.65094C5 7.57547 5.67264 8.30189 6.74888 8.30189C7.89238 8.30189 8.56502 7.57547 8.56502 6.65094C8.63229 5.66038 7.95964 5 6.81614 5ZM5.20179 19H8.43049V9.55661H5.20179V19Z" fill="white"/>
</svg>
