<svg width="166" height="50" fill="none" xmlns="http://www.w3.org/2000/svg"><path d="M37.6573 10.3345c.6481.6498 1.2486 1.3365 1.7982 2.0534-.0109-1.4555-.1646-2.81045-.4527-4.01301-2.7369-2.64714-6.0158-4.5364-9.582-5.56393-1.358-.39109-2.7586-.65739-4.1859-.79306-.7291-.06867-1.4657-.10384-2.2074-.10384-6.1511 0-11.9338 2.40177-16.2826 6.76314C2.39529 13.0377 0 18.8361 0 25.0039c0 4.8789 1.49914 9.5267 4.27778 13.414-.05261-1.3415.00752-2.7635.1804-4.2433-1.38723-2.8171-2.11968-5.9374-2.11968-9.1707 0-5.5413 2.15225-10.751 6.05921-14.6694C11.979 6.7444 16.6418 4.63154 21.6495 4.30411c.4568-.03015.9162-.04522 1.378-.04522.9037 0 1.799.05778 2.6809.17167 4.5108.58118 8.6801 2.62704 11.9489 5.90394Z" fill="url(#a)"/><path d="M39.3102 41.3305c4.3496-4.3605 6.7449-10.1589 6.7449-16.3266 0-4.8789-1.4992-9.5267-4.2778-13.4141.0526 1.3416-.0075 2.7635-.1804 4.2433 1.3872 2.8171 2.1197 5.9374 2.1197 9.1708 0 5.5413-2.1523 10.751-6.0593 14.6694-3.5812 3.59-8.244 5.7029-13.2517 6.0303-.4569.0302-.9162.0453-1.3781.0453-.9036 0-1.7989-.0578-2.6809-.1717-4.5108-.5812-8.68-2.6271-11.94888-5.9039-.6481-.6499-1.24859-1.3366-1.79814-2.0534.01086 1.4554.16453 2.8104.45267 4.013 2.73687 2.6471 6.01575 4.5363 9.58195 5.5639 1.358.3911 2.7586.6574 4.186.793.7291.0687 1.4657.1039 2.2073.1039 6.1511 0 11.9339-2.4018 16.2827-6.7632Z" fill="url(#b)"/><path d="M41.7796 11.5859c-.1921-4.82778-1.8499-8.63394-5.0035-10.45955C35.4582.36261 33.9715 0 32.3763 0c-2.2215 0-4.6552.704284-7.1391 2.01404 1.4274.13566 2.828.40197 4.186.79305 1.0364-.30483 2.0278-.46227 2.9531-.46227 1.2127 0 2.3001.27301 3.2305.81232 1.2595.72857 2.2316 1.93783 2.8914 3.59344.1996.50162.3691 1.04344.507 1.62044.2881 1.20256.4418 2.55758.4526 4.01298.0025.2931-.0008.5912-.01.8927-.0818 2.6606-.5963 5.5388-1.5275 8.5528-.9764 3.1621-2.3686 6.3234-4.1375 9.3952-2.8463 4.9434-6.3707 9.1448-10.1917 12.1495-1.0866.855-2.1731 1.5903-3.2421 2.1991.8819.1139 1.7772.1717 2.6809.1717.4618 0 .9212-.0151 1.378-.0452 4.1091-3.0718 8.148-7.6542 11.4002-13.3027 3.2555-5.6552 5.1948-11.4603 5.7911-16.5679.1729-1.4797.233-2.9017.1804-4.2433ZM13.6834 47.6552c-1.2127 0-2.3001-.273-3.2305-.8123-1.25942-.7286-2.23156-1.9379-2.89135-3.5935-.19961-.5016-.36915-1.0434-.50696-1.6204-.28813-1.2026-.4418-2.5576-.45266-4.013-.00251-.2931.00083-.5912.01002-.8927.08185-2.6606.59632-5.5388 1.52754-8.5528.97632-3.1621 2.36861-6.3235 4.13751-9.3952 2.8462-4.9434 6.3707-9.14478 10.1916-12.1495 1.0866-.85502 2.1732-1.59029 3.2422-2.19911-.882-.11389-1.7773-.17167-2.6809-.17167-.4619 0-.9212.01507-1.3781.04522-4.109 3.07172-8.148 7.65416-11.4001 13.30266-3.25557 5.6552-5.19485 11.4603-5.79117 16.5679-.17288 1.4797-.23301 2.9017-.1804 4.2433.1921 4.8278 1.84992 8.6339 5.00355 10.4595C10.6016 49.6374 12.0882 50 13.6834 50c2.2216 0 4.6553-.7043 7.1391-2.014-1.4273-.1357-2.8279-.402-4.1859-.7931-1.0365.3048-2.0278.4623-2.9532.4623ZM67.9445 36.3033c-1.42 0-2.8654-.2536-4.3362-.7607-1.4453-.5326-2.7132-1.2426-3.8036-2.1301l1.4834-2.092c2.2315 1.6736 4.501 2.5104 6.8086 2.5104 1.1918 0 2.168-.2916 2.9288-.8748.7607-.5833 1.1411-1.3567 1.1411-2.3203 0-.8875-.4184-1.5721-1.2552-2.0539-.8115-.4818-2.0287-.9509-3.6516-1.4074-.9889-.2789-1.775-.5325-2.3582-.7607-.5832-.2282-1.2425-.5452-1.9779-.9509-.7354-.4311-1.2806-.9636-1.6356-1.5976-.355-.6593-.5325-1.4327-.5325-2.3202 0-1.6736.6213-3.0302 1.8638-4.0699 1.2679-1.0397 2.8781-1.5595 4.8306-1.5595 2.5358 0 4.8941.7227 7.0748 2.1681l-1.3313 2.2061c-1.9525-1.2679-3.8924-1.9018-5.8195-1.9018-1.1411 0-2.0667.2789-2.7767.8368-.6847.5325-1.027 1.2298-1.027 2.092 0 .355.1014.6846.3043.9889.2029.3043.4311.5579.6847.7608.2535.2028.6466.4184 1.1791.6466.5579.2282 1.0016.393 1.3313.4945.3296.1014.8494.2662 1.5595.4944.9382.279 1.7116.5452 2.3202.7988.6086.2536 1.2552.5959 1.9399 1.027.6846.4311 1.1918.9763 1.5214 1.6356.355.6339.5325 1.382.5325 2.2441 0 1.8258-.6593 3.2712-1.9779 4.3362-1.3186 1.0397-2.9922 1.5595-5.0208 1.5595ZM79.6235 42.0088V16.258h2.9288v3.9558c1.9779-2.9161 4.4883-4.3742 7.5313-4.3742 2.5104 0 4.7038.9383 6.5803 2.8147 1.8764 1.8511 2.8147 4.3362 2.8147 7.4552 0 3.0683-.9383 5.5407-2.8147 7.4171-1.8765 1.8765-4.0699 2.8147-6.5803 2.8147-3.0937 0-5.6041-1.3947-7.5313-4.184v9.8515h-2.9288Zm9.9275-8.292c1.9779 0 3.6262-.6847 4.9448-2.054 1.3186-1.3946 1.9779-3.2584 1.9779-5.5913 0-2.2569-.672-4.0826-2.0159-5.4773-1.344-1.42-2.9796-2.13-4.9068-2.13-1.9018 0-3.5627.7226-4.9827 2.168-1.4201 1.4454-2.1301 3.2712-2.1301 5.4773 0 2.2061.71 4.0319 2.1301 5.4773 1.42 1.42 3.0809 2.13 4.9827 2.13ZM104.388 35.9229V16.258h2.928v19.6649h-2.928ZM113.619 35.9229V8.15625h2.929V35.9229h-2.929ZM122.584 35.9229V16.258h2.929v3.4233c1.547-2.5611 3.791-3.8417 6.732-3.8417 2.333 0 4.172.7227 5.516 2.1681 1.344 1.42 2.016 3.3219 2.016 5.7055v12.2097h-2.929v-11.487c0-1.8511-.482-3.2965-1.446-4.3362-.938-1.065-2.269-1.5975-3.994-1.5975-1.698 0-3.106.5705-4.222 1.7116-1.115 1.1411-1.673 2.6246-1.673 4.4503v11.2588h-2.929ZM161.579 33.3745c-1.977 2.0032-4.424 3.0049-7.341 3.0049-2.916 0-5.35-1.0017-7.303-3.0049-1.927-2.0033-2.89-4.4249-2.89-7.265 0-2.8147.976-5.2237 2.928-7.2269 1.978-2.0287 4.425-3.043 7.341-3.043 2.917 0 5.351 1.0017 7.304 3.0049 1.952 2.0033 2.928 4.4249 2.928 7.265 0 2.8147-.989 5.2364-2.967 7.265Zm-7.265.3803c2.105 0 3.829-.7353 5.173-2.2061 1.37-1.4707 2.054-3.2838 2.054-5.4392 0-2.1301-.71-3.9431-2.13-5.4392-1.394-1.4961-3.119-2.2442-5.173-2.2442-2.104 0-3.829.7481-5.173 2.2442-1.344 1.4707-2.015 3.2838-2.015 5.4392 0 2.13.697 3.9431 2.092 5.4392 1.394 1.4708 3.119 2.2061 5.172 2.2061ZM105.871 12.4823c1.195 0 2.163-.9684 2.163-2.163 0-1.19463-.968-2.16305-2.163-2.16305-1.194 0-2.163.96842-2.163 2.16305 0 1.1946.969 2.163 2.163 2.163Z" fill="#fff"/><defs><linearGradient id="a" x1="37.2418" y1="12.6289" x2="8.17671" y2="41.5266" gradientUnits="userSpaceOnUse"><stop offset="0" stop-color="#7EC9FF"/><stop offset="0" stop-color="#7EC9FF"/><stop offset=".50729" stop-color="#16E8E5"/><stop offset="1" stop-color="#0052F2"/><stop offset="1" stop-color="#0052F2"/></linearGradient><linearGradient id="b" x1="37.2418" y1="12.6289" x2="8.17671" y2="41.5266" gradientUnits="userSpaceOnUse"><stop offset="0" stop-color="#7EC9FF"/><stop offset="0" stop-color="#7EC9FF"/><stop offset=".50729" stop-color="#16E8E5"/><stop offset="1" stop-color="#0052F2"/><stop offset="1" stop-color="#0052F2"/></linearGradient></defs></svg>