<svg width="64" height="64" viewBox="0 0 64 64" fill="none" xmlns="http://www.w3.org/2000/svg">
<path d="M54.5301 14.048C52.1116 11.3493 49.0623 10 45.3821 10C42.3328 10 39.8092 11.056 37.8114 13.168C35.8135 15.28 34.8146 17.9787 34.8146 21.264C34.8146 24.5493 35.7609 27.248 37.6536 29.36C39.5463 31.472 41.9647 32.528 44.9089 32.528C46.1707 32.528 47.2748 32.2933 48.2211 31.824C47.1696 38.2773 43.91 43.616 38.4422 47.84L42.0699 54C47.1171 51.0667 51.0602 46.96 53.8992 41.68C56.6331 36.4 58 31.0613 58 25.664C58 20.6187 56.8434 16.7467 54.5301 14.048Z" fill="#0052F2" fill-opacity="0.2"/>
<path d="M17.5675 10C21.2477 10 24.297 11.3493 26.7155 14.048C29.0288 16.7467 30.1854 20.6187 30.1854 25.664C30.1854 31.0613 28.8185 36.4 26.0846 41.68C23.2455 46.96 19.3025 51.0667 14.2553 54L10.6276 47.84C16.0954 43.616 19.355 38.2773 20.4065 31.824C19.4602 32.2933 18.3561 32.528 17.0943 32.528C14.1501 32.528 11.7317 31.472 9.83902 29.36C7.94633 27.248 7 24.5493 7 21.264C7 17.9787 7.99891 15.28 9.99675 13.168C11.9946 11.056 14.5182 10 17.5675 10Z" fill="#0052F2" fill-opacity="0.2"/>
</svg>
