<svg width="64" height="64" viewBox="0 0 64 64" fill="none" xmlns="http://www.w3.org/2000/svg">
<path d="M54.5301 49.952C52.1116 52.6507 49.0623 54 45.3821 54C42.3328 54 39.8092 52.944 37.8114 50.832C35.8135 48.72 34.8146 46.0213 34.8146 42.736C34.8146 39.4507 35.7609 36.752 37.6536 34.64C39.5463 32.528 41.9647 31.472 44.9089 31.472C46.1707 31.472 47.2748 31.7067 48.2211 32.176C47.1696 25.7227 43.91 20.384 38.4422 16.16L42.0699 10C47.1171 12.9333 51.0602 17.04 53.8992 22.32C56.6331 27.6 58 32.9387 58 38.336C58 43.3813 56.8434 47.2533 54.5301 49.952Z" fill="#0052F2" fill-opacity="0.2"/>
<path d="M17.5675 54C21.2477 54 24.297 52.6507 26.7155 49.952C29.0288 47.2533 30.1854 43.3813 30.1854 38.336C30.1854 32.9387 28.8185 27.6 26.0846 22.32C23.2455 17.04 19.3025 12.9333 14.2553 10L10.6276 16.16C16.0954 20.384 19.355 25.7227 20.4065 32.176C19.4602 31.7067 18.3561 31.472 17.0943 31.472C14.1501 31.472 11.7317 32.528 9.83902 34.64C7.94633 36.752 7 39.4507 7 42.736C7 46.0213 7.99891 48.72 9.99675 50.832C11.9946 52.944 14.5182 54 17.5675 54Z" fill="#0052F2" fill-opacity="0.2"/>
</svg>
