<svg xmlns="http://www.w3.org/2000/svg" width="24" height="24" fill="none"><path fill="url(#a)" fill-rule="evenodd" d="M.407 8.895c-1.715 6.402 2.084 12.982 8.486 14.697 6.401 1.715 12.981-2.084 14.697-8.485C25.305 8.705 21.506 2.125 15.104.41 8.703-1.306 2.123 2.493.407 8.895Zm1.932.518C.91 14.747 4.076 20.23 9.41 21.66c5.335 1.43 10.818-1.736 12.248-7.07 1.43-5.336-1.737-10.819-7.071-12.248C9.252.912 3.769 4.078 2.339 9.412Z" clip-rule="evenodd"/><path fill="#fff" fill-rule="evenodd" d="M11.528 23.036a1 1 0 0 1-1.124.858 11.992 11.992 0 0 1-1.509-.302 1 1 0 0 1 .518-1.932c.413.11.833.195 1.257.251a1 1 0 0 1 .858 1.125Z" clip-rule="evenodd"/><defs><radialGradient id="a" cx="0" cy="0" r="1" gradientTransform="rotate(105 1.395 10.604) scale(12)" gradientUnits="userSpaceOnUse"><stop stop-color="#27AE60" offset="0" stop-opacity="0"/><stop offset="0" stop-color="#fff" stop-opacity="0"/><stop offset="1" stop-color="#fff"/></radialGradient></defs></svg>