<svg width="24" height="24" viewBox="0 0 24 24" fill="none" xmlns="http://www.w3.org/2000/svg">
<path fill-rule="evenodd" clip-rule="evenodd" d="M21.4744 3.4191C21.7952 3.68111 21.8429 4.15358 21.5809 4.4744L11.7809 16.4744C11.6439 16.6421 11.4412 16.7424 11.2248 16.7496C11.0084 16.7567 10.7994 16.67 10.6517 16.5117L6.45171 12.0117C6.16908 11.7089 6.18545 11.2343 6.48826 10.9517C6.79107 10.6691 7.26567 10.6854 7.54829 10.9883L11.1623 14.8604L20.4191 3.5256C20.6811 3.20478 21.1536 3.1571 21.4744 3.4191Z" fill="#0052F2"/>
<path d="M22.5 12C22.5 17.799 17.799 22.5 12 22.5C6.20101 22.5 1.5 17.799 1.5 12C1.5 6.20101 6.20101 1.5 12 1.5C12.6989 1.5 13.3819 1.56829 14.0426 1.69856C14.5254 1.79375 15 1.44045 15 0.948337C15 0.612671 14.7732 0.317198 14.4445 0.249171C13.6553 0.0858284 12.8377 0 12 0C5.37258 0 0 5.37258 0 12C0 18.6274 5.37258 24 12 24C18.6274 24 24 18.6274 24 12C24 11.8948 23.9986 11.79 23.996 11.6855C23.986 11.2976 23.6603 11 23.2723 11C22.8329 11 22.491 11.3785 22.4985 11.8179C22.4995 11.8785 22.5 11.9392 22.5 12Z" fill="#0052F2"/>
</svg>
