<svg width="152" height="152" viewBox="0 0 152 152" fill="none" xmlns="http://www.w3.org/2000/svg">
<circle cx="76" cy="76" r="75" stroke="#0052F2" stroke-width="2"/>
<path d="M147.083 96.3673C147.083 107.099 139.377 117.015 126.478 124.306C113.61 131.579 95.7655 136.11 76.0004 136.11C56.2354 136.11 38.3908 131.579 25.5225 124.306C12.6238 117.015 4.91797 107.099 4.91797 96.3673C4.91797 85.6359 12.6238 75.7193 25.5225 68.4287C38.3908 61.1553 56.2354 56.625 76.0004 56.625C95.7655 56.625 113.61 61.1553 126.478 68.4287C139.377 75.7193 147.083 85.6359 147.083 96.3673Z" stroke="#0052F2" stroke-width="2"/>
<path d="M147.083 57.9766C147.083 68.708 139.377 78.6246 126.478 85.9152C113.61 93.1886 95.7655 97.7189 76.0004 97.7189C56.2354 97.7189 38.3908 93.1886 25.5225 85.9152C12.6238 78.6246 4.91797 68.708 4.91797 57.9766C4.91797 47.2453 12.6238 37.3287 25.5225 30.0381C38.3908 22.7647 56.2354 18.2344 76.0004 18.2344C95.7655 18.2344 113.61 22.7647 126.478 30.0381C139.377 37.3287 147.083 47.2453 147.083 57.9766Z" stroke="#0052F2" stroke-width="2"/>
</svg>
