<svg width="182" height="182" viewBox="0 0 182 182" fill="none" xmlns="http://www.w3.org/2000/svg">
<rect x="0.5" y="0.5" width="181" height="181" rx="90.5" fill="white"/>
<rect x="0.5" y="0.5" width="181" height="181" rx="90.5" stroke="#CBD8E5"/>
<path d="M52.994 106.66H53.3294L53.4362 109.56H52.994C52.8529 108.875 52.4953 108.261 51.9801 107.82C51.4652 107.395 50.8264 107.173 50.1734 107.192C49.7228 107.182 49.2762 107.284 48.8698 107.49C48.4873 107.693 48.1575 107.991 47.9093 108.36C47.6269 108.777 47.4225 109.247 47.3071 109.745C47.1602 110.35 47.0884 110.973 47.0936 111.597C47.028 112.701 47.3094 113.797 47.8941 114.714C48.1665 115.074 48.5159 115.36 48.9135 115.549C49.3111 115.738 49.7456 115.824 50.181 115.801C51.7057 115.801 52.7043 114.939 53.1389 113.216H53.6268V116.349H53.2075L52.933 115.358C52.0827 116.117 50.9963 116.516 49.8837 116.478C49.2592 116.487 48.6387 116.372 48.0542 116.14C47.5308 115.927 47.0574 115.598 46.6667 115.173C46.2844 114.737 45.9935 114.222 45.8129 113.659C45.5988 113.02 45.493 112.347 45.5004 111.67C45.493 110.959 45.6066 110.252 45.8358 109.584C46.0426 108.987 46.3586 108.44 46.7658 107.973C47.1711 107.517 47.6654 107.16 48.2142 106.926C48.8024 106.662 49.4353 106.528 50.0743 106.531C50.5296 106.528 50.9825 106.602 51.416 106.749C51.8975 106.922 52.3581 107.155 52.7882 107.441L52.994 106.66Z" fill="#171717"/>
<path d="M60.1547 112.834H56.9758C56.8386 113.177 56.7242 113.483 56.6327 113.752C56.5336 114.017 56.4574 114.243 56.3964 114.436C56.3444 114.597 56.3037 114.761 56.2744 114.927C56.2537 115.034 56.2409 115.141 56.2363 115.25C56.2254 115.344 56.2395 115.44 56.2772 115.527C56.3149 115.614 56.3746 115.688 56.4498 115.741C56.6753 115.844 56.9212 115.888 57.1664 115.87V116.345H54.2695V115.87C54.4292 115.851 54.5873 115.818 54.7422 115.773C54.8635 115.731 54.9789 115.671 55.0852 115.596C55.1891 115.513 55.2793 115.412 55.352 115.298C55.4366 115.154 55.5105 115.003 55.5731 114.847L58.6682 106.656H59.1789L61.8852 113.76C62.0681 114.227 62.2282 114.565 62.3578 114.879C62.46 115.11 62.5935 115.325 62.7542 115.515C62.8638 115.648 63.0064 115.746 63.1659 115.797C63.3379 115.842 63.5147 115.864 63.6919 115.862V116.345H59.8116V115.862C60.1065 115.88 60.402 115.836 60.6807 115.733C60.7552 115.696 60.8175 115.636 60.8596 115.562C60.9017 115.487 60.9217 115.401 60.917 115.314C60.921 115.236 60.921 115.158 60.917 115.081C60.9069 115.002 60.8916 114.924 60.8713 114.847C60.8382 114.75 60.7974 114.655 60.7493 114.565C60.7104 114.439 60.6646 114.315 60.6121 114.195L60.1547 112.834ZM57.2121 112.229H59.9336L58.6072 108.517L57.2121 112.229Z" fill="#171717"/>
<path d="M71.8079 116.467L66.1438 108.59H66.0829V113.962C66.0787 114.296 66.094 114.629 66.1286 114.961C66.1392 115.159 66.1941 115.352 66.2887 115.524C66.3706 115.659 66.4992 115.755 66.647 115.79C66.8499 115.837 67.0568 115.861 67.2645 115.863V116.338H64.0703V115.863C64.2986 115.862 64.5261 115.835 64.7488 115.782C64.9046 115.746 65.0443 115.655 65.1452 115.524C65.2542 115.366 65.3201 115.18 65.3358 114.985C65.3707 114.675 65.386 114.363 65.3815 114.051V108.944C65.3957 108.652 65.3957 108.359 65.3815 108.067C65.3642 107.873 65.3069 107.686 65.2138 107.519C65.1269 107.383 64.9974 107.283 64.8479 107.237C64.6466 107.176 64.4395 107.138 64.2304 107.124V106.649H66.586L71.7927 113.986H71.846V109.001C71.85 108.673 71.8348 108.345 71.8003 108.018C71.7897 107.816 71.7321 107.62 71.6326 107.446C71.5926 107.379 71.5404 107.321 71.4788 107.275C71.4173 107.23 71.3478 107.198 71.2743 107.181C71.0736 107.135 70.8695 107.108 70.6644 107.1V106.625H73.8662V107.1C73.6404 107.107 73.4157 107.136 73.1954 107.189C73.0383 107.222 72.8977 107.313 72.7989 107.446C72.6886 107.604 72.6225 107.791 72.6084 107.986C72.5708 108.296 72.5529 108.608 72.555 108.92V116.443L71.8079 116.467Z" fill="#171717"/>
<path d="M74.7344 116.346V115.871C74.99 115.871 75.2452 115.847 75.4967 115.798C75.6539 115.777 75.8008 115.704 75.917 115.59C76.0331 115.476 76.1127 115.326 76.1447 115.162C76.182 114.923 76.1998 114.68 76.198 114.437V108.574C76.2018 108.334 76.1865 108.095 76.1523 107.857C76.1453 107.691 76.0893 107.53 75.9922 107.398C75.8988 107.288 75.7724 107.214 75.6339 107.189C75.4277 107.144 75.2188 107.115 75.0088 107.1V106.625H79.194C79.8712 106.619 80.5435 106.748 81.176 107.004C81.7569 107.233 82.2875 107.585 82.7357 108.038C83.1839 108.49 83.5403 109.035 83.7832 109.637C84.0315 110.27 84.156 110.95 84.1491 111.635C84.1562 112.283 84.0395 112.927 83.8061 113.527C83.5864 114.09 83.2535 114.596 82.8303 115.009C82.39 115.436 81.8709 115.762 81.3056 115.968C80.6959 116.206 80.0498 116.323 79.3998 116.314L74.7344 116.346ZM77.616 107.278C77.5891 107.274 77.5616 107.276 77.5358 107.285C77.51 107.294 77.4866 107.31 77.4674 107.33C77.4482 107.35 77.4337 107.375 77.4251 107.402C77.4164 107.43 77.4139 107.459 77.4178 107.487V114.3C77.4178 115.251 78.0048 115.734 79.194 115.734C79.6559 115.764 80.1186 115.688 80.5501 115.512C80.9817 115.335 81.3721 115.062 81.6944 114.711C82.3279 113.853 82.6376 112.777 82.5635 111.691C82.5707 111.057 82.4911 110.425 82.3271 109.814C82.1876 109.309 81.9544 108.838 81.641 108.429C81.3497 108.061 80.9819 107.769 80.5662 107.576C80.1169 107.369 79.6306 107.267 79.1406 107.278H77.616Z" fill="#171717"/>
<path d="M92.8948 116.345H85.1953V115.87C85.4231 115.868 85.6502 115.843 85.8738 115.797C86.0235 115.768 86.1616 115.693 86.2702 115.58C86.3726 115.461 86.439 115.312 86.4608 115.153C86.4947 114.916 86.51 114.676 86.5065 114.436V108.573C86.5211 108.334 86.5211 108.095 86.5065 107.856C86.4866 107.701 86.4288 107.554 86.3388 107.429C86.2438 107.316 86.1143 107.242 85.9729 107.22C85.7692 107.176 85.5629 107.146 85.3554 107.131V106.656H88.9536V107.131C88.7485 107.14 88.5444 107.167 88.3437 107.212C88.2029 107.24 88.0761 107.32 87.9854 107.437C87.8909 107.568 87.8329 107.725 87.8177 107.888C87.7816 108.155 87.7663 108.425 87.772 108.694V114.082C87.7648 114.373 87.8008 114.664 87.8787 114.944C87.9267 115.145 88.0367 115.323 88.1913 115.451C88.3865 115.587 88.6078 115.675 88.8392 115.709C89.1779 115.755 89.5192 115.777 89.8607 115.773C90.2459 115.78 90.6309 115.753 91.0119 115.693C91.2806 115.646 91.539 115.548 91.7742 115.403C91.9864 115.258 92.1597 115.059 92.2773 114.823C92.4284 114.511 92.5435 114.181 92.6204 113.84H93.0701L92.8948 116.345Z" fill="#171717"/>
<path d="M96.4169 111.021C96.7793 111.028 97.1415 111.001 97.4994 110.941C97.7444 110.904 97.9801 110.816 98.1931 110.683C98.3556 110.575 98.4832 110.418 98.559 110.232C98.6396 110.025 98.6785 109.803 98.6734 109.58H99.0926V113.035H98.6734C98.6751 112.813 98.6416 112.593 98.5743 112.382C98.5022 112.194 98.3771 112.034 98.216 111.923C98.0042 111.785 97.7684 111.691 97.5223 111.65C97.1578 111.578 96.7875 111.546 96.4169 111.553V114.396C96.4127 114.628 96.4462 114.86 96.516 115.081C96.5773 115.262 96.6923 115.417 96.8438 115.523C97.0282 115.649 97.2363 115.732 97.4536 115.765C97.7669 115.811 98.0828 115.832 98.3989 115.83C98.759 115.833 99.1187 115.804 99.4738 115.741C99.7463 115.69 100.006 115.581 100.236 115.419C100.439 115.26 100.603 115.053 100.716 114.815C100.847 114.504 100.937 114.176 100.983 113.84H101.433L101.258 116.313H93.8555V115.838C94.0832 115.835 94.3103 115.811 94.5339 115.765C94.6837 115.736 94.8217 115.66 94.9303 115.548C95.0367 115.431 95.1037 115.281 95.1209 115.121C95.1549 114.884 95.1702 114.644 95.1667 114.404V108.573C95.1724 108.333 95.1597 108.094 95.1286 107.856C95.1087 107.701 95.0509 107.554 94.9608 107.429C94.8659 107.316 94.7364 107.242 94.5949 107.22C94.3912 107.176 94.1849 107.146 93.9774 107.131V106.656H100.838L100.945 108.871H100.533C100.499 108.59 100.419 108.318 100.297 108.066C100.196 107.855 100.044 107.677 99.855 107.55C99.6373 107.415 99.3962 107.328 99.146 107.292C98.806 107.233 98.4615 107.206 98.1169 107.212H96.5922C96.5643 107.208 96.5359 107.211 96.5092 107.22C96.4825 107.23 96.4582 107.246 96.4383 107.267C96.4184 107.288 96.4034 107.313 96.3943 107.342C96.3853 107.37 96.3826 107.4 96.3864 107.429L96.4169 111.021Z" fill="#171717"/>
<path d="M109.059 116.338V115.863C109.314 115.862 109.569 115.838 109.821 115.79C109.981 115.765 110.13 115.689 110.248 115.573C110.356 115.456 110.428 115.307 110.454 115.146C110.494 114.91 110.512 114.67 110.507 114.429V108.566C110.511 108.326 110.495 108.087 110.461 107.849C110.454 107.683 110.398 107.522 110.301 107.39C110.206 107.277 110.077 107.203 109.935 107.181C109.732 107.137 109.525 107.107 109.318 107.092V106.617H112.878C113.749 106.565 114.615 106.775 115.378 107.221C115.657 107.394 115.887 107.643 116.044 107.942C116.201 108.241 116.279 108.579 116.27 108.921C116.28 109.17 116.241 109.42 116.157 109.654C116.074 109.887 115.946 110.101 115.782 110.282C115.334 110.702 114.795 111.001 114.212 111.151V111.2C114.456 111.2 114.669 111.256 114.852 111.288C115.018 111.316 115.181 111.356 115.34 111.409C115.48 111.451 115.615 111.507 115.744 111.578C115.868 111.646 115.988 111.721 116.102 111.804C116.429 112.018 116.698 112.317 116.883 112.672C117.069 113.028 117.165 113.427 117.162 113.833C117.161 114.275 117.036 114.706 116.804 115.074C116.564 115.464 116.226 115.776 115.828 115.976C115.694 116.05 115.554 116.109 115.409 116.153C115.234 116.203 115.056 116.236 114.875 116.249C114.656 116.286 114.434 116.307 114.212 116.314C113.968 116.314 113.671 116.314 113.328 116.314L109.059 116.338ZM112.413 110.926H113.03C113.174 110.92 113.316 110.904 113.457 110.878C113.567 110.864 113.675 110.834 113.777 110.789C114.121 110.638 114.407 110.372 114.593 110.032C114.71 109.742 114.765 109.429 114.753 109.114C114.777 108.854 114.748 108.593 114.669 108.345C114.59 108.098 114.463 107.872 114.296 107.68C113.882 107.362 113.373 107.21 112.863 107.253H111.948C111.811 107.253 111.742 107.318 111.742 107.463V110.934L112.413 110.926ZM113.389 115.758C114.822 115.758 115.546 115.114 115.546 113.809C115.574 113.397 115.482 112.986 115.284 112.631C115.085 112.275 114.788 111.993 114.433 111.82L114.067 111.667C113.931 111.622 113.79 111.592 113.648 111.578C113.461 111.552 113.272 111.535 113.084 111.53H111.742V114.333C111.724 114.535 111.749 114.739 111.815 114.93C111.881 115.121 111.986 115.294 112.123 115.436C112.495 115.702 112.94 115.829 113.389 115.798V115.758Z" fill="#171717"/>
<path d="M123.401 112.834H120.207C120.07 113.18 119.956 113.486 119.857 113.752C119.757 114.017 119.689 114.243 119.628 114.436C119.576 114.597 119.535 114.761 119.506 114.927C119.494 115.035 119.494 115.143 119.506 115.25C119.495 115.344 119.509 115.44 119.547 115.527C119.584 115.614 119.644 115.688 119.719 115.741C119.945 115.844 120.191 115.888 120.436 115.87V116.345H117.539V115.87C117.699 115.851 117.857 115.818 118.012 115.773C118.133 115.731 118.248 115.671 118.355 115.596C118.458 115.515 118.546 115.414 118.614 115.298C118.701 115.156 118.775 115.005 118.835 114.847L121.938 106.656H122.448L125.155 113.76C125.338 114.227 125.49 114.565 125.627 114.879C125.729 115.11 125.863 115.325 126.024 115.515C126.131 115.651 126.274 115.75 126.435 115.797C126.607 115.842 126.784 115.864 126.961 115.862V116.345H123.081V115.862C123.376 115.88 123.672 115.836 123.95 115.733C124.025 115.696 124.087 115.636 124.129 115.562C124.171 115.487 124.191 115.401 124.187 115.314C124.19 115.236 124.19 115.158 124.187 115.081C124.187 115.016 124.187 114.936 124.141 114.847C124.095 114.758 124.095 114.67 124.057 114.565L123.92 114.195L123.401 112.834ZM120.459 112.229H123.173L121.854 108.517L120.459 112.229Z" fill="#171717"/>
<path d="M134.624 109.089C134.642 109.704 134.438 110.303 134.052 110.764C133.556 111.268 132.915 111.582 132.23 111.658L134.86 115C135.05 115.254 135.293 115.457 135.569 115.596C135.865 115.734 136.178 115.826 136.499 115.87V116.345H134.212L131.292 112.399C131.209 112.274 131.112 112.16 131.003 112.06C130.917 111.978 130.819 111.91 130.713 111.859C130.603 111.815 130.487 111.785 130.37 111.771H129.897V114.388C129.894 114.658 129.912 114.927 129.951 115.193C129.977 115.369 130.057 115.53 130.179 115.652C130.325 115.772 130.499 115.847 130.683 115.87C130.968 115.914 131.256 115.933 131.544 115.926V116.401H127.336V115.926C127.564 115.924 127.791 115.9 128.014 115.854C128.164 115.825 128.302 115.749 128.411 115.636C128.513 115.517 128.58 115.369 128.601 115.209C128.635 114.972 128.651 114.733 128.647 114.493V108.573C128.662 108.334 128.662 108.095 128.647 107.856C128.627 107.701 128.569 107.554 128.479 107.43C128.384 107.317 128.255 107.242 128.114 107.22C127.91 107.176 127.703 107.147 127.496 107.132V106.656H131.239C132.127 106.602 133.01 106.826 133.778 107.301C134.053 107.496 134.275 107.764 134.423 108.077C134.572 108.39 134.641 108.739 134.624 109.089ZM129.882 111.126H130.728C131.349 111.175 131.968 111.014 132.497 110.667C132.702 110.483 132.862 110.249 132.962 109.985C133.063 109.722 133.102 109.436 133.076 109.153C133.101 108.889 133.073 108.622 132.994 108.369C132.915 108.117 132.787 107.884 132.619 107.687C132.207 107.362 131.698 107.208 131.186 107.252H130.118C129.981 107.252 129.913 107.317 129.913 107.462L129.882 111.126Z" fill="#171717"/>
<path d="M83.2791 95.592C83.0141 95.2118 82.8485 94.7646 82.7989 94.2953C82.7123 93.5635 82.6741 92.8261 82.6845 92.0886V70.7622C82.684 70.7207 82.6743 70.6799 82.6561 70.6431C82.638 70.6063 82.6119 70.5745 82.5801 70.5502C82.5482 70.5259 82.5114 70.5099 82.4726 70.5033C82.4338 70.4968 82.3941 70.4999 82.3567 70.5125C81.856 70.6157 81.3826 70.8328 80.9693 71.1488C80.5142 71.6779 79.9054 72.0321 79.2388 72.1555C79.2075 71.636 79.118 71.1224 78.972 70.6253C79.0338 71.1359 79.0338 71.6529 78.972 72.1635C78.5088 72.13 78.0495 72.0518 77.5998 71.93C76.7536 71.785 76.0751 71.5434 75.7702 71.93C75.6406 72.0669 75.6406 72.4051 75.5873 72.6468C75.45 73.2186 75.1527 73.4521 75.1908 73.8387C75.1989 73.914 75.2248 73.9859 75.2661 74.0479C75.3074 74.1098 75.3628 74.1597 75.4272 74.1931C75.5022 74.2259 75.5847 74.235 75.6645 74.2193C75.7443 74.2036 75.8181 74.1637 75.8769 74.1045C75.9681 74.0069 76.0452 73.8956 76.1056 73.7743C76.1676 73.6707 76.2448 73.5783 76.3343 73.5005C76.4811 73.3933 76.6472 73.3192 76.8222 73.283C77.3095 73.2588 77.7975 73.3103 78.2706 73.436C78.5767 73.4962 78.8495 73.6777 79.033 73.9434C79.1185 74.0745 79.1781 74.2224 79.2083 74.3783C79.2464 74.5614 79.2719 74.7471 79.2845 74.934C79.2845 75.2401 79.2845 75.6347 79.2845 76.126C79.2845 76.271 79.2845 76.4079 79.2845 76.5609C79.2845 77.3663 79.2845 78.3408 79.2845 79.4683V92.3544C79.2908 93.0305 79.2501 93.7061 79.1626 94.3759C79.1178 94.8273 78.9451 95.254 78.6671 95.6001C78.3748 95.9095 78.0086 96.1294 77.6074 96.2363C77.0225 96.3808 76.4242 96.4564 75.8236 96.4618V97.7987H86.1455V96.4538C85.5352 96.4482 84.9271 96.3753 84.3311 96.2363C83.922 96.1521 83.5516 95.9252 83.2791 95.592Z" fill="#171717"/>
<path d="M106.352 88.0691C106.068 87.3096 105.663 86.6069 105.155 85.9912C104.628 85.3571 104.011 84.8137 103.326 84.3804C102.61 83.9341 101.841 83.5927 101.039 83.3657C101.746 83.137 102.406 82.768 102.983 82.2784C103.559 81.8596 104.086 81.3703 104.553 80.8207C104.998 80.2425 105.358 79.5962 105.62 78.9039C105.885 78.1878 106.019 77.4255 106.017 76.6569C106.025 75.7678 105.832 74.8895 105.453 74.0958C105.071 73.3204 104.526 72.648 103.859 72.1306C103.104 71.559 102.261 71.1311 101.366 70.8662C100.306 70.5477 99.2065 70.3931 98.1037 70.4071C97.1254 70.3983 96.1499 70.5174 95.1992 70.7615C94.4038 70.9572 93.6458 71.2949 92.958 71.7602C92.3685 72.1572 91.873 72.6917 91.5096 73.3226C91.1662 73.9397 90.9895 74.6444 90.9988 75.3602C90.9865 75.8637 91.0694 76.3648 91.2428 76.834C91.4307 77.2695 91.6887 77.6674 92.0051 78.0099C92.3025 78.3556 92.6663 78.6302 93.0723 78.8153C93.4964 79.0058 93.9532 79.1018 94.414 79.0972C94.9438 79.1126 95.4685 78.9851 95.9387 78.7267C96.1291 78.6331 96.2992 78.4989 96.4383 78.3326C96.5773 78.1663 96.6823 77.9714 96.7468 77.7602C96.427 77.7722 96.1085 77.7131 95.8117 77.5869C95.515 77.4606 95.2466 77.27 95.0239 77.0273C94.5693 76.5012 94.3308 75.8061 94.3607 75.0944C94.337 74.6533 94.4123 74.2125 94.5806 73.808C94.7488 73.4035 95.0052 73.0468 95.3288 72.7669C96.1427 72.1785 97.1195 71.8949 98.1037 71.9615C100.721 71.9615 102.03 73.5991 102.03 76.8743C102.105 78.4532 101.728 80.0194 100.947 81.3683C100.231 82.4314 99.2548 83.2368 98.1037 83.0113C97.7606 82.9549 97.4252 82.8019 97.0593 82.7294C96.7347 82.6665 96.4058 82.6315 96.0759 82.6247C95.6906 82.6068 95.3081 82.7016 94.9705 82.8986C94.855 82.9746 94.7608 83.0819 94.6978 83.2094C94.6348 83.3368 94.6053 83.4798 94.6122 83.6234C94.6149 83.7918 94.6567 83.9569 94.7337 84.1043C94.8108 84.2517 94.9209 84.377 95.0544 84.469C95.3767 84.7021 95.762 84.818 96.1521 84.7992C96.5284 84.7929 96.9024 84.736 97.2651 84.6301C97.5242 84.5517 97.7787 84.4576 98.0275 84.3482C98.3352 84.2109 98.6722 84.1636 99.0032 84.2113C99.5008 84.2713 99.9809 84.4406 100.413 84.7083C100.845 84.976 101.219 85.3362 101.511 85.7657C102.326 87.1094 102.715 88.6913 102.624 90.2839C102.728 91.9206 102.307 93.5465 101.427 94.8987C101.007 95.4394 100.472 95.8673 99.8649 96.1472C99.258 96.4272 98.597 96.5513 97.936 96.5095C96.7882 96.5684 95.6615 96.1687 94.78 95.39C94.3782 95.0304 94.0574 94.5807 93.8411 94.0735C93.6248 93.5663 93.5185 93.0145 93.5297 92.4584C93.4844 91.5604 93.756 90.6765 94.2921 89.9778C94.5467 89.6672 94.8634 89.4202 95.2193 89.2544C95.5752 89.0887 95.9615 89.0084 96.3503 89.0194C96.2879 88.7844 96.1815 88.565 96.0375 88.3741C95.8935 88.1832 95.7147 88.0247 95.5118 87.908C95.0034 87.6119 94.4304 87.4619 93.8499 87.4731C93.3252 87.4666 92.8053 87.5793 92.3253 87.8033C91.8622 88.026 91.4491 88.3499 91.1132 88.7537C90.7678 89.1743 90.492 89.6536 90.2975 90.1711C90.0961 90.7318 89.9953 91.3272 90.0002 91.9269C89.9934 92.795 90.201 93.6499 90.6024 94.4074C91.0135 95.1831 91.5808 95.8539 92.2643 96.3725C93.0258 96.9498 93.8736 97.3881 94.7723 97.6692C95.8008 97.9952 96.8699 98.1554 97.9436 98.1444C99.1449 98.1585 100.34 97.9625 101.481 97.5645C102.491 97.2105 103.431 96.6646 104.256 95.9537C105.018 95.2912 105.641 94.4684 106.085 93.5376C106.532 92.5956 106.759 91.5547 106.748 90.5013C106.757 89.6719 106.623 88.8477 106.352 88.0691Z" fill="#171717"/>
<path d="M78.2802 71.3627C78.1887 71.1963 78.1301 71.012 78.1078 70.821C78.0855 70.63 78.1001 70.4362 78.1506 70.2513C78.2847 69.5815 78.652 68.9893 79.1798 68.5922C78.8596 69.1318 79.5381 69.6553 79.7134 69.9372C79.8902 70.3381 79.9227 70.7933 79.8049 71.2177C80.0644 71.0699 80.2851 70.8564 80.4474 70.5964C80.6097 70.3364 80.7085 70.038 80.7349 69.7278C80.7571 69.4975 80.7364 69.265 80.6739 69.0432C80.5317 68.5946 80.3177 68.1751 80.0412 67.8029C79.7635 67.5056 79.5891 67.1179 79.5462 66.7027C79.5033 66.2875 79.5944 65.8692 79.8049 65.5156C79.8049 65.5156 77.8228 66.8284 77.2892 68.3345C76.687 70.0257 77.4569 71.0808 78.2802 71.3627Z" fill="#171717"/>
</svg>
