<svg width="182" height="182" viewBox="0 0 182 182" fill="none" xmlns="http://www.w3.org/2000/svg">
<rect x="0.5" y="0.5" width="181" height="181" rx="90.5" fill="white"/>
<rect x="0.5" y="0.5" width="181" height="181" rx="90.5" stroke="#CBD8E5"/>
<path d="M74.3322 97.9314C74.5064 97.9598 74.6687 98.0405 74.7992 98.1634C74.8445 98.2156 74.8842 98.2914 74.9553 98.2195C75.2798 97.8913 75.2405 98.2565 75.3075 98.4162C75.3144 98.4433 75.3174 98.4713 75.3165 98.4994C75.3681 99.0473 75.3971 99.5725 75.6503 100.107C75.9358 100.71 75.9279 101.437 76.0423 102.112C76.371 104.051 76.227 105.999 76.1685 107.943C76.1347 109.064 76.249 110.187 76.1197 111.305C76.078 111.666 76.0207 112.025 75.9604 112.383C75.7778 113.468 76.0027 114.499 76.4184 115.477C76.5874 115.874 76.2902 116.063 76.2362 116.353C76.2219 116.429 76.0849 116.39 76.0375 116.318C75.9718 116.206 75.9124 116.09 75.8599 115.97C75.5697 116.165 75.4676 116.569 75.0699 116.63C74.9451 116.649 74.9952 116.887 75.1187 116.975C75.3808 117.164 75.2376 117.274 75.0637 117.389H74.82C74.8027 117.243 74.6868 117.109 74.7812 116.946C74.8249 116.871 74.8276 116.778 74.7239 116.741C74.6853 116.727 74.6429 116.727 74.6043 116.742C74.5658 116.757 74.5336 116.785 74.5137 116.823C74.3313 117.108 74.1531 117.024 73.9485 116.839C73.7789 116.685 73.5821 116.564 73.3772 116.413C73.3554 116.698 73.2902 116.921 72.9419 116.737C72.8261 116.675 72.7571 116.818 72.6775 116.888C72.5767 117 72.461 117.096 72.3338 117.175C72.1398 117.261 71.8992 117.377 71.718 117.219C71.554 117.075 71.7512 116.89 71.7842 116.722C71.7998 116.643 71.8451 116.563 71.765 116.469C71.5605 116.52 71.3838 116.672 71.1377 116.661C70.9886 116.654 70.9348 116.891 70.912 117.065C70.895 117.194 70.8582 117.328 70.6953 117.311C70.4661 117.288 70.702 117.103 70.5963 117.009C70.28 117.229 70.113 117.138 70.021 116.74C69.9594 116.474 69.5337 116.437 69.5848 116.06C69.3799 116.127 69.2332 116.797 69.0329 116.095C69.0054 115.999 68.8897 116.035 68.8248 116.083C68.7589 116.132 68.6969 116.213 68.7788 116.292C68.8761 116.387 68.9919 116.46 69.0969 116.547C69.2411 116.665 69.4514 116.757 69.3713 117.003C69.3469 117.085 69.2976 117.156 69.2307 117.206C69.1638 117.256 69.0831 117.283 69.0006 117.281C68.7827 117.283 68.5575 117.289 68.4515 117.029C68.409 116.927 68.3723 116.822 68.3414 116.715C68.2989 116.564 68.1987 116.499 68.0661 116.556C67.7697 116.682 67.6801 116.527 67.6343 116.261C67.6138 116.142 67.5754 115.988 67.4208 116C67.2384 116.014 67.1962 116.169 67.185 116.336C67.1998 116.508 67.1607 116.681 67.0735 116.828C66.9127 116.673 66.8971 116.457 66.837 116.265C66.7552 116.004 66.6618 115.996 66.4894 116.198C66.204 116.533 66.1364 116.525 65.9197 116.14C65.8958 116.091 65.8614 116.048 65.8191 116.015C65.7768 115.981 65.7277 115.959 65.6756 115.948C65.1006 115.817 64.8938 115.362 64.7646 114.837C64.708 114.607 64.6582 114.374 64.5824 114.151C64.5319 114 64.5131 113.841 64.527 113.683C64.541 113.524 64.5875 113.371 64.6634 113.233C64.8802 112.76 65.1506 112.249 64.7795 111.707C64.7678 111.683 64.7619 111.657 64.7622 111.63C64.7625 111.603 64.7691 111.577 64.7813 111.553C65.0581 111.157 64.8818 110.776 64.7516 110.394C64.665 110.142 64.6389 109.872 64.6754 109.607C64.6863 109.525 64.7217 109.429 64.8105 109.422C64.9234 109.412 64.9183 109.526 64.9284 109.603C64.948 109.808 64.9812 110.011 65.0277 110.211C65.3723 108.423 65.149 106.634 65.0661 104.845C65.5056 104.262 65.9122 103.648 66.3921 103.103C67.17 102.22 67.3654 100.956 68.242 100.142C68.3799 100.014 67.9255 99.0853 67.7312 99.0596C67.6419 99.0478 67.5855 99.1172 67.5157 99.1575C67.386 99.2324 67.315 99.1621 67.2801 99.0319C67.6278 98.9505 67.858 98.6476 68.1878 98.5228C68.5695 98.3784 68.6814 97.9582 68.9221 97.6684C69.0199 97.7827 69.1798 97.8733 69.2659 97.7502C69.548 97.3471 69.8464 97.5823 70.1316 97.698C70.4081 97.8101 70.6569 98.0289 70.9389 98.0831C71.1725 98.1095 71.395 98.1997 71.5838 98.3447C71.5669 98.5245 71.5301 98.7722 71.7017 98.8273C71.916 98.8962 71.9836 98.6348 72.0765 98.4746C72.095 98.4385 72.1115 98.4014 72.126 98.3633C72.301 98.195 72.4513 98.0509 72.6652 98.3502C72.8347 98.5874 73.0601 98.6943 73.3085 98.3828C73.4403 98.2673 73.5901 98.1759 73.7514 98.1124C73.9155 98.1678 73.7964 98.4598 73.9701 98.4499C74.1387 98.4402 74.0889 98.2011 74.1767 98.0869C74.2092 98.0446 74.2353 97.9969 74.2643 97.9516L74.2609 97.9536C74.2737 97.9562 74.2868 97.9554 74.2992 97.9516C74.3116 97.9477 74.323 97.9408 74.3322 97.9314Z" fill="#6B3888"/>
<path d="M56.5374 68.9197C56.7397 68.7675 56.9826 68.6842 57.2325 68.6813C57.4824 68.6784 57.727 68.7561 57.9324 68.9036C58.1945 69.0707 58.4702 69.2149 58.7395 69.3699C58.9721 69.5104 59.142 69.74 59.2128 70.0093C59.3856 70.5283 59.5579 71.0759 60.1818 71.2206C60.216 71.2285 60.2653 71.2649 60.2702 71.2947C60.3753 71.9271 60.9505 71.9814 61.3531 72.2468C61.36 72.2827 61.3783 72.3151 61.4051 72.3389C61.4319 72.3626 61.4655 72.3764 61.5008 72.3779L61.5695 72.4249C61.599 72.5574 61.8241 72.6864 61.6592 72.806C61.5324 72.898 61.4061 72.7262 61.3104 72.6065C61.2386 72.5167 61.1707 72.4015 60.9792 72.4458C61.1361 72.8907 61.5391 73.0587 61.8265 73.338L61.8407 73.4304C61.8844 73.8463 62.298 73.9581 62.4773 74.2626C62.6275 74.5643 62.9198 74.707 63.1626 74.8984C63.6959 75.3279 64.2001 75.7951 64.6715 76.2965C64.8721 76.5362 65.1441 76.6998 65.3217 76.9666C65.3994 77.0833 65.5108 77.1904 65.454 77.3374C65.3075 77.7174 65.5168 77.959 65.7152 78.2362C65.9723 78.5954 66.3392 78.9634 66.3407 79.3984C66.3597 80.0478 66.528 80.6832 66.8317 81.2516C67.0266 81.7169 67.037 82.243 66.8605 82.7161C66.7535 82.9792 66.7075 83.2645 66.7261 83.5493C66.7366 83.8009 66.9337 84.1033 66.5423 84.2484C66.5164 84.258 66.5138 84.3828 66.5266 84.4486C66.5735 84.6895 66.45 84.7957 66.2602 84.8964C65.7998 85.1407 65.2679 85.2049 64.8382 85.536C64.7661 85.5916 64.6776 85.6196 64.5878 85.6152C64.4981 85.6107 64.4125 85.5741 64.3459 85.5116C64.2528 85.4201 64.1523 85.3265 64.0294 85.416C63.8879 85.5192 63.9621 85.6592 64.0081 85.7936C64.1752 86.282 64.0812 86.4102 63.5971 86.3897C63.3818 86.3805 63.1063 86.3522 63.1798 86.7102C63.2687 87.1433 63.1596 87.3617 62.6362 87.2806C62.7931 87.5655 62.9054 87.8127 62.7137 88.063C62.5176 88.0877 62.3093 88.0688 62.1856 88.29C62.0729 88.4917 61.9463 88.4458 61.7976 88.3087C61.5472 88.0671 61.2814 87.8433 61.0021 87.6388C60.7842 87.515 60.5588 87.406 60.3273 87.3125C59.28 86.7749 58.4413 85.9347 57.516 85.2202C56.4588 84.2246 55.5224 83.1074 54.5369 82.0396C54.0319 81.4925 53.5191 80.9542 52.9699 80.4541C52.5892 80.0775 52.2605 79.648 51.9933 79.1779C51.3656 78.1729 50.4676 77.5279 49.4355 77.0819C49.0746 76.926 49.0288 76.6483 48.9271 76.3588C48.8866 76.2436 48.9654 76.1989 49.0509 76.206C49.1743 76.2236 49.2966 76.2492 49.417 76.2826C49.532 75.9618 49.279 75.6031 49.5427 75.2844C49.6315 75.1771 49.4328 75.0722 49.2896 75.0556C49.1802 75.0429 49.0238 75.1135 49.009 74.9176C49.004 74.8607 49.015 74.8035 49.0407 74.753C49.0663 74.7025 49.1055 74.6607 49.1535 74.6327C49.1835 74.6157 49.2166 74.6056 49.2506 74.6029C49.2846 74.6003 49.3188 74.6052 49.3509 74.6173C49.3829 74.6295 49.4121 74.6485 49.4365 74.6733C49.4609 74.6981 49.4799 74.7279 49.4923 74.7609C49.5369 74.8407 49.5787 74.9616 49.6968 74.9222C49.8013 74.8873 49.8101 74.7776 49.8016 74.6737C49.7797 74.4029 49.9134 74.2807 50.162 74.2915C50.3954 74.2791 50.6261 74.2334 50.8475 74.1556C50.738 73.9586 50.638 73.7634 50.9248 73.6401C51.0652 73.5797 51.0327 73.4315 51.0489 73.3094C51.0599 73.1282 51.0903 72.9488 51.1396 72.7746C51.2013 72.6072 51.3144 72.4165 51.4876 72.388C51.6843 72.3556 51.6997 72.5946 51.7822 72.7268C51.8312 72.8054 51.8498 72.9376 51.9666 72.9204C52.053 72.9077 52.043 72.7836 52.0845 72.7184C52.2864 72.4009 52.4205 72.096 52.1122 71.7581C52.0557 71.6961 52.1938 71.5529 52.1975 71.5566C52.5064 71.8625 52.5053 71.4174 52.6579 71.3575C52.6924 71.344 52.7516 71.3366 52.7725 71.3566C53.0772 71.6482 53.4899 71.3689 53.8341 71.6252C53.8381 71.3436 53.6811 70.9151 54.1883 71.2086C54.2688 71.2553 54.3198 71.1317 54.339 71.0534C54.3658 70.9436 54.2934 70.8959 54.203 70.8987C54.0681 70.8997 53.9336 70.9138 53.8012 70.9409C53.6193 70.9826 53.4286 71.0078 53.3268 70.8251C53.2838 70.7436 53.2697 70.6491 53.2871 70.558C53.3044 70.4668 53.352 70.3849 53.4216 70.3264C53.5669 70.1809 53.7025 70.0052 53.9432 70.1186C54.0417 70.1649 54.1375 70.2171 54.2355 70.2645C54.3564 70.3229 54.4788 70.3479 54.5416 70.1886C54.6558 69.8984 54.8251 69.9061 55.0462 70.0591C55.1446 70.1271 55.2734 70.2083 55.3799 70.0956C55.5162 69.9513 55.4047 69.8162 55.3237 69.6894C55.3678 69.4853 55.5178 69.5417 55.6463 69.5504C55.7518 69.5576 55.9413 69.5813 55.926 69.4811C55.8416 68.9306 56.2219 69.0017 56.5251 68.958C56.5308 68.9572 56.5334 68.933 56.5374 68.9197Z" fill="#43A83E"/>
<path d="M57.516 85.2202C58.4413 85.9347 59.28 86.7749 60.3273 87.3125C60.5588 87.406 60.7842 87.515 61.0021 87.6388C61.2814 87.8433 61.5472 88.0671 61.7976 88.3087C61.9463 88.4458 62.0729 88.4917 62.1856 88.29C62.3093 88.0688 62.5176 88.0877 62.7137 88.063C62.754 88.1686 62.779 88.2799 62.7878 88.3931C62.8527 88.91 63.6976 88.9532 63.4651 89.6238C63.9257 89.8856 63.6565 90.2143 63.5366 90.5228C63.3845 90.9142 63.1747 91.2829 63.1113 91.7084C63.0421 91.8805 62.9512 92.0007 62.7369 91.9681C62.6256 91.9511 62.4751 91.969 62.447 92.1194C62.4206 92.2605 62.5504 92.3307 62.6441 92.4023C62.782 92.5077 62.9267 92.6036 63.0685 92.7035C63.1945 92.887 63.0508 92.9738 62.9441 93.0722C62.5655 93.4213 62.577 93.4103 62.9126 93.8066C63.0385 93.9553 63.3639 94.1474 62.9362 94.3633C62.7968 94.4337 62.981 94.5834 62.9881 94.5839C63.2859 94.6073 63.2727 94.8883 63.3737 95.0715C63.049 95.3305 63.0104 95.3779 63.0574 95.4599C63.208 95.7227 63.1736 95.8214 62.8735 95.8292C62.343 95.8134 61.8159 95.9232 61.3323 96.1502C60.6163 96.5188 59.7898 96.5357 59.0088 96.6349C58.3216 96.7223 57.6326 96.8794 56.931 96.8428C55.2703 96.8102 53.6123 96.6541 51.9491 96.7353C50.9762 96.7554 50.004 96.6672 49.0493 96.4721C48.7572 96.4083 48.4549 96.4144 48.1654 96.4898C47.5622 96.6709 46.9036 96.6473 46.3479 96.9987C46.0046 97.2158 45.8192 96.8291 45.5425 96.7893C45.4837 96.7809 45.543 96.634 45.6089 96.5874C45.7117 96.5215 45.8179 96.4611 45.9268 96.4067C45.7425 96.1098 45.3788 96.006 45.2974 95.61C45.2602 95.4289 45.0501 95.5419 44.9403 95.6596C44.8767 95.7279 44.8242 95.8453 44.7164 95.7705C44.6669 95.7323 44.6293 95.6798 44.6083 95.6195C44.5874 95.5592 44.5842 95.4939 44.5989 95.4317C44.6217 95.2947 44.7408 95.2788 44.8468 95.2605C44.9525 95.2423 45.0835 95.4173 45.1634 95.2344C45.2274 95.0879 45.106 95.0183 45.0133 94.9313C44.9874 94.9082 44.9663 94.8798 44.9514 94.848C44.9364 94.8161 44.9278 94.7815 44.9261 94.7461C44.9245 94.7107 44.9298 94.6753 44.9417 94.6421C44.9537 94.6089 44.972 94.5785 44.9956 94.5529C45.1636 94.3198 45.3354 94.0897 45.519 93.84C45.2843 93.7992 45.0132 93.7965 45.1752 93.4251C45.2266 93.3073 45.1361 93.2144 45.0644 93.129C44.9691 93.0302 44.8815 92.9238 44.8022 92.8109C44.6759 92.6011 44.5944 92.333 44.7201 92.1344C44.852 91.9259 45.053 92.1668 45.2265 92.1872C45.2901 92.1946 45.3538 92.2011 45.4381 92.2102C45.4366 91.9534 45.23 91.7921 45.2693 91.5283C45.2912 91.3813 45.044 91.2811 44.853 91.2784C44.8255 91.28 44.7981 91.2759 44.7722 91.2664C44.7463 91.2568 44.7225 91.242 44.7023 91.2228C44.682 91.2036 44.6656 91.1804 44.6541 91.1545C44.6426 91.1287 44.6362 91.1007 44.6352 91.0722C44.6246 90.9149 44.7288 90.9538 44.8298 90.9729C44.9479 90.9953 44.9168 90.9026 44.8885 90.8452C44.7414 90.5476 44.9002 90.4296 45.1484 90.3819C45.4455 90.3248 45.4267 89.8307 45.8022 89.9203C45.8081 89.703 45.6035 89.7223 45.544 89.6025C45.5615 89.4674 45.6115 89.3693 45.7615 89.3492C45.8968 89.3311 45.8996 89.232 45.8446 89.1344C45.7789 89.018 45.6784 88.9853 45.5817 89.0913C45.4559 89.1952 45.3669 89.3395 45.3286 89.5015C45.1478 89.6847 44.9621 89.8076 44.7578 89.5355C44.5962 89.3201 44.6481 88.8589 44.8687 88.7547C45.1538 88.6199 45.5129 88.5952 45.3518 88.0899C45.3035 87.9386 45.5341 87.9345 45.6574 87.8917C45.77 87.8527 45.9056 87.818 45.8966 87.6522C45.8866 87.469 45.7446 87.4436 45.6085 87.4192C45.4526 87.3912 45.2812 87.4402 45.1157 87.298C45.2609 87.1823 45.4301 87.1032 45.6099 87.0667C45.8767 86.986 45.9205 86.8563 45.6833 86.6756C45.4045 86.4633 45.4114 86.2714 45.7267 86.1187C45.784 86.0987 45.8354 86.0639 45.8761 86.0176C45.9169 85.9713 45.9456 85.9151 45.9596 85.8541C46.078 85.1937 46.5904 85.0391 47.1051 84.8877C47.2502 84.8591 47.3937 84.8218 47.5346 84.7759C47.7104 84.6916 47.9033 84.6529 48.0967 84.663C48.2901 84.6731 48.4782 84.7318 48.6449 84.834C49.0621 85.0588 49.5568 85.3023 50.0486 84.9252C50.0718 84.9133 50.0973 84.9072 50.1232 84.9076C50.1491 84.9079 50.1745 84.9146 50.1973 84.9271C50.566 85.1818 50.9175 85.039 51.2799 84.9037C51.5311 84.7951 51.8073 84.7647 52.0748 84.8163C52.1502 84.8343 52.2411 84.8739 52.2275 84.9794C52.2164 85.0659 52.1256 85.0481 52.0666 85.0719C51.8818 85.1466 51.6669 85.043 51.4851 85.1591C51.5154 85.3104 51.6231 85.3112 51.7087 85.3015C52.2192 85.255 52.7335 85.2815 53.2371 85.3801C53.8429 85.4832 54.4447 85.383 55.0472 85.3036C55.8678 85.225 56.6922 85.1971 57.516 85.2202Z" fill="#CA5597"/>
<path d="M56.931 96.8428C57.6326 96.8794 58.3216 96.7223 59.0088 96.6349C59.7898 96.5357 60.6163 96.5188 61.3323 96.1502C61.8159 95.9232 62.343 95.8134 62.8735 95.8292C63.1736 95.8214 63.208 95.7227 63.0574 95.4599C63.0104 95.3779 63.049 95.3305 63.3737 95.0715C63.5563 95.0443 63.7386 95.0144 63.9217 94.991C64.0266 94.9775 64.2098 94.9482 64.2167 95.0339C64.2455 95.3913 64.4462 95.3041 64.6619 95.2846C64.7692 95.275 64.8502 95.3865 64.9163 95.5071C65.1698 95.9704 65.1794 96.5371 65.5398 96.9632C65.5783 97.0101 65.6062 97.0654 65.6215 97.125C65.6369 97.1845 65.6392 97.2468 65.6284 97.3074C65.6176 97.3681 65.5939 97.4254 65.559 97.4753C65.5241 97.5252 65.479 97.5665 65.4268 97.596C65.3729 97.9406 65.4409 97.9737 65.9079 97.8303C66.2524 97.7883 66.4836 97.8558 66.3659 98.3043C66.3603 98.3998 66.3719 98.4955 66.3999 98.5867C66.5555 98.8238 66.7826 98.6357 66.9705 98.6884C67.1478 98.7381 67.4056 98.6943 67.2801 99.0319C67.315 99.1621 67.386 99.2324 67.5157 99.1575C67.5855 99.1172 67.6419 99.0478 67.7312 99.0596C67.9255 99.0853 68.3799 100.014 68.242 100.142C67.3654 100.956 67.17 102.22 66.3921 103.103C65.9122 103.648 65.5056 104.262 65.0661 104.845C63.623 106.308 62.1048 107.69 60.7103 109.205C60.1762 109.785 59.5261 110.214 58.9258 110.708C58.2543 111.291 57.737 112.041 57.4227 112.888C57.2982 113.195 57.1593 113.42 56.7891 113.483C56.5197 113.528 56.4746 113.46 56.5598 113.254C56.6689 112.989 56.5683 112.985 56.3575 112.99C56.1395 112.995 55.9263 113.05 55.7005 112.892C55.4958 112.749 55.4463 112.998 55.4227 113.159C55.4074 113.264 55.4666 113.402 55.3062 113.419C55.2517 113.424 55.197 113.414 55.1476 113.39C55.0982 113.366 55.0558 113.328 55.0249 113.282C54.9497 113.161 55.0072 113.048 55.1068 112.949C55.179 112.878 55.3472 112.856 55.3037 112.719C55.2581 112.575 55.1042 112.62 54.986 112.605C54.9417 112.604 54.898 112.594 54.8579 112.574C54.8178 112.555 54.7824 112.526 54.754 112.491C54.7257 112.456 54.7052 112.414 54.6939 112.37C54.6826 112.325 54.6808 112.279 54.6887 112.234C54.6955 111.989 54.6526 111.745 54.5626 111.519C54.37 111.633 54.1773 111.757 54.0572 111.42C53.9966 111.251 53.8342 111.307 53.7021 111.33C53.5572 111.304 53.4143 111.268 53.2746 111.221C53.1012 111.149 52.9043 111.048 52.8771 110.846C52.8454 110.612 53.1016 110.616 53.2332 110.518C53.295 110.472 53.3912 110.47 53.3907 110.338C53.0341 110.227 52.7447 109.747 52.2794 110.166C52.1521 110.281 52.0292 110.17 52.0608 109.974C52.2236 109.878 52.2305 109.85 52.1291 109.823C51.8247 109.741 51.8118 109.563 51.9511 109.324C52.1064 109.058 51.8598 108.73 52.0906 108.501C52.022 108.352 51.9424 108.455 51.8736 108.455C51.6726 108.453 51.5337 108.407 51.6832 108.163C51.7279 108.089 51.7833 108.017 51.6812 107.953C51.6352 107.924 51.5816 107.909 51.5276 107.912C51.4206 107.923 51.4125 108.016 51.4189 108.102C51.4252 108.228 51.4406 108.353 51.4647 108.476C51.5026 108.647 51.5382 108.836 51.3798 108.934C51.3114 108.981 51.2297 109.004 51.1477 108.997C51.0657 108.991 50.9882 108.956 50.9275 108.899C50.7743 108.747 50.5762 108.606 50.6552 108.337C50.6967 108.219 50.7479 108.105 50.8083 107.996C50.8744 107.861 50.8596 107.74 50.7249 107.676C50.4414 107.542 50.4785 107.36 50.6241 107.142C50.6968 107.033 50.7406 106.897 50.6187 106.803C50.5675 106.767 50.5053 106.752 50.4443 106.761C50.3832 106.771 50.3276 106.803 50.2881 106.852C50.2364 106.895 50.1796 106.932 50.1191 106.96C50.0535 106.995 49.9836 107.087 49.9109 106.998C49.8865 106.964 49.8752 106.921 49.8793 106.879C49.8833 106.837 49.9024 106.798 49.9328 106.769C49.9715 106.713 50.0072 106.654 50.0396 106.594C50.1732 106.381 50.1572 106.238 49.8745 106.277C49.5013 106.328 49.3516 106.202 49.4836 105.811C49.5025 105.751 49.5081 105.687 49.4998 105.624C49.4916 105.561 49.4697 105.5 49.4359 105.447C49.3304 105.275 49.276 105.074 49.2793 104.87C49.2827 104.665 49.3437 104.467 49.4548 104.298C49.6531 103.95 49.8152 103.579 50.0139 103.231C50.1259 103.057 50.2946 102.931 50.489 102.876C51.0084 102.68 51.577 102.515 51.7261 101.831C51.7369 101.807 51.7531 101.785 51.7734 101.768C51.7937 101.751 51.8175 101.74 51.843 101.734C52.2737 101.662 52.3939 101.294 52.5624 100.959C52.7284 100.628 52.8865 100.273 53.3084 100.21C53.3757 100.322 53.2685 100.381 53.2409 100.465C53.1734 100.671 52.7564 100.782 52.9547 100.981C53.075 101.102 53.2993 100.733 53.452 100.556C53.4879 100.501 53.5168 100.442 53.5378 100.379C53.7234 100.095 54.0651 100.059 54.3125 99.8384C55.0042 99.2212 55.4615 98.4067 56.0958 97.7487C56.3806 97.4534 56.6529 97.1451 56.931 96.8428Z" fill="#02A6DD"/>
<path d="M66.7261 83.5493C66.7075 83.2645 66.7535 82.9792 66.8605 82.7161C67.037 82.243 67.0266 81.7169 66.8317 81.2516C66.528 80.6832 66.3597 80.0478 66.3407 79.3984C66.3392 78.9634 65.9723 78.5954 65.7152 78.2362C65.5168 77.959 65.3075 77.7174 65.454 77.3374C65.5108 77.1904 65.3994 77.0833 65.3217 76.9666C65.1441 76.6998 64.8721 76.5362 64.6715 76.2965C64.8183 76.0926 64.8056 75.8515 64.8085 75.6183C64.8226 74.496 64.8591 73.373 64.833 72.2515C64.8083 71.1924 64.9735 70.1581 65.1049 69.1176C65.1488 68.8686 65.1431 68.6129 65.0881 68.3663C64.9117 67.7125 64.9188 67.0083 64.5731 66.4002C64.3804 66.0612 64.7572 65.8845 64.8122 65.6122C64.8185 65.5809 64.9428 65.6043 64.9815 65.6719C65.0411 65.7763 65.091 65.8868 65.1561 66.0168C65.4397 65.8063 65.5563 65.4344 65.9285 65.3498C66.0452 65.3233 65.9878 65.1056 65.8902 64.9883C65.8225 64.9069 65.7104 64.828 65.83 64.7092C65.8627 64.6731 65.903 64.6455 65.9479 64.6285C65.9927 64.6115 66.0408 64.6057 66.0882 64.6116C66.1155 64.6152 66.1418 64.6245 66.1655 64.639C66.1892 64.6536 66.2098 64.6729 66.226 64.696C66.2422 64.7191 66.2537 64.7454 66.2598 64.7732C66.2659 64.801 66.2664 64.8299 66.2613 64.8579C66.1807 65.3331 66.2644 65.3921 66.6035 65.0408C66.7133 64.9271 66.8748 64.991 67.0067 65.1019C67.194 65.2594 67.3984 65.395 67.6402 65.5728C67.654 65.2563 67.762 65.101 68.0659 65.2336C68.1993 65.2918 68.2832 65.152 68.3689 65.0668C68.4788 64.9234 68.6274 64.8172 68.7957 64.7617C68.9645 64.7273 69.1546 64.6165 69.2952 64.7733C69.4093 64.9005 69.2947 65.0611 69.2523 65.2035C69.2251 65.295 69.1662 65.4013 69.256 65.4744C69.3296 65.5342 69.4011 65.4297 69.4748 65.4179C69.8272 65.3616 70.1262 65.2586 70.139 64.8032C70.1416 64.7116 70.3099 64.6621 70.3135 64.681C70.3885 65.0714 71.0268 64.7141 71.0043 65.2568C70.9968 65.4378 71.2475 65.4958 71.3857 65.6034C71.4042 65.6861 71.4407 65.8098 71.5288 65.7477C71.7323 65.6041 71.8756 65.5203 71.9579 65.8629C71.9857 65.9787 72.113 65.9574 72.1961 65.8933C72.2175 65.8815 72.2355 65.864 72.2484 65.8428C72.2614 65.8215 72.2688 65.7972 72.2699 65.7721C72.2711 65.747 72.2659 65.722 72.255 65.6995C72.2441 65.6771 72.2277 65.658 72.2075 65.6441C72.0743 65.5276 71.9208 65.4355 71.7914 65.3151C71.5671 65.1064 71.6015 64.886 71.8725 64.7589C71.9598 64.7249 72.0494 64.6975 72.1405 64.6769C72.1857 64.6792 72.2309 64.6814 72.2762 64.6837C72.3299 64.7233 72.4152 64.752 72.4322 64.8045C72.5823 65.2668 72.9091 65.4744 73.3551 65.522C73.3645 65.7214 73.363 65.9599 73.631 65.9372C73.8701 65.9169 73.8224 65.6772 73.8448 65.5034C73.8582 65.3994 73.8163 65.2747 73.9448 65.1994C74.0681 65.3258 74.1461 65.492 74.166 65.6706C74.2393 65.9343 74.3436 66.0236 74.5323 65.7684C74.7565 65.4652 74.9465 65.478 75.089 65.8323C75.1655 66.0223 75.3364 66.0377 75.4817 66.0911C75.6448 66.1381 75.7924 66.2306 75.9084 66.3585C76.0244 66.4864 76.1044 66.6448 76.1397 66.8165C76.2159 67.1551 76.328 67.4855 76.4322 67.8168C76.4807 67.9669 76.4985 68.1259 76.4842 68.2836C76.47 68.4412 76.4242 68.594 76.3497 68.7322C76.1302 69.205 75.8785 69.7263 76.2224 70.2735C76.2348 70.2967 76.2419 70.3225 76.2431 70.3489C76.2443 70.3754 76.2396 70.4017 76.2294 70.426C75.9917 70.8089 76.1337 71.1709 76.2527 71.5492C76.3391 71.8238 76.4265 72.1161 76.3147 72.411C76.2795 72.5039 76.2482 72.6641 76.103 72.4997C76.0977 72.3605 76.1 72.2204 76.0845 72.0824C76.072 71.9714 76.1521 71.7826 75.9828 71.7762C75.8313 71.7704 75.8594 71.9658 75.8405 72.0791C75.8314 72.176 75.8391 72.2738 75.8632 72.3678C75.9393 72.6647 75.9156 72.9796 75.7961 73.2606L75.794 73.2657C75.733 73.3191 75.7531 73.3703 75.798 73.4208C75.6512 74.8363 76.0518 76.2308 75.9487 77.6449C75.9214 78.0194 76.0256 78.4456 75.541 78.6178C75.4941 78.6345 75.4571 78.7276 75.4436 78.7916C75.344 79.2654 75.2461 79.7399 75.1604 80.2166C75.1385 80.3385 75.1761 80.4878 75.053 80.5579C74.3719 80.9455 74.3014 81.7163 74.0195 82.346C73.82 82.782 73.4764 83.1294 73.0511 83.3251C72.6783 83.5158 72.3637 83.7616 72.225 84.1904C72.0467 84.184 71.8593 84.2345 71.7016 84.0998C71.2984 83.9882 70.8899 84.0538 70.4832 84.0607L70.3722 84.0516C70.3457 83.9961 70.3037 83.9501 70.2516 83.9198C70.1995 83.8895 70.1397 83.8762 70.0802 83.8816C69.7578 83.8562 69.4287 83.8223 69.4423 83.3486C69.4453 83.2988 69.4308 83.2496 69.4015 83.21C69.3722 83.1704 69.33 83.1432 69.2828 83.1335C69.2423 83.129 69.2014 83.1371 69.1653 83.1567C69.1293 83.1763 69.0996 83.2066 69.0802 83.2438C69.0019 83.3559 68.9513 83.4908 68.8649 83.5946C68.735 83.7509 68.5924 83.8697 68.4035 83.6461C68.0612 83.2408 68.0562 83.2454 67.6651 83.6106C67.3625 83.4206 67.0383 83.5819 66.7261 83.5493Z" fill="#58B9A7"/>
<path d="M71.7016 84.0998C71.8593 84.2345 72.0467 84.184 72.225 84.1904C72.6839 84.2003 73.143 84.2055 73.6015 84.2245C73.6845 84.228 73.8778 84.1809 73.7307 84.4126C73.6015 84.6161 73.8376 84.5996 73.9174 84.6267C74.3292 84.7666 74.7474 84.8814 75.1565 85.0369C75.4566 85.1509 75.4939 85.2959 75.3998 85.5677C75.2797 85.915 75.0401 86.2705 75.1755 86.6337C75.2716 86.8713 75.3079 87.1303 75.281 87.3864C75.2391 87.7458 75.3476 88.1265 75.0393 88.4502C74.8242 88.6761 74.9817 89.2583 75.2282 89.4687C75.423 89.635 75.3507 89.8471 75.268 90.041C75.2322 90.1135 75.1783 90.1747 75.112 90.2184C74.7797 90.4509 74.6219 90.7075 74.9132 91.1022C75.0215 91.249 74.9841 91.4595 74.9478 91.6346C74.8119 92.2909 74.6071 92.9301 74.6366 93.6201C74.6502 93.9381 74.6026 94.1816 74.9347 94.4201C75.3221 94.6985 75.2503 95.7084 74.8637 96.053C74.6739 96.2427 74.5525 96.4941 74.5196 96.7653C74.4559 97.0559 74.5025 97.3732 74.2045 97.5717C74.1553 97.6045 74.1792 97.7552 74.1693 97.8514C74.03 97.9384 73.8907 98.0254 73.7514 98.1124C73.5901 98.1759 73.4403 98.2673 73.3085 98.3828C73.0601 98.6943 72.8347 98.5874 72.6652 98.3502C72.4513 98.0509 72.301 98.195 72.126 98.3633L71.5838 98.3447C71.395 98.1997 71.1725 98.1095 70.9389 98.0831C70.6569 98.0289 70.4081 97.8101 70.1316 97.698C69.8464 97.5823 69.548 97.3471 69.2659 97.7502C69.1798 97.8733 69.0199 97.7827 68.9221 97.6684C68.7944 97.4704 68.7083 97.2252 68.4159 97.5273C68.3229 97.6069 68.2151 97.6659 68.0993 97.7006C67.9834 97.7353 67.8619 97.745 67.7423 97.729C67.5282 97.7171 67.3362 97.7894 67.3564 98.0709C67.3754 98.3356 67.2341 98.3385 67.053 98.2954C66.9319 98.2666 66.7553 98.145 66.7236 98.3518C66.6873 98.5892 66.5086 98.5143 66.3999 98.5867C66.3719 98.4955 66.3603 98.3998 66.3659 98.3043C66.4836 97.8558 66.2524 97.7883 65.9079 97.8303C65.8558 97.7761 66.1536 97.7946 65.9299 97.6877C65.7633 97.6081 65.5765 97.7224 65.4268 97.596C65.479 97.5665 65.5241 97.5252 65.559 97.4753C65.5939 97.4254 65.6176 97.3681 65.6284 97.3074C65.6392 97.2468 65.6369 97.1845 65.6215 97.125C65.6062 97.0654 65.5783 97.0101 65.5398 96.9632C65.1794 96.5371 65.1698 95.9704 64.9163 95.5071C64.8502 95.3865 64.7692 95.275 64.6619 95.2846C64.4462 95.3041 64.2455 95.3913 64.2167 95.0339C64.2098 94.9482 64.0266 94.9775 63.9217 94.991C63.7386 95.0144 63.5563 95.0443 63.3737 95.0715C63.2727 94.8883 63.2859 94.6073 62.9881 94.5839C62.981 94.5834 62.7968 94.4337 62.9362 94.3633C63.3639 94.1474 63.0385 93.9553 62.9126 93.8066C62.577 93.4103 62.5655 93.4213 62.9441 93.0722C63.0508 92.9738 63.1945 92.887 63.0685 92.7035C63.1713 92.506 62.843 92.2289 63.0052 92.1882C63.4528 92.0758 63.1137 91.8703 63.1113 91.7084C63.1747 91.2829 63.3845 90.9142 63.5366 90.5228C63.6565 90.2143 63.9257 89.8856 63.4651 89.6238C63.6976 88.9532 62.8527 88.91 62.7878 88.3931C62.779 88.2799 62.754 88.1686 62.7137 88.063C62.9054 87.8127 62.7931 87.5655 62.6362 87.2806C63.1596 87.3617 63.2687 87.1433 63.1798 86.7102C63.1063 86.3522 63.3818 86.3805 63.5971 86.3897C64.0812 86.4102 64.1752 86.282 64.0081 85.7936C63.9621 85.6592 63.8879 85.5192 64.0294 85.416C64.1523 85.3265 64.2528 85.4201 64.3459 85.5116C64.4125 85.5741 64.4981 85.6107 64.5878 85.6152C64.6776 85.6196 64.7661 85.5916 64.8382 85.536C65.2679 85.2049 65.7998 85.1407 66.2602 84.8964C66.45 84.7957 66.5735 84.6895 66.5266 84.4486C66.5138 84.3828 66.5164 84.258 66.5423 84.2484C66.9337 84.1033 66.7366 83.8009 66.7261 83.5493C67.0383 83.5819 67.3625 83.4206 67.6651 83.6106C67.8217 83.861 68.0756 83.6733 68.2796 83.7541C68.5955 83.9041 68.928 84.0136 69.2696 84.08C69.637 84.1138 70.0069 84.1042 70.3722 84.0516C70.4092 84.0547 70.4467 84.0577 70.4832 84.0607C70.8856 84.1342 71.2956 84.1474 71.7016 84.0998Z" fill="#FCEC03"/>
<path d="M93.2347 78.8342H91.4753V73.7957H91.4433C90.8196 74.5759 89.7639 75.226 88.5804 75.226C86.5971 75.226 85.2376 73.9095 85.2376 71.6178V67.2132H86.9969V71.504C86.9969 72.9018 87.7807 73.6657 89.1082 73.6657C90.2118 73.6657 90.7716 73.2106 91.4753 72.398V67.2132H93.2347V78.8342Z" fill="black" fill-opacity="0.75"/>
<path d="M97.269 78.8342H95.5096V67.2132H97.269V76.1037H97.301L103.235 67.2132H105.01V78.8342H103.235V69.96H103.203L97.269 78.8342Z" fill="black" fill-opacity="0.75"/>
<path d="M112.069 79.0617C108.822 79.0617 106.727 76.5263 106.727 73.0318C106.727 69.5211 108.838 66.9857 112.085 66.9857C114.948 66.9857 116.723 68.8385 116.995 71.1627H115.156C114.948 70.025 114.244 68.5297 112.053 68.5297C109.526 68.5297 108.566 70.7076 108.566 73.0156C108.566 75.3398 109.526 77.5177 112.053 77.5177C114.26 77.5177 115.044 76.0224 115.156 74.6084H116.995C116.739 77.1926 114.948 79.0617 112.069 79.0617Z" fill="black" fill-opacity="0.75"/>
<path d="M122.638 78.8342H120.863V68.7572H117.168V67.2132H126.333V68.7572H122.638V78.8342Z" fill="black" fill-opacity="0.75"/>
<path d="M127.001 78.8342H125.146L129.4 67.2132H131.303L135.59 78.8342H133.671L132.727 76.0387H127.945L127.001 78.8342ZM130.328 68.871L128.472 74.5271H132.231L130.36 68.871H130.328Z" fill="black" fill-opacity="0.75"/>
<path d="M90.7716 97.119H85.6694V85.498H90.4837C92.8348 85.498 94.2103 86.5707 94.2103 88.4236C94.2103 89.8538 93.3786 90.5202 92.435 90.8453V90.8778C93.6345 91.0891 94.6582 91.983 94.6582 93.7221C94.6582 95.9488 93.1387 97.119 90.7716 97.119ZM87.4288 90.3252H90.4357C91.8752 90.3252 92.371 89.7238 92.371 88.6836C92.371 87.6597 91.7632 87.0421 90.5636 87.0421H87.4288V90.3252ZM87.4288 95.575H90.6436C92.339 95.575 92.8188 94.746 92.8188 93.6571C92.8188 92.4381 92.0831 91.7392 90.8835 91.7392H87.4288V95.575Z" fill="black" fill-opacity="0.75"/>
<path d="M101.392 97.3466C97.9688 97.3466 95.7776 94.7948 95.7776 91.3004C95.7776 87.806 97.9688 85.2705 101.392 85.2705C104.814 85.2705 107.006 87.806 107.006 91.3004C107.006 94.7948 104.814 97.3466 101.392 97.3466ZM101.392 95.8025C104.095 95.8025 105.166 93.6896 105.166 91.3004C105.166 88.9112 104.095 86.8145 101.392 86.8145C98.6886 86.8145 97.617 88.9112 97.617 91.3004C97.617 93.6896 98.6886 95.8025 101.392 95.8025Z" fill="black" fill-opacity="0.75"/>
<path d="M108.909 99.2319H107.261V95.5912H108.093C109.005 95.5912 109.261 94.7623 109.357 92.6656L109.677 85.498H116.602V95.5912H117.93V99.2319H116.298V97.1353H108.909V99.2319ZM110.396 95.5587V95.5912H114.843V87.0421H111.372L111.052 93.332C111.004 94.4697 110.764 95.1036 110.396 95.5587Z" fill="black" fill-opacity="0.75"/>
<path d="M120.269 97.119H118.414L122.668 85.498H124.571L128.858 97.119H126.939L125.995 94.3235H121.213L120.269 97.119ZM123.596 87.1558L121.74 92.8119H125.499L123.628 87.1558H123.596Z" fill="black" fill-opacity="0.75"/>
<path d="M90.7716 115.404H85.6694V103.783H90.4837C92.8348 103.783 94.2103 104.856 94.2103 106.708C94.2103 108.139 93.3786 108.805 92.435 109.13V109.163C93.6345 109.374 94.6582 110.268 94.6582 112.007C94.6582 114.234 93.1387 115.404 90.7716 115.404ZM87.4288 108.61H90.4357C91.8752 108.61 92.371 108.009 92.371 106.968C92.371 105.944 91.7632 105.327 90.5636 105.327H87.4288V108.61ZM87.4288 113.86H90.6436C92.339 113.86 92.8188 113.031 92.8188 111.942C92.8188 110.723 92.0831 110.024 90.8835 110.024H87.4288V113.86Z" fill="black" fill-opacity="0.75"/>
<path d="M101.12 115.631C97.8729 115.631 95.7776 113.096 95.7776 109.601C95.7776 106.091 97.8889 103.555 101.136 103.555C103.999 103.555 105.774 105.408 106.046 107.732H104.207C103.999 106.595 103.295 105.099 101.104 105.099C98.5766 105.099 97.617 107.277 97.617 109.585C97.617 111.909 98.5766 114.087 101.104 114.087C103.311 114.087 104.095 112.592 104.207 111.178H106.046C105.79 113.762 103.999 115.631 101.12 115.631Z" fill="black" fill-opacity="0.75"/>
<path d="M109.39 115.404H107.63V103.783H109.39V115.404Z" fill="black" fill-opacity="0.75"/>
<path d="M113.387 115.404H111.66V103.783H113.979L117.274 112.917H117.306L120.617 103.783H122.936V115.404H121.209V106.383H121.177L118.026 115.404H116.57L113.419 106.383H113.387V115.404Z" fill="black" fill-opacity="0.75"/>
</svg>
