<svg width="182" height="182" viewBox="0 0 182 182" fill="none" xmlns="http://www.w3.org/2000/svg">
<rect x="0.5" y="0.5" width="181" height="181" rx="90.5" fill="white"/>
<rect x="0.5" y="0.5" width="181" height="181" rx="90.5" stroke="#CBD8E5"/>
<path d="M22.5679 99.1887H20.0195L25.7457 83.7188H28.5194L34.2456 99.1887H31.6972L27.1986 86.5287H27.0743L22.5679 99.1887ZM22.9953 93.1307H31.2621V95.0946H22.9953V93.1307Z" fill="#222222"/>
<path d="M36.5435 83.7188H39.457L44.5228 95.7443H44.7093L49.775 83.7188H52.6886V99.1887H50.4044V87.9941H50.2567L45.5639 99.1661H43.6681L38.9753 87.9866H38.8277V99.1887H36.5435V83.7188Z" fill="#222222"/>
<path d="M56.1791 99.1887V83.7188H62.0063C63.1354 83.7188 64.0704 83.9 64.8111 84.2626C65.5518 84.6202 66.106 85.1061 66.4738 85.7205C66.8415 86.3298 67.0254 87.0172 67.0254 87.7826C67.0254 88.4272 66.9037 88.9711 66.6602 89.4142C66.4168 89.8524 66.0905 90.2049 65.6813 90.4718C65.2773 90.7336 64.8318 90.925 64.3449 91.0458V91.1969C64.8732 91.2221 65.3886 91.3883 65.891 91.6955C66.3987 91.9976 66.8182 92.4282 67.1497 92.9872C67.4812 93.5461 67.647 94.226 67.647 95.0267C67.647 95.8173 67.4553 96.5273 67.072 97.1568C66.6939 97.7812 66.1086 98.2773 65.3161 98.6449C64.5236 99.0075 63.511 99.1887 62.2782 99.1887H56.1791ZM58.5799 97.187H62.0451C63.195 97.187 64.0186 96.9705 64.5158 96.5374C65.0131 96.1043 65.2617 95.563 65.2617 94.9133C65.2617 94.4249 65.1348 93.9767 64.881 93.5688C64.6272 93.1609 64.2646 92.8361 63.7933 92.5944C63.3271 92.3526 62.7729 92.2318 62.1306 92.2318H58.5799V97.187ZM58.5799 90.4113H61.7965C62.3352 90.4113 62.8195 90.3106 63.2494 90.1092C63.6845 89.9078 64.0289 89.6258 64.2827 89.2632C64.5417 88.8956 64.6712 88.4625 64.6712 87.9639C64.6712 87.3244 64.4407 86.7881 63.9797 86.355C63.5187 85.9219 62.8117 85.7054 61.8586 85.7054H58.5799V90.4113Z" fill="#222222"/>
<path d="M72.8953 83.7188V99.1887H70.4945V83.7188H72.8953Z" fill="#222222"/>
<path d="M82.1055 99.1887H76.4648V83.7188H82.1522C83.7527 83.7188 85.1305 84.0285 86.2856 84.6479C87.4406 85.2622 88.329 86.146 88.9505 87.2992C89.5773 88.4524 89.8907 89.8322 89.8907 91.4386C89.8907 93.0501 89.5773 94.4349 88.9505 95.5932C88.329 96.7514 87.4355 97.6402 86.27 98.2596C85.1098 98.879 83.7216 99.1887 82.1055 99.1887ZM79.8291 96.3863H81.9657C82.9602 96.3863 83.7967 96.2151 84.4753 95.8727C85.159 95.5252 85.6718 94.9889 86.0136 94.2637C86.3607 93.5335 86.5342 92.5918 86.5342 91.4386C86.5342 90.2955 86.3607 89.3614 86.0136 88.6362C85.6718 87.9111 85.1616 87.3773 84.483 87.0348C83.8045 86.6924 82.968 86.5212 81.9735 86.5212H79.8291V96.3863Z" fill="#7ED956"/>
<path d="M92.3827 99.1887V83.7188H103.105V86.4154H95.747V90.1016H102.553V92.7983H95.747V96.4921H103.136V99.1887H92.3827Z" fill="#7ED956"/>
<path d="M108.934 83.7188L112.143 88.9912H112.267L115.491 83.7188H119.291L114.435 91.4537L119.399 99.1887H115.53L112.267 93.9087H112.143L108.879 99.1887H105.026L110.006 91.4537L105.119 83.7188H108.934Z" fill="#7ED956"/>
<path d="M120.814 86.4154V83.7188H133.882V86.4154H129.01V99.1887H125.685V86.4154H120.814Z" fill="#7ED956"/>
<path d="M136.034 99.1887V83.7188H146.756V86.4154H139.398V90.1016H146.204V92.7983H139.398V96.4921H146.787V99.1887H136.034Z" fill="#7ED956"/>
<path d="M149.431 99.1887V83.7188H155.709C156.91 83.7188 157.936 83.9277 158.785 84.3457C159.64 84.7586 160.29 85.3453 160.735 86.1057C161.186 86.8611 161.411 87.7499 161.411 88.7722C161.411 89.7995 161.184 90.6833 160.728 91.4235C160.272 92.1588 159.611 92.7228 158.746 93.1156C157.887 93.5084 156.846 93.7048 155.623 93.7048H151.42V91.0761H155.079C155.722 91.0761 156.255 90.9905 156.68 90.8192C157.105 90.648 157.42 90.3912 157.628 90.0488C157.84 89.7063 157.946 89.2808 157.946 88.7722C157.946 88.2585 157.84 87.8255 157.628 87.4729C157.42 87.1204 157.102 86.8535 156.672 86.6723C156.247 86.4859 155.711 86.3928 155.064 86.3928H152.795V99.1887H149.431ZM158.024 92.1487L161.979 99.1887H158.265L154.396 92.1487H158.024Z" fill="#7ED956"/>
</svg>
