<svg width="182" height="182" viewBox="0 0 182 182" fill="none" xmlns="http://www.w3.org/2000/svg">
<rect x="0.5" y="0.5" width="181" height="181" rx="90.5" fill="white"/>
<rect x="0.5" y="0.5" width="181" height="181" rx="90.5" stroke="#CBD8E5"/>
<path d="M28.3581 88.8573C28.3068 88.367 28.0909 87.9852 27.7101 87.7119C27.333 87.4387 26.8425 87.3021 26.2384 87.3021C25.8138 87.3021 25.4495 87.3676 25.1456 87.4986C24.8418 87.6296 24.6093 87.8074 24.4482 88.032C24.2872 88.2565 24.2048 88.5129 24.2011 88.8012C24.2011 89.0407 24.2542 89.2485 24.3604 89.4244C24.4702 89.6003 24.6185 89.75 24.8052 89.8735C24.9919 89.9933 25.1987 90.0944 25.4257 90.1767C25.6527 90.2591 25.8815 90.3283 26.1121 90.3845L27.1665 90.654C27.5911 90.755 27.9993 90.8917 28.391 91.0638C28.7864 91.236 29.1397 91.4531 29.4509 91.7151C29.7657 91.9772 30.0147 92.2934 30.1977 92.664C30.3808 93.0346 30.4723 93.4688 30.4723 93.9666C30.4723 94.6404 30.3039 95.2336 29.9671 95.7464C29.6303 96.2555 29.1434 96.6541 28.5064 96.9424C27.873 97.2268 27.1061 97.3691 26.2055 97.3691C25.3305 97.3691 24.5709 97.2306 23.9266 96.9536C23.2859 96.6766 22.7844 96.2723 22.4219 95.7408C22.0632 95.2093 21.8691 94.5618 21.8398 93.7982H23.8442C23.8735 94.1987 23.9943 94.5318 24.2066 94.7976C24.419 95.0633 24.6954 95.2617 25.0358 95.3927C25.3799 95.5237 25.7643 95.5892 26.189 95.5892C26.632 95.5892 27.02 95.5219 27.3532 95.3871C27.69 95.2486 27.9536 95.0577 28.1439 94.8144C28.3343 94.5674 28.4313 94.2792 28.435 93.9498C28.4313 93.6503 28.3453 93.4033 28.1769 93.2086C28.0085 93.0102 27.7724 92.8456 27.4685 92.7145C27.1683 92.5798 26.8169 92.46 26.4142 92.3552L25.1347 92.0183C24.2085 91.775 23.4763 91.4063 22.9381 90.9123C22.4036 90.4144 22.1364 89.7538 22.1364 88.9303C22.1364 88.2528 22.3158 87.6595 22.6745 87.1505C23.037 86.6414 23.5294 86.2465 24.1517 85.9658C24.7741 85.6813 25.4788 85.5391 26.2659 85.5391C27.064 85.5391 27.7632 85.6813 28.3636 85.9658C28.9676 86.2465 29.4417 86.6377 29.7859 87.1392C30.13 87.6371 30.3075 88.2097 30.3185 88.8573H28.3581Z" fill="#303036"/>
<path d="M31.67 97.195V85.6963H38.9845V87.4424H33.7073V90.5641H38.6056V92.3103H33.7073V95.4489H39.0284V97.195H31.67Z" fill="#303036"/>
<path d="M40.4444 97.195V85.6963H44.6618C45.5258 85.6963 46.2506 85.8497 46.8364 86.1567C47.4258 86.4636 47.8706 86.8941 48.1708 87.448C48.4746 87.9983 48.6266 88.6402 48.6266 89.3738C48.6266 90.1112 48.4728 90.7513 48.1653 91.294C47.8614 91.833 47.413 92.2504 46.8199 92.5461C46.2268 92.8381 45.4983 92.984 44.6344 92.984H41.6306V91.2547H44.3598C44.865 91.2547 45.2787 91.1836 45.6008 91.0414C45.923 90.8954 46.1609 90.6839 46.3147 90.4069C46.4721 90.1262 46.5508 89.7818 46.5508 89.3738C46.5508 88.9659 46.4721 88.6177 46.3147 88.3295C46.1573 88.0376 45.9175 87.8167 45.5953 87.667C45.2732 87.5135 44.8577 87.4368 44.3488 87.4368H42.4817V97.195H40.4444ZM46.2543 91.9846L49.0384 97.195H46.765L44.0303 91.9846H46.2543Z" fill="#303036"/>
<path d="M57.4175 89.3682C57.326 89.065 57.1997 88.7937 57.0386 88.5541C56.8812 88.3108 56.6908 88.1031 56.4675 87.9309C56.2478 87.7587 55.9952 87.6296 55.7097 87.5435C55.4241 87.4536 55.1129 87.4087 54.7761 87.4087C54.1721 87.4087 53.6339 87.5641 53.1617 87.8747C52.6894 88.1854 52.3178 88.6421 52.0469 89.2447C51.7797 89.8436 51.6461 90.5735 51.6461 91.4344C51.6461 92.3028 51.7797 93.0383 52.0469 93.641C52.3142 94.2436 52.6858 94.7021 53.1617 95.0165C53.6376 95.3272 54.1904 95.4826 54.8201 95.4826C55.3912 95.4826 55.8854 95.3703 56.3027 95.1457C56.7237 94.9211 57.0477 94.6029 57.2747 94.1912C57.5017 93.7757 57.6152 93.2891 57.6152 92.7314L58.0765 92.8044H55.0233V91.1761H59.5866V92.5573C59.5866 93.5418 59.3816 94.3933 58.9715 95.112C58.5615 95.8307 57.9977 96.3846 57.2802 96.7739C56.5627 97.1595 55.739 97.3522 54.8091 97.3522C53.7731 97.3522 52.8633 97.1145 52.0799 96.6392C51.3001 96.16 50.6906 95.4807 50.2512 94.6011C49.8156 93.7177 49.5978 92.6696 49.5978 91.4569C49.5978 90.5286 49.7259 89.6995 49.9822 88.9696C50.2421 88.2397 50.6045 87.6202 51.0695 87.1112C51.5344 86.5984 52.0799 86.2091 52.7059 85.9433C53.3319 85.6738 54.0128 85.5391 54.7487 85.5391C55.371 85.5391 55.9513 85.6326 56.4894 85.8198C57.0276 86.0032 57.5053 86.2652 57.9227 86.6058C58.3437 86.9465 58.6897 87.3507 58.9606 87.8186C59.2315 88.2865 59.409 88.803 59.4932 89.3682H57.4175Z" fill="#303036"/>
<path d="M62.9754 85.6963V97.195H60.9381V85.6963H62.9754Z" fill="#303036"/>
<path d="M66.6003 85.6963V97.195H64.563V85.6963H66.6003Z" fill="#303036"/>
<path d="M72.9097 85.6963L75.8366 94.747H75.9519L78.8733 85.6963H81.1138L77.149 97.195H74.634L70.6747 85.6963H72.9097Z" fill="#303036"/>
<path d="M91.4217 91.4456C91.4217 92.6846 91.1947 93.7458 90.7408 94.6291C90.2905 95.5088 89.6754 96.1825 88.8957 96.6504C88.1195 97.1183 87.2391 97.3522 86.2543 97.3522C85.2695 97.3522 84.3872 97.1183 83.6075 96.6504C82.8314 96.1788 82.2163 95.5031 81.7624 94.6235C81.3121 93.7401 81.0869 92.6809 81.0869 91.4456C81.0869 90.2067 81.3121 89.1474 81.7624 88.2678C82.2163 87.3844 82.8314 86.7088 83.6075 86.2409C84.3872 85.773 85.2695 85.5391 86.2543 85.5391C87.2391 85.5391 88.1195 85.773 88.8957 86.2409C89.6754 86.7088 90.2905 87.3844 90.7408 88.2678C91.1947 89.1474 91.4217 90.2067 91.4217 91.4456ZM89.3734 91.4456C89.3734 90.5735 89.2398 89.838 88.9725 89.2391C88.709 88.6365 88.3429 88.1817 87.8743 87.8747C87.4057 87.5641 86.8657 87.4087 86.2543 87.4087C85.6429 87.4087 85.103 87.5641 84.6344 87.8747C84.1658 88.1817 83.7978 88.6365 83.5306 89.2391C83.267 89.838 83.1352 90.5735 83.1352 91.4456C83.1352 92.3178 83.267 93.0552 83.5306 93.6578C83.7978 94.2567 84.1658 94.7115 84.6344 95.0222C85.103 95.3291 85.6429 95.4826 86.2543 95.4826C86.8657 95.4826 87.4057 95.3291 87.8743 95.0222C88.3429 94.7115 88.709 94.2567 88.9725 93.6578C89.2398 93.0552 89.3734 92.3178 89.3734 91.4456Z" fill="#303036"/>
<path d="M94.7665 85.6963V97.195H92.7292V85.6963H94.7665Z" fill="#303036"/>
<path d="M95.8599 87.4424V85.6963H104.833V87.4424H101.357V97.195H99.336V87.4424H95.8599Z" fill="#303036"/>
<path d="M112.056 88.8573C112.005 88.367 111.789 87.9852 111.408 87.7119C111.031 87.4387 110.54 87.3021 109.936 87.3021C109.512 87.3021 109.147 87.3676 108.843 87.4986C108.54 87.6296 108.307 87.8074 108.146 88.032C107.985 88.2565 107.903 88.5129 107.899 88.8012C107.899 89.0407 107.952 89.2485 108.058 89.4244C108.168 89.6003 108.316 89.75 108.503 89.8735C108.69 89.9933 108.897 90.0944 109.124 90.1767C109.351 90.2591 109.579 90.3283 109.81 90.3845L110.864 90.654C111.289 90.755 111.697 90.8917 112.089 91.0638C112.484 91.236 112.838 91.4531 113.149 91.7151C113.464 91.9772 113.713 92.2934 113.896 92.664C114.079 93.0346 114.17 93.4688 114.17 93.9666C114.17 94.6404 114.002 95.2336 113.665 95.7464C113.328 96.2555 112.841 96.6541 112.204 96.9424C111.571 97.2268 110.804 97.3691 109.903 97.3691C109.028 97.3691 108.269 97.2306 107.624 96.9536C106.984 96.6766 106.482 96.2723 106.12 95.7408C105.761 95.2093 105.567 94.5618 105.538 93.7982H107.542C107.571 94.1987 107.692 94.5318 107.904 94.7976C108.117 95.0633 108.393 95.2617 108.734 95.3927C109.078 95.5237 109.462 95.5892 109.887 95.5892C110.33 95.5892 110.718 95.5219 111.051 95.3871C111.388 95.2486 111.651 95.0577 111.842 94.8144C112.032 94.5674 112.129 94.2792 112.133 93.9498C112.129 93.6503 112.043 93.4033 111.875 93.2086C111.706 93.0102 111.47 92.8456 111.166 92.7145C110.866 92.5798 110.515 92.46 110.112 92.3552L108.833 92.0183C107.906 91.775 107.174 91.4063 106.636 90.9123C106.101 90.4144 105.834 89.7538 105.834 88.9303C105.834 88.2528 106.014 87.6595 106.372 87.1505C106.735 86.6414 107.227 86.2465 107.85 85.9658C108.472 85.6813 109.177 85.5391 109.964 85.5391C110.762 85.5391 111.461 85.6813 112.061 85.9658C112.665 86.2465 113.14 86.6377 113.484 87.1392C113.828 87.6371 114.005 88.2097 114.016 88.8573H112.056Z" fill="#303036"/>
<path d="M117.405 85.6963V97.195H115.368V85.6963H117.405Z" fill="#303036"/>
<path d="M118.499 87.4424V85.6963H127.471V87.4424H123.995V97.195H121.975V87.4424H118.499Z" fill="#303036"/>
<path d="M134.695 88.8573C134.643 88.367 134.427 87.9852 134.047 87.7119C133.67 87.4387 133.179 87.3021 132.575 87.3021C132.15 87.3021 131.786 87.3676 131.482 87.4986C131.178 87.6296 130.946 87.8074 130.785 88.032C130.624 88.2565 130.541 88.5129 130.538 88.8012C130.538 89.0407 130.591 89.2485 130.697 89.4244C130.807 89.6003 130.955 89.75 131.142 89.8735C131.328 89.9933 131.535 90.0944 131.762 90.1767C131.989 90.2591 132.218 90.3283 132.449 90.3845L133.503 90.654C133.928 90.755 134.336 90.8917 134.728 91.0638C135.123 91.236 135.476 91.4531 135.787 91.7151C136.102 91.9772 136.351 92.2934 136.534 92.664C136.717 93.0346 136.809 93.4688 136.809 93.9666C136.809 94.6404 136.64 95.2336 136.304 95.7464C135.967 96.2555 135.48 96.6541 134.843 96.9424C134.209 97.2268 133.443 97.3691 132.542 97.3691C131.667 97.3691 130.907 97.2306 130.263 96.9536C129.622 96.6766 129.121 96.2723 128.758 95.7408C128.4 95.2093 128.206 94.5618 128.176 93.7982H130.181C130.21 94.1987 130.331 94.5318 130.543 94.7976C130.755 95.0633 131.032 95.2617 131.372 95.3927C131.716 95.5237 132.101 95.5892 132.525 95.5892C132.968 95.5892 133.356 95.5219 133.69 95.3871C134.026 95.2486 134.29 95.0577 134.48 94.8144C134.671 94.5674 134.768 94.2792 134.771 93.9498C134.768 93.6503 134.682 93.4033 134.513 93.2086C134.345 93.0102 134.109 92.8456 133.805 92.7145C133.505 92.5798 133.153 92.46 132.751 92.3552L131.471 92.0183C130.545 91.775 129.813 91.4063 129.275 90.9123C128.74 90.4144 128.473 89.7538 128.473 88.9303C128.473 88.2528 128.652 87.6595 129.011 87.1505C129.373 86.6414 129.866 86.2465 130.488 85.9658C131.111 85.6813 131.815 85.5391 132.602 85.5391C133.4 85.5391 134.1 85.6813 134.7 85.9658C135.304 86.2465 135.778 86.6377 136.122 87.1392C136.466 87.6371 136.644 88.2097 136.655 88.8573H134.695Z" fill="#303036"/>
<path d="M138.006 97.195V85.6963H140.044V90.9796H140.181L144.569 85.6963H147.056L142.707 90.8561L147.095 97.195H144.646L141.29 92.2654L140.044 93.7701V97.195H138.006Z" fill="#303036"/>
<path d="M147.084 85.6963H149.385L152.136 90.7831H152.246L154.997 85.6963H157.298L153.207 92.9054V97.195H151.175V92.9054L147.084 85.6963Z" fill="#303036"/>
<path d="M160.16 85.6963V97.195H158.123V85.6963H160.16Z" fill="#303036"/>
</svg>
