<svg width="182" height="182" viewBox="0 0 182 182" fill="none" xmlns="http://www.w3.org/2000/svg">
<rect x="0.5" y="0.5" width="181" height="181" rx="90.5" fill="white"/>
<rect x="0.5" y="0.5" width="181" height="181" rx="90.5" stroke="#CBD8E5"/>
<path d="M71.1403 77.2341L64.4516 101.065C63.8364 103.257 65.1117 105.535 67.2845 106.125C69.2764 106.666 71.3499 105.596 72.089 103.645L73.1323 100.892C73.9563 98.7173 76.8556 98.3838 78.1397 100.316L80.7201 104.198C82.7573 107.263 87.4063 106.486 88.3646 102.921L94.8571 78.7641C95.4318 76.6259 94.1816 74.4216 92.0688 73.8481C90.0625 73.3034 87.9826 74.4265 87.3102 76.4176L86.3757 79.1849C85.6157 81.4355 82.642 81.8331 81.3317 79.8594L78.7732 76.0056C76.7496 72.9574 72.132 73.7006 71.1403 77.2341Z" fill="#B454FF"/>
<path d="M48.4417 97.7373H44.5898V82.2976H51.3787C52.9034 82.2976 54.1232 82.4846 55.038 82.8586C55.9528 83.2326 56.6108 83.8424 57.0121 84.688C57.4133 85.5335 57.6139 86.6799 57.6139 88.1271C57.6139 89.493 57.4133 90.6069 57.0121 91.4687C56.6108 92.3143 55.9528 92.9403 55.038 93.3469C54.1232 93.7534 52.9034 93.9566 51.3787 93.9566H48.4417V97.7373ZM50.7528 85.4929H48.4417V90.7614H50.7528C51.8923 90.7614 52.6547 90.5663 53.0399 90.176C53.425 89.7857 53.6176 89.1028 53.6176 88.1271C53.6176 87.2003 53.425 86.5336 53.0399 86.1271C52.6547 85.7043 51.8923 85.4929 50.7528 85.4929Z" fill="black"/>
<path d="M59.6597 97.7373V82.2976H70.9745V85.4685H63.5115V88.3954H69.9875V91.5663H63.5115V94.5664H70.9745V97.7373H59.6597Z" fill="black"/>
<path d="M82.7661 82.2976H86.618V97.7373H82.7902L78.4568 91.2004C78.1198 90.6801 77.8389 90.241 77.6142 89.8833C77.3895 89.5256 77.1809 89.1678 76.9883 88.8101C76.7957 88.4524 76.5791 88.0296 76.3383 87.5418L76.2661 87.6393C76.4908 88.4198 76.6272 89.1516 76.6753 89.8345C76.7235 90.5012 76.7476 91.1516 76.7476 91.7858V97.7373H72.8957V82.2976H76.7235L81.0568 88.8345C81.3939 89.3386 81.6747 89.7776 81.8994 90.1516C82.1241 90.5093 82.3328 90.8671 82.5254 91.2248C82.7179 91.5826 82.9346 92.0053 83.1754 92.4932L83.2476 92.3956C83.0871 91.7126 82.9667 91.0541 82.8865 90.4199C82.8062 89.7695 82.7661 89.1272 82.7661 88.493V82.2976Z" fill="black"/>
<path d="M92.6468 97.7373V85.5905H88.3135V82.2976H100.832V85.5905H96.4987V97.7373H92.6468Z" fill="black"/>
<path d="M106.37 97.7373H102.518V82.2976H106.37V97.7373Z" fill="black"/>
<path d="M120.34 94.4201V97.7373H109.265V82.2976H113.117V94.4201H120.34Z" fill="black"/>
<path d="M121.55 90.0053C121.55 88.0377 121.767 86.4767 122.2 85.3222C122.649 84.1676 123.412 83.3383 124.487 82.8343C125.578 82.3302 127.095 82.0781 129.037 82.0781C130.497 82.0781 131.709 82.2163 132.672 82.4928C133.635 82.7692 134.397 83.2164 134.959 83.8343C135.521 84.4522 135.914 85.2734 136.139 86.2978C136.379 87.306 136.5 88.5418 136.5 90.0053C136.5 91.485 136.379 92.7371 136.139 93.7615C135.914 94.7697 135.521 95.5827 134.959 96.2006C134.397 96.8185 133.635 97.2657 132.672 97.5421C131.709 97.8186 130.497 97.9568 129.037 97.9568C127.576 97.9568 126.365 97.8186 125.402 97.5421C124.439 97.2657 123.676 96.8185 123.115 96.2006C122.553 95.5827 122.152 94.7697 121.911 93.7615C121.67 92.7371 121.55 91.485 121.55 90.0053ZM129.037 94.542C130.064 94.542 130.834 94.4119 131.348 94.1518C131.862 93.8916 132.207 93.4363 132.383 92.7859C132.56 92.1192 132.648 91.1923 132.648 90.0053C132.648 88.8345 132.56 87.9239 132.383 87.2734C132.207 86.623 131.862 86.1677 131.348 85.9075C130.834 85.6311 130.064 85.4929 129.037 85.4929C128.026 85.4929 127.255 85.6311 126.726 85.9075C126.212 86.1677 125.859 86.623 125.667 87.2734C125.49 87.9239 125.402 88.8345 125.402 90.0053C125.402 91.1923 125.49 92.1192 125.667 92.7859C125.859 93.4363 126.212 93.8916 126.726 94.1518C127.255 94.4119 128.026 94.542 129.037 94.542Z" fill="black"/>
<path d="M94.6938 100.633C95.4024 100.633 95.9745 100.708 96.4101 100.858C96.8456 101.007 97.163 101.284 97.3623 101.688C97.569 102.084 97.6723 102.66 97.6723 103.416V106.153H96.0668L96.0114 105.637H95.9782C95.838 105.824 95.6202 105.973 95.3249 106.086C95.0297 106.198 94.6458 106.254 94.1734 106.254C92.8963 106.254 92.2578 105.648 92.2578 104.436C92.2578 103.92 92.4239 103.517 92.7561 103.225C93.0956 102.926 93.6271 102.776 94.3505 102.776H95.9893C95.9376 102.462 95.8048 102.253 95.5907 102.148C95.3766 102.036 95.0112 101.98 94.4945 101.98C94.1697 101.98 93.8486 102.006 93.5312 102.058C93.2211 102.103 92.948 102.155 92.7118 102.215L92.6786 102.193L92.6896 100.891C92.8373 100.847 93.0255 100.805 93.2544 100.768C93.4832 100.723 93.7231 100.69 93.9741 100.667C94.2324 100.645 94.4723 100.633 94.6938 100.633ZM94.6274 104.93C95.085 104.93 95.4283 104.874 95.6571 104.762C95.886 104.642 96.0041 104.455 96.0114 104.201V103.92H94.7602C94.4354 103.92 94.2066 103.969 94.0737 104.066C93.9482 104.156 93.8855 104.279 93.8855 104.436C93.8855 104.623 93.9519 104.754 94.0848 104.829C94.2177 104.896 94.3985 104.93 94.6274 104.93Z" fill="black"/>
<path d="M99.3398 105.783C99.0962 105.678 98.919 105.543 98.8083 105.379C98.6976 105.214 98.6422 105.016 98.6422 104.784C98.6422 104.575 98.6976 104.392 98.8083 104.235C98.9264 104.078 99.0814 103.954 99.2734 103.864V103.831C99.0888 103.681 98.9523 103.494 98.8637 103.27C98.7825 103.038 98.7419 102.772 98.7419 102.473C98.7419 101.875 98.9338 101.419 99.3177 101.105C99.7015 100.79 100.366 100.633 101.311 100.633C102.086 100.633 102.676 100.746 103.082 100.97H103.138C103.256 100.776 103.407 100.615 103.592 100.488C103.776 100.36 104.001 100.297 104.267 100.297C104.348 100.297 104.422 100.301 104.489 100.308C104.555 100.308 104.618 100.312 104.677 100.319V101.699C104.537 101.669 104.37 101.654 104.179 101.654C104.024 101.654 103.876 101.669 103.736 101.699C103.817 101.916 103.857 102.174 103.857 102.473C103.857 103.116 103.666 103.58 103.282 103.864C102.898 104.149 102.241 104.291 101.311 104.291C101.097 104.291 100.897 104.283 100.713 104.268C100.528 104.253 100.358 104.231 100.203 104.201C100.174 104.261 100.159 104.332 100.159 104.414C100.159 104.534 100.196 104.635 100.27 104.717C100.351 104.792 100.488 104.829 100.68 104.829H102.274C102.953 104.829 103.459 104.938 103.791 105.154C104.131 105.371 104.3 105.79 104.3 106.411C104.3 107.024 104.064 107.492 103.592 107.813C103.119 108.135 102.322 108.296 101.2 108.296C100.277 108.296 99.6056 108.169 99.1848 107.914C98.764 107.667 98.5537 107.305 98.5537 106.826C98.5537 106.564 98.6238 106.347 98.764 106.175C98.9043 105.996 99.0962 105.876 99.3398 105.816V105.783ZM101.311 103.09C101.658 103.09 101.901 103.049 102.042 102.967C102.182 102.877 102.252 102.72 102.252 102.496C102.252 102.271 102.182 102.107 102.042 102.002C101.901 101.897 101.658 101.845 101.311 101.845C100.956 101.845 100.709 101.897 100.569 102.002C100.429 102.107 100.358 102.271 100.358 102.496C100.358 102.72 100.429 102.877 100.569 102.967C100.709 103.049 100.956 103.09 101.311 103.09ZM101.41 106.972C101.802 106.972 102.09 106.953 102.274 106.916C102.459 106.878 102.58 106.822 102.639 106.748C102.699 106.673 102.728 106.579 102.728 106.467C102.728 106.34 102.691 106.239 102.617 106.164C102.543 106.082 102.433 106.041 102.285 106.041H100.591C100.443 106.041 100.333 106.082 100.259 106.164C100.185 106.239 100.148 106.34 100.148 106.467C100.148 106.579 100.178 106.673 100.237 106.748C100.303 106.822 100.425 106.878 100.602 106.916C100.787 106.953 101.056 106.972 101.41 106.972Z" fill="black"/>
<path d="M110.095 105.973C109.889 106.048 109.601 106.116 109.232 106.175C108.87 106.228 108.438 106.254 107.936 106.254C107.301 106.254 106.759 106.172 106.308 106.007C105.866 105.835 105.53 105.547 105.301 105.143C105.072 104.732 104.958 104.164 104.958 103.438C104.958 102.451 105.179 101.737 105.622 101.295C106.072 100.854 106.766 100.633 107.704 100.633C108.375 100.633 108.903 100.731 109.287 100.925C109.678 101.12 109.955 101.396 110.117 101.755C110.287 102.107 110.372 102.526 110.372 103.012C110.372 103.154 110.365 103.307 110.35 103.472C110.343 103.636 110.324 103.797 110.295 103.954L110.25 103.999H106.607C106.659 104.328 106.81 104.545 107.061 104.65C107.32 104.754 107.737 104.807 108.313 104.807C108.696 104.807 109.014 104.799 109.265 104.784C109.523 104.762 109.785 104.732 110.051 104.695L110.095 104.728V105.973ZM108.833 102.821C108.833 102.642 108.804 102.488 108.744 102.361C108.693 102.226 108.586 102.125 108.423 102.058C108.261 101.983 108.021 101.946 107.704 101.946C107.239 101.946 106.932 102.028 106.785 102.193C106.644 102.35 106.574 102.559 106.574 102.821H108.833Z" fill="black"/>
<path d="M113.196 106.153H111.425V100.69H113.108L113.196 101.688H113.23C113.333 101.351 113.517 101.093 113.783 100.914C114.049 100.727 114.418 100.633 114.89 100.633C115.533 100.633 116.005 100.817 116.308 101.183C116.618 101.55 116.773 102.185 116.773 103.09V106.153H115.001L114.99 103.438C114.99 103.019 114.927 102.72 114.802 102.541C114.676 102.361 114.44 102.271 114.093 102.271C113.768 102.271 113.54 102.354 113.407 102.518C113.274 102.675 113.204 102.948 113.196 103.337V106.153Z" fill="black"/>
<path d="M122.296 104.571V106.03C122.111 106.104 121.838 106.16 121.476 106.198C121.114 106.235 120.731 106.254 120.325 106.254C119.741 106.254 119.254 106.172 118.863 106.007C118.479 105.843 118.191 105.558 117.999 105.154C117.815 104.751 117.719 104.19 117.711 103.472C117.711 102.731 117.811 102.155 118.01 101.744C118.217 101.333 118.516 101.045 118.907 100.88C119.299 100.716 119.767 100.633 120.314 100.633C120.638 100.633 120.982 100.656 121.343 100.701C121.705 100.746 122 100.805 122.229 100.88L122.24 102.384L122.207 102.406C121.986 102.361 121.749 102.327 121.498 102.305C121.247 102.283 121 102.271 120.756 102.271C120.262 102.271 119.919 102.365 119.727 102.552C119.535 102.739 119.439 103.053 119.439 103.494C119.439 103.831 119.479 104.081 119.561 104.246C119.642 104.41 119.778 104.519 119.97 104.571C120.162 104.623 120.424 104.65 120.756 104.65C121.015 104.65 121.262 104.638 121.498 104.616C121.735 104.594 121.986 104.567 122.251 104.537L122.296 104.571Z" fill="black"/>
<path d="M124.02 108.217L124.873 106.164L122.736 100.712V100.69H124.718C124.924 101.28 125.116 101.875 125.293 102.473C125.478 103.072 125.626 103.685 125.736 104.313H125.759C125.869 103.692 126.01 103.083 126.179 102.484C126.356 101.886 126.556 101.288 126.777 100.69H128.682V100.723L125.836 108.24H124.02V108.217Z" fill="black"/>
<path d="M132.59 100.499C132.658 100.099 133.224 100.092 133.302 100.491L133.582 101.929C133.722 102.648 134.271 103.213 134.978 103.367L135.649 103.514C136.031 103.597 136.03 104.149 135.648 104.231L134.984 104.374C134.274 104.526 133.722 105.093 133.582 105.815L133.302 107.254C133.224 107.653 132.658 107.647 132.59 107.246L132.355 105.876C132.226 105.123 131.65 104.53 130.909 104.388L130.107 104.233C129.715 104.157 129.714 103.589 130.106 103.512L130.914 103.354C131.652 103.209 132.225 102.617 132.354 101.867L132.59 100.499Z" fill="black"/>
</svg>
