<svg width="182" height="182" viewBox="0 0 182 182" fill="none" xmlns="http://www.w3.org/2000/svg">
<rect x="0.5" y="0.5" width="181" height="181" rx="90.5" fill="white"/>
<rect x="0.5" y="0.5" width="181" height="181" rx="90.5" stroke="#CBD8E5"/>
<path d="M85.7153 55.7829C85.5244 55.9304 85.2274 56.2992 85.0576 56.6048C84.697 57.2159 84.6439 57.9114 84.8985 58.5225C85.0364 58.8491 85.0364 58.9229 84.8773 59.239C84.6864 59.6605 84.75 60.0503 85.0683 60.3454L85.3016 60.5561L84.994 60.6193C83.7847 60.8827 82.8725 61.4728 82.3527 62.2947C82.0663 62.7583 82.0345 62.9058 82.0345 63.6434C82.0345 64.0965 82.0132 64.4653 81.9708 64.4653C81.9284 64.4653 81.7056 64.6655 81.4617 64.8973C80.9313 65.4346 80.7934 65.8561 80.9949 66.3513C81.1328 66.6885 81.1222 66.7307 80.8676 66.9941C80.4539 67.4261 80.4009 68.111 80.7297 68.8064C80.9207 69.1963 81.0055 69.5545 81.0161 69.9971C81.0267 70.7979 81.3131 71.683 82.0239 73.0949C82.3315 73.706 82.7876 74.6649 83.0316 75.2233C83.615 76.551 84.3894 77.4993 85.1743 77.8575C85.7047 78.0893 85.885 78.1104 87.9111 78.142C89.1416 78.1631 90.4675 78.1315 90.9873 78.0577C92.3557 77.8786 93.3422 77.3728 93.7983 76.6037C93.862 76.4983 94.2226 75.9609 94.5939 75.413C94.9546 74.8651 95.4744 74.0011 95.7395 73.4848C96.2169 72.5364 96.9382 70.5555 96.9382 70.1762C96.9382 70.0603 97.0125 69.9128 97.1079 69.8285C97.6595 69.3754 97.8611 68.0794 97.4792 67.4577C97.2883 67.1521 97.2883 67.0995 97.4368 66.6358C97.702 65.8456 97.4049 64.9921 96.7048 64.5706C96.376 64.3704 96.3548 64.3283 96.3548 63.7382C96.3548 62.7583 95.8138 62.1998 94.7212 62.0734C94.212 62.0207 94.1908 61.9996 94.2545 61.7257C94.3181 61.3885 94.0317 60.7142 93.7347 60.535C93.6286 60.4613 93.5438 60.3664 93.5438 60.3243C93.5438 60.2716 93.7877 59.966 94.0741 59.6394C94.3712 59.3128 95.1349 58.2591 95.7714 57.3002C96.6836 55.941 96.8321 55.6776 96.4503 56.0885L95.9623 56.6048L95.7608 56.3625C95.6441 56.2255 95.5592 55.9831 95.5592 55.8145C95.5592 55.5617 95.5168 55.509 95.3046 55.509C95.0925 55.509 94.8803 55.7408 94.1696 56.7734C93.2361 58.1432 92.9179 58.5014 93.1301 57.9746C93.7771 56.3625 94.0423 55.509 93.8938 55.509C93.809 55.509 93.6711 55.6776 93.5862 55.8778C93.5013 56.078 93.3953 56.2465 93.3316 56.2465C93.2786 56.2465 93.1088 56.078 92.9497 55.8778C92.8012 55.6776 92.6103 55.509 92.5254 55.509C92.3027 55.509 92.5572 56.099 92.9285 56.4046L93.2467 56.668L93.0028 57.2792C92.8755 57.6058 92.7482 57.9008 92.7376 57.9219C92.6633 58.0167 92.1542 57.5953 92.0057 57.3108C91.7935 56.8893 91.7829 56.4784 91.9844 55.9937C92.1966 55.5195 92.1966 55.509 92.0693 55.509C92.0163 55.509 91.9314 55.6881 91.8784 55.8988L91.7829 56.2887L91.5601 55.8988C91.3586 55.5617 91.2737 55.509 90.9449 55.509H90.5736L90.8494 55.9304C91.1783 56.4257 91.2843 57.1211 91.104 57.669C90.9555 58.1116 90.4145 58.7754 90.1917 58.7754C90.1069 58.7754 89.4704 59.0704 88.7703 59.4287L87.4974 60.0714L86.9564 59.8185C86.2245 59.4813 85.535 58.7122 85.3759 58.0483C85.2804 57.6163 85.2804 57.4688 85.4289 57.1316C85.7259 56.4151 86.4366 55.8251 86.9988 55.8251C87.1367 55.8251 87.3383 55.7513 87.455 55.667C87.6353 55.53 87.5823 55.5195 86.8609 55.509C86.1608 55.509 86.0229 55.5406 85.7153 55.7829ZM95.6441 56.7945C95.7502 56.8998 95.591 57.1527 94.9121 57.9746C94.7955 58.1116 94.4984 57.4688 94.4984 57.079C94.4984 56.8682 94.6363 56.5627 94.8909 56.2255L95.2728 55.6986L95.4001 56.1833C95.4744 56.4573 95.5804 56.7312 95.6441 56.7945ZM94.3818 58.2275C94.4878 58.4277 94.4772 58.512 94.2969 58.7648C93.9362 59.2601 93.7983 59.3338 93.5968 59.1336C93.3528 58.8913 93.2043 58.4698 93.2998 58.3118C93.3528 58.2485 93.5544 57.964 93.7559 57.7006L94.1272 57.2265L94.1908 57.6058C94.2226 57.8165 94.3075 58.0905 94.3818 58.2275ZM92.483 58.4171C92.483 58.5857 91.8041 60.1452 91.7299 60.1452C91.6874 60.1452 91.7086 60.0082 91.7617 59.8501C91.9314 59.4287 91.7935 59.0072 91.4434 58.8597C91.2843 58.7859 91.1358 58.7227 91.1146 58.7122C91.0934 58.6911 91.2313 58.4487 91.4116 58.1642L91.7511 57.6585L92.1223 57.9957C92.3133 58.1853 92.483 58.375 92.483 58.4171ZM93.374 59.3971C93.5332 59.5656 93.5225 59.5973 93.2467 59.8607C92.9285 60.1662 92.3769 60.2505 92.3769 59.9977C92.3769 59.808 92.7694 58.8807 92.9391 58.6911C93.0452 58.5646 93.077 58.5963 93.1301 58.8702C93.1725 59.0599 93.2786 59.2917 93.374 59.3971ZM91.4222 59.1442C91.6132 59.376 91.4647 59.9555 91.1464 60.2611C90.8918 60.5034 90.7964 60.514 89.2158 60.5456C88.1657 60.5666 87.5929 60.5456 87.6565 60.4823C87.7202 60.4297 88.3778 60.0714 89.1204 59.6815C90.5418 58.9545 91.1464 58.8175 91.4222 59.1442ZM86.3518 60.0082C86.8079 60.2084 86.7124 60.3559 86.1184 60.3559C85.6092 60.3559 85.0576 60.0082 85.0576 59.6815C85.0576 59.102 85.1637 59.0599 85.5668 59.4603C85.7684 59.6605 86.129 59.9134 86.3518 60.0082ZM92.9922 60.6615C93.374 60.8511 93.6498 61.2305 93.6498 61.5676C93.6498 61.6414 93.5225 61.8521 93.374 62.0313C93.0346 62.4317 92.2708 62.674 91.348 62.674C90.2766 62.674 89.9372 62.969 90.1599 63.7277C90.319 64.2651 90.1705 64.4653 89.6083 64.4653C89.2477 64.4653 89.1522 64.4126 88.8658 64.0122C88.4839 63.4853 88.2081 63.3167 87.7308 63.3062C87.2428 63.3062 86.8185 63.5486 86.5533 64.0016C86.2139 64.5706 86.3836 64.5706 86.9034 64.0122C87.5504 63.3062 88.0278 63.3589 88.643 64.2124C89.0249 64.7287 89.3537 64.8235 89.9053 64.5706C90.4782 64.3177 90.6161 64.1175 90.5312 63.6328C90.4888 63.3694 90.51 63.1903 90.6054 63.1271C90.6691 63.0639 91.1783 62.9901 91.7192 62.948C92.2602 62.9058 93.0134 62.7794 93.4059 62.6635C94.3499 62.3684 95.0288 62.4317 95.4531 62.8321C96.1108 63.4537 95.9199 64.2545 94.9864 64.7814C93.7665 65.4768 91.7511 65.7297 87.4656 65.7297C84.1878 65.7297 83.1271 65.8245 81.9178 66.246C81.3874 66.4356 81.345 66.4356 81.345 66.2776C81.3556 66.0458 81.6208 65.7297 82.1193 65.3609C82.48 65.0975 82.6285 65.0553 83.2862 65.0553C83.912 65.0448 84.1136 65.0869 84.4106 65.2871C84.9516 65.6348 85.4819 65.403 85.4819 64.813C85.4819 64.6549 85.5668 64.5285 85.7259 64.4653L85.9593 64.3704H85.7153C85.535 64.3599 85.4289 64.4547 85.3228 64.7181C85.1107 65.2134 84.9091 65.2555 84.506 64.8867C84.209 64.6128 84.0817 64.5706 83.5514 64.5706C82.8194 64.5706 82.6179 64.3704 82.6179 63.5907C82.6179 62.6951 83.0846 62.0734 84.156 61.536C84.7925 61.2199 85.5562 61.1146 87.6565 61.0303C89.5129 60.967 90.4357 60.8195 90.9873 60.514C91.3586 60.3138 92.4618 60.3875 92.9922 60.6615ZM96.5988 65.1501C97.2564 65.6981 97.2246 66.7201 96.5351 67.4577L96.1426 67.8686L96.5351 67.6474C96.9806 67.3945 96.9912 67.405 97.0973 68.0056C97.1928 68.5957 96.9806 69.0593 96.2381 69.9022C95.6865 70.5239 95.6229 70.5661 95.4531 70.4186C95.1879 70.1867 94.997 70.2184 94.4878 70.6187L94.0211 70.977L93.6286 70.7663L93.2467 70.545L92.6527 70.8716L92.0481 71.1983L91.6132 70.7241C91.3798 70.4712 91.1464 70.2605 91.1146 70.2605C91.0722 70.2605 90.7752 70.4502 90.4675 70.682C90.1599 70.9138 89.8629 71.1034 89.8311 71.1034C89.7887 71.1034 89.5765 70.9875 89.3643 70.84C88.8658 70.5028 88.7915 70.5134 88.346 70.8927C88.1445 71.0613 87.9429 71.1983 87.9005 71.2088C87.8581 71.2088 87.5929 71.0613 87.3171 70.8927C86.723 70.5239 86.3624 70.4923 85.9699 70.7979L85.6729 71.0297L85.2168 70.703L84.7606 70.3869L84.3151 70.5977L83.8802 70.8189L83.562 70.5134C83.3922 70.3553 83.2543 70.1657 83.2543 70.0919C83.2543 69.8601 82.8513 69.818 82.5118 70.0182C82.1936 70.1973 82.1936 70.1973 81.9072 69.9233C81.7481 69.7653 81.6526 69.6072 81.695 69.5651C81.7268 69.5229 83.7105 69.4597 86.0866 69.407C90.7433 69.3016 91.4859 69.249 93.2361 68.8275C94.6257 68.5009 95.1773 68.1953 93.9681 68.4376C93.374 68.5535 91.7511 68.6062 87.7096 68.68C84.3681 68.7221 82.0769 68.8064 81.8223 68.8802C81.5889 68.9434 81.3662 68.9961 81.3344 68.9961C81.3025 68.9961 81.1859 68.7116 81.0798 68.3639C80.8888 67.7527 80.8888 67.7211 81.0798 67.2997C81.3238 66.7834 81.6208 66.5726 82.2784 66.4462C82.5542 66.3935 84.8985 66.3092 87.4974 66.267C92.9073 66.1617 93.5862 66.0774 95.0288 65.3293C95.9835 64.834 96.1851 64.8024 96.5988 65.1501ZM82.5648 70.5345C82.8725 70.3343 82.8619 70.3026 83.0422 71.3142C83.2119 72.252 83.7953 73.98 84.2621 74.8862C84.6333 75.6343 84.8243 75.8766 84.6333 75.3603C84.5273 75.0758 83.4665 70.9665 83.4665 70.8295C83.4665 70.7873 83.562 70.84 83.6786 70.9454C83.8272 71.0718 83.9757 71.114 84.209 71.0718L84.5273 70.9981V71.5671C84.5273 72.273 84.7712 73.548 85.1001 74.5806C85.3334 75.2866 85.3547 75.3182 85.3122 74.8967C85.2592 74.3593 85.0576 71.2826 85.0576 71.0191C85.0576 70.8927 85.1319 70.9243 85.3653 71.1456C85.6623 71.4301 85.6835 71.4301 85.9911 71.272L86.2987 71.114L86.373 72.0834C86.4366 72.9263 86.9458 75.4762 87.0307 75.3919C87.0519 75.3708 87.0201 74.4225 86.967 73.2635C86.9034 72.115 86.8822 71.1561 86.9034 71.1245C86.9352 71.1034 87.1367 71.2299 87.3595 71.409C87.8475 71.8094 87.9854 71.8094 88.346 71.4722L88.6324 71.1983L88.5794 72.979C88.5582 73.9589 88.5688 75.0442 88.6112 75.3814L88.6961 76.0031L88.94 74.5279C89.0779 73.7166 89.2264 72.6418 89.2583 72.1255C89.3325 71.272 89.3431 71.2193 89.5129 71.3669C89.7568 71.5881 90.0645 71.5671 90.4039 71.3036L90.6797 71.0929V71.3142C90.6797 71.9885 90.2236 75.0758 90.0326 75.687C89.7568 76.5826 89.8311 76.6985 90.1281 75.8239C90.2554 75.4551 90.5206 74.686 90.7115 74.1064C90.9131 73.5269 91.1676 72.6102 91.2631 72.0728L91.4541 71.0929L91.698 71.3879C91.9208 71.6619 91.9526 71.6724 92.2815 71.5565C92.4724 71.4828 92.6527 71.4406 92.6739 71.4722C92.7482 71.5355 91.889 74.6754 91.5707 75.4973C91.0828 76.7828 91.1889 76.6669 92.0481 74.9599C92.9497 73.1897 93.4377 71.9042 93.4377 71.3353V70.9981L93.6498 71.2088C93.9256 71.4828 94.1378 71.4722 94.5727 71.1456C94.7636 70.9981 94.9228 70.9032 94.9228 70.9349C94.9228 71.1456 94.1272 73.1476 93.4907 74.4963C93.0664 75.413 92.7482 76.1611 92.7906 76.1611C92.9285 76.1611 93.9787 74.4858 94.3818 73.6112C94.6045 73.1265 94.9228 72.3257 95.0925 71.8094C95.3152 71.1245 95.4319 70.9032 95.5486 70.9454C95.6229 70.977 95.782 70.9243 95.8881 70.8295C96.0047 70.7241 96.0896 70.703 96.0896 70.7663C96.0896 71.1034 95.2198 73.2635 94.4878 74.7597C94.0317 75.6975 93.6498 76.4983 93.6498 76.551C93.6498 76.6985 92.9391 77.0989 92.2496 77.3307C91.6344 77.5414 91.3798 77.552 88.9613 77.5414C86.2457 77.5204 85.3016 77.4045 84.4318 76.9514C83.9757 76.7196 83.8484 76.4772 83.4665 75.1074C83.2862 74.4436 82.8831 73.3478 82.5648 72.684C82.0557 71.5881 81.6632 70.5134 81.6632 70.2184C81.6632 70.1657 81.8011 70.25 81.9814 70.4186C82.2784 70.703 82.2997 70.703 82.5648 70.5345Z" fill="#5C4083"/>
<path d="M92.918 63.5896C93.1832 64.1059 93.1938 64.8119 92.9392 64.7592C92.7907 64.7381 92.7377 64.5906 92.6952 64.1059C92.6634 63.6739 92.5892 63.4526 92.4619 63.3683C92.2497 63.2419 92.0694 63.3578 92.2391 63.5264C92.3027 63.5896 92.324 63.8425 92.2921 64.0954C92.2603 64.422 92.2921 64.6433 92.4194 64.8329C92.7377 65.3176 93.4378 65.0858 93.4378 64.4747C93.4378 64.148 93.0241 63.284 92.8331 63.2208C92.7589 63.1997 92.7907 63.3472 92.918 63.5896Z" fill="#5C4083"/>
<path d="M86.1419 64.804C85.9828 64.962 85.9722 65.2781 86.1207 65.3624C86.1843 65.3941 86.2268 65.3308 86.2268 65.2044C86.2268 64.9831 86.492 64.804 86.6299 64.9304C86.6617 64.9726 86.6299 65.099 86.5556 65.2255C86.4495 65.4046 86.4495 65.4257 86.5662 65.3941C86.7571 65.3308 86.8102 64.8777 86.6299 64.7724C86.4389 64.6459 86.2904 64.6565 86.1419 64.804Z" fill="#5C4083"/>
<path d="M75.8803 83.6108C74.2573 83.9691 72.5389 84.5591 72.5389 84.7593C72.5389 84.8225 72.6662 84.9595 72.8147 85.0649C73.0905 85.244 73.1117 85.2335 74.1194 84.7699C75.0847 84.3168 76.0076 84.0007 76.1031 84.0955C76.1243 84.1166 75.9439 84.5802 75.7106 85.1281C74.671 87.4884 73.5784 90.4281 72.104 94.8114C71.2341 97.3929 70.5234 99.6268 70.5234 99.7743C70.5234 100.312 71.2341 100.881 71.807 100.796C72.0297 100.765 72.1358 100.47 73.0905 97.0768C73.6633 95.0432 74.1831 93.2098 74.2361 92.9886C74.3528 92.5987 74.3528 92.5987 74.9044 92.5987C75.5621 92.5987 77.3017 92.3458 78.267 92.114C79.8051 91.7347 81.566 90.7126 82.1706 89.8275C82.8071 88.9214 82.998 87.5621 82.648 86.4768C82.2555 85.2651 80.728 84.106 79.0096 83.7056C78.3625 83.5476 76.4001 83.4949 75.8803 83.6108ZM79.3384 84.2641C80.1446 84.5697 80.8341 85.1808 81.1311 85.8762C81.4705 86.6349 81.4705 87.8677 81.1417 88.7001C80.4522 90.4808 77.9912 91.9243 75.0953 92.2405C74.4271 92.3142 74.4271 92.3142 74.5013 92.0613C75.1484 89.8064 76.4637 86.0553 77.1532 84.5486L77.429 83.9269L78.0867 83.9901C78.4474 84.0112 79.0096 84.1376 79.3384 84.2641Z" fill="#5C4083"/>
<path d="M91.1237 83.8493C90.2539 84.4709 87.1777 88.2747 85.4062 90.9194C84.7592 91.8783 84.6849 91.9521 84.4303 91.8888C83.8787 91.7519 82.2557 91.8151 81.842 91.9942C81.4602 92.1628 80.9192 92.6369 80.9192 92.8161C80.9192 92.8688 81.5026 92.9109 82.2239 92.9109C84.1757 92.9109 84.1015 92.795 83.115 94.4177C81.5556 96.9992 80.707 98.8747 80.707 99.7598C80.707 100.076 80.7813 100.266 81.0147 100.518C81.2162 100.74 81.3647 100.824 81.4177 100.761C81.4708 100.698 81.7996 100.013 82.1391 99.233C82.7755 97.7894 84.9819 93.364 85.1516 93.1954C85.2153 93.1322 85.8305 93.1743 86.6155 93.2797C88.6309 93.5431 88.44 93.4061 88.2597 94.4177C88.0793 95.524 88.0475 97.6735 88.2172 98.2425C88.7688 100.108 90.5509 100.097 92.0678 98.232C92.6937 97.4839 93.4892 95.935 93.3938 95.6926C93.3407 95.5662 93.171 95.7769 92.7679 96.4407C91.5693 98.4638 90.4979 99.1698 89.8933 98.3584C89.6917 98.0845 89.6705 97.9264 89.6811 96.7252C89.6917 95.1026 89.9675 93.4483 90.6782 90.6455C91.2935 88.2326 92.0148 86.0093 92.5452 84.924L92.9376 84.1232L92.5982 83.8282C92.1527 83.4278 91.6966 83.4383 91.1237 83.8493ZM90.6146 86.1779C90.0524 87.6109 89.3204 89.8658 88.8855 91.5411C88.6416 92.4789 88.5355 92.7529 88.3976 92.7423C88.1854 92.7212 85.8623 92.1523 85.8093 92.1101C85.682 91.9942 88.1112 88.1904 89.2462 86.7469C89.8933 85.925 90.9646 84.8397 91.0495 84.924C91.0813 84.9451 90.8798 85.5141 90.6146 86.1779Z" fill="#5C4083"/>
<path d="M97.9974 83.9115C96.9472 84.4383 95.8864 85.4709 95.4409 86.4192C95.1545 87.0198 95.1121 87.2095 95.1545 87.7153C95.1969 88.1999 95.2606 88.358 95.494 88.5582C95.6531 88.6952 95.9077 88.8005 96.0668 88.8005C96.3532 88.8005 96.3532 88.79 96.3214 88.1999C96.2577 87.0514 97.0851 85.1548 97.9019 84.5753C98.0822 84.4488 98.4004 84.3329 98.6338 84.3013C99.0157 84.2486 99.0581 84.2697 99.1218 84.5226C99.2172 84.9125 99.0687 85.4604 97.4564 90.7182C95.7591 96.2817 94.6666 99.8853 94.5181 100.412C94.4226 100.76 94.4332 100.812 94.5923 100.812C94.8469 100.812 95.3773 100.222 95.7061 99.5797C96.1728 98.663 96.8942 96.4081 98.1565 92.0143C98.8141 89.6962 99.4506 87.4834 99.5461 87.083C99.7582 86.3139 99.8431 86.3349 99.9492 87.22C100.352 90.497 101.763 99.2531 101.975 99.822C102.187 100.38 102.537 100.697 103.015 100.781C103.45 100.844 103.46 100.844 103.566 99.6008C103.779 97.23 105.699 89.5487 107.205 85.081C107.693 83.627 107.714 83.5321 107.512 83.5321C107.396 83.5321 107.099 83.7323 106.865 83.9852C106.473 84.3856 106.367 84.628 105.826 86.3244C104.712 89.7699 103.535 94.1532 103.131 96.3027C103.036 96.8717 102.93 97.3143 102.909 97.3037C102.856 97.2405 102.537 94.9856 102.081 91.2767C101.445 86.1137 101.222 85.06 100.586 84.1538C100.055 83.3952 99.2066 83.3109 97.9974 83.9115Z" fill="#5C4083"/>
<path d="M64.1705 108.466C61.7413 109.109 59.694 111.596 59.6622 113.935C59.6516 114.673 59.694 114.841 59.9592 115.336C60.4153 116.148 61.1579 116.769 63.046 117.939C65.6025 119.509 66.1753 120.183 66.1753 121.627C66.1753 123.218 65.1888 124.24 63.2264 124.693C61.264 125.157 59.4607 124.324 58.9939 122.744C58.6757 121.648 58.9833 120.236 59.7683 119.172C59.938 118.95 59.938 118.94 59.641 118.94C59.2379 118.95 58.4529 119.309 58.0817 119.656C57.4876 120.204 57.3285 120.679 57.3285 121.785C57.3179 122.965 57.5195 123.492 58.2302 124.261C59.0576 125.157 60.2032 125.578 61.8262 125.578C63.7143 125.578 65.1676 124.999 66.3132 123.787C66.8966 123.186 67.0451 122.933 67.2255 122.354C67.8195 120.468 67.183 118.813 65.4222 117.612C64.9872 117.317 64.1811 116.812 63.6189 116.485C62.1338 115.621 61.5822 115.157 61.2427 114.462C60.9882 113.956 60.9563 113.787 61.0094 113.24C61.1473 111.743 62.4944 109.92 64.0326 109.172C64.7433 108.825 64.913 108.772 65.6555 108.772C66.3874 108.772 66.5147 108.804 66.7269 109.014C67.13 109.404 67.0345 110.089 66.345 111.965C65.6343 113.882 65.5601 114.567 66.0268 114.925C66.1859 115.041 66.345 115.115 66.3981 115.083C66.5784 114.978 67.3527 113.355 67.671 112.397C68.3605 110.342 68.1059 108.919 66.9497 108.445C66.5041 108.256 64.913 108.266 64.1705 108.466Z" fill="#5C4083"/>
<path d="M72.5095 108.466C71.0669 108.719 70.1016 109.299 70.1016 109.899C70.1016 110.078 70.1546 110.1 70.4516 110.047C71.7882 109.805 76.0418 109.583 76.0418 109.762C76.0418 109.815 75.8509 110.31 75.6069 110.848C74.5462 113.229 72.7217 117.981 71.6291 121.205C71.0669 122.87 70.9502 123.323 70.9502 123.913C70.9502 124.303 70.9926 124.735 71.0563 124.883C71.1835 125.23 71.7564 125.578 72.1807 125.578H72.5095L72.5838 124.661C72.711 123.134 73.9521 118.613 75.5115 113.988C76.0312 112.449 76.5934 110.858 76.7632 110.458L77.0708 109.72L78.8104 109.657C80.6137 109.594 81.4093 109.415 81.9927 108.951C82.2049 108.772 82.12 108.751 79.7439 108.53C76.8692 108.256 73.8142 108.235 72.5095 108.466Z" fill="#5C4083"/>
<path d="M85.3989 108.493C83.8184 109.03 82.694 110.379 82.3969 112.075C82.1848 113.266 82.6091 114.678 83.4577 115.594C83.7017 115.847 83.8926 116.09 83.8926 116.132C83.8926 116.163 83.7653 116.195 83.6062 116.195C83.4365 116.195 82.991 116.311 82.6091 116.437C80.9861 116.985 79.6284 118.155 78.8752 119.651C78.4403 120.536 78.4297 120.568 78.4297 121.664C78.4297 123.002 78.61 123.476 79.4374 124.35C80.233 125.183 80.9967 125.499 82.3757 125.552C83.2562 125.583 83.5956 125.552 84.179 125.383C85.5898 124.951 86.9476 123.929 88.0614 122.454C88.9949 121.221 89.3662 120.536 89.1965 120.378C89.1116 120.294 89.0479 120.283 89.0267 120.367C88.804 120.947 88.019 122.001 87.181 122.844C86.0778 123.95 85.2186 124.508 84.1578 124.772C82.5561 125.193 81.421 124.74 80.7315 123.413C80.3178 122.612 80.2754 121.253 80.6255 120.241C80.9649 119.282 81.5165 118.46 82.3121 117.733C82.9592 117.133 84.0517 116.543 84.6882 116.437C84.8897 116.406 85.0595 116.353 85.0595 116.332C85.0595 116.311 84.911 116.111 84.7412 115.889C83.4577 114.309 83.6911 110.884 85.1762 109.462C85.7171 108.935 86.5445 108.661 87.2659 108.756C88.2099 108.882 88.6236 109.42 88.5282 110.368C88.4539 111.063 88.0614 111.791 87.3295 112.602L86.7567 113.224L86.9795 113.497C87.3719 113.993 87.9341 113.845 88.4539 113.087C89.2283 111.97 89.4616 110.326 88.9737 109.378C88.6024 108.651 87.8705 108.292 86.7673 108.292C86.2687 108.303 85.749 108.377 85.3989 108.493Z" fill="#5C4083"/>
<path d="M108.965 108.601C108.042 109.286 105.486 112.447 103.311 115.598C102.643 116.557 102.494 116.715 102.303 116.662C101.921 116.536 100.182 116.578 99.7787 116.715C99.5665 116.788 99.2271 117.02 99.0467 117.231L98.6967 117.621L100.192 117.674C101.02 117.705 101.72 117.747 101.741 117.779C101.773 117.81 101.561 118.211 101.274 118.675C99.7468 121.109 98.6755 123.342 98.5694 124.291C98.5164 124.702 98.5482 124.849 98.7603 125.155C98.8982 125.355 99.0786 125.523 99.1528 125.523C99.2271 125.523 99.6302 124.765 100.054 123.838C100.479 122.91 101.317 121.193 101.911 120.013C102.823 118.232 103.035 117.884 103.226 117.884C103.629 117.895 106.154 118.264 106.218 118.327C106.249 118.358 106.218 118.632 106.143 118.948C106.069 119.275 106.005 120.255 106.005 121.256C106.005 122.91 106.016 123.026 106.271 123.511C106.949 124.817 108.424 124.67 109.771 123.184C110.418 122.447 111.33 120.75 111.214 120.466C111.161 120.308 111.033 120.455 110.641 121.151C110.1 122.11 109.283 123.068 108.806 123.311C107.501 123.985 107.172 122.563 107.766 118.885C108.286 115.745 109.824 110.477 110.577 109.328C110.715 109.107 110.832 108.907 110.832 108.886C110.832 108.854 110.652 108.707 110.439 108.559C109.909 108.211 109.485 108.222 108.965 108.601ZM108.466 110.951C107.883 112.416 107.14 114.702 106.748 116.251C106.578 116.883 106.419 117.442 106.387 117.484C106.334 117.547 103.757 116.978 103.64 116.873C103.534 116.799 105.719 113.332 106.716 111.994C107.49 110.962 108.774 109.592 108.88 109.697C108.912 109.729 108.721 110.287 108.466 110.951Z" fill="#5C4083"/>
<path d="M116.05 108.561C114.799 109.141 113.579 110.363 113.154 111.448C112.719 112.586 113.091 113.566 113.939 113.566C114.183 113.566 114.194 113.535 114.152 113.06C113.982 111.364 115.552 108.898 116.687 109.056C117.185 109.12 117.09 109.625 115.594 114.514C112.751 123.85 112.316 125.315 112.316 125.441C112.316 125.641 112.571 125.61 112.889 125.357C113.271 125.062 113.823 123.871 114.438 122.027C114.883 120.679 116.803 114.093 117.366 111.954C117.472 111.564 117.588 111.248 117.62 111.248C117.652 111.248 117.928 112.966 118.246 115.062C119.275 122.038 119.636 124.114 119.901 124.704C120.155 125.273 120.559 125.578 121.046 125.578C121.29 125.578 121.301 125.536 121.365 124.756C121.566 122.185 123.762 113.377 125.205 109.373C125.406 108.814 125.576 108.34 125.576 108.319C125.576 108.308 125.502 108.298 125.396 108.298C125.067 108.298 124.494 108.846 124.25 109.394C123.561 110.943 121.587 118.002 120.951 121.205L120.76 122.154L120.622 121.311C120.548 120.847 120.24 118.55 119.954 116.2C119.402 111.88 119.222 110.774 118.936 109.963C118.702 109.309 118.299 108.667 118.002 108.466C117.599 108.213 116.719 108.245 116.05 108.561Z" fill="#5C4083"/>
<path d="M94.3362 108.551C93.0208 108.856 91.7373 109.531 91.1433 110.226C90.4432 111.048 90.2098 112.323 90.6341 113.05C90.825 113.377 91.5782 113.872 91.6949 113.745C91.7267 113.714 91.6949 113.398 91.6206 113.039C91.4615 112.249 91.557 111.143 91.8221 110.626C92.0979 110.089 92.7981 109.699 93.7103 109.562C94.5801 109.425 95.8318 109.457 95.8 109.615C95.7894 109.668 95.5136 110.321 95.1848 111.048C94.8665 111.775 94.3256 113.103 93.9861 113.998L93.3709 115.621L92.5753 115.747C91.6418 115.905 91.0478 116.148 90.772 116.495C90.5704 116.748 90.4962 117.149 90.6553 117.149C90.6977 117.138 91.1963 117.075 91.7691 117.001C92.3313 116.927 92.8193 116.885 92.8405 116.906C92.8617 116.938 92.7344 117.338 92.5647 117.812C90.9629 122.112 90.5917 123.671 90.8993 124.767C91.016 125.209 91.4933 125.578 91.9494 125.578C92.2146 125.578 92.2252 125.547 92.3419 124.546C92.4162 123.977 92.5965 122.997 92.745 122.354C93.1481 120.647 94.2831 116.896 94.4316 116.812C94.4953 116.769 95.0787 116.727 95.7364 116.727C97.0729 116.727 97.8155 116.601 98.208 116.306L98.4731 116.116L98.208 116.053C98.0594 116.021 97.232 115.937 96.3622 115.874C95.4394 115.789 94.7711 115.684 94.7499 115.621C94.7074 115.505 96.0122 111.438 96.5107 110.163C96.7335 109.562 96.7547 109.541 97.0835 109.604C97.2639 109.636 97.964 109.731 98.6323 109.815C99.8946 109.984 100.329 109.942 100.913 109.646C101.263 109.457 102.196 108.635 102.122 108.572C102.101 108.551 101.772 108.572 101.401 108.624C100.977 108.688 100.329 108.677 99.6506 108.603C97.8473 108.414 95.0575 108.382 94.3362 108.551Z" fill="#5C4083"/>
</svg>
