<svg width="182" height="182" viewBox="0 0 182 182" fill="none" xmlns="http://www.w3.org/2000/svg">
<rect x="0.5" y="0.5" width="181" height="181" rx="90.5" fill="white"/>
<rect x="0.5" y="0.5" width="181" height="181" rx="90.5" stroke="#CBD8E5"/>
<path d="M67.7041 74.1157L68.0084 74.159C68.2981 74.4188 68.4429 74.7436 68.4429 75.1333C68.4429 75.4075 68.385 75.6601 68.2691 75.8911C68.1387 75.8622 68.0084 75.8478 67.878 75.8478C67.7476 75.8333 67.61 75.8189 67.4651 75.8045H67.0305C66.8857 76.2808 66.7553 76.7571 66.6394 77.2334C66.4366 78.1283 66.3352 79.0088 66.3352 79.8748C66.3352 81.0006 66.5235 81.8378 66.9002 82.3863C67.2768 82.9348 67.8273 83.209 68.5516 83.209C68.8992 83.209 69.2759 83.1369 69.6815 82.9925C70.0871 82.8626 70.4999 82.675 70.92 82.4296C71.3401 82.1842 71.753 81.8883 72.1586 81.5419C72.5642 81.1955 72.9408 80.813 73.2885 80.3944C73.7955 79.7882 74.2518 79.1026 74.6574 78.3376C75.063 77.5582 75.4035 76.7354 75.6787 75.8694C75.9684 75.0034 76.1857 74.1157 76.3306 73.2064C76.4899 72.2826 76.5696 71.3805 76.5696 70.5C76.5696 70.1536 76.5623 69.8649 76.5478 69.634C76.5334 69.3886 76.5116 69.1866 76.4827 69.0278C76.4682 68.8546 76.4537 68.7175 76.4392 68.6164C76.4247 68.5154 76.4102 68.4288 76.3957 68.3566C76.5696 68.4432 76.7579 68.5515 76.9607 68.6814C77.178 68.7968 77.3735 68.9773 77.5474 69.2226C77.7357 69.4536 77.8878 69.7639 78.0037 70.1536C78.1341 70.5433 78.1993 71.0485 78.1993 71.6692C78.1993 72.6795 78.0761 73.6755 77.8299 74.657C77.5981 75.624 77.2649 76.5478 76.8303 77.4283C76.4102 78.3087 75.9105 79.1315 75.331 79.8965C74.7516 80.6615 74.1287 81.3326 73.4623 81.91C72.5932 82.675 71.6661 83.2668 70.681 83.6853C69.696 84.1039 68.7471 84.3132 67.8345 84.3132C66.5018 84.3132 65.4805 83.8874 64.7707 83.0358C64.0754 82.1987 63.7277 80.9573 63.7277 79.3119C63.7277 78.4314 63.8291 77.5004 64.0319 76.5189C64.0609 76.3169 64.1044 76.1076 64.1623 75.8911C63.4235 75.9632 62.6847 76.0426 61.946 76.1292C60.9754 76.2447 60.1352 76.3096 59.4254 76.3241C58.7735 77.8396 58.252 79.2397 57.8609 80.5243C57.4843 81.7945 57.1873 83.0358 56.97 84.2483C56.4196 84.1184 55.9632 83.8874 55.6011 83.5554C55.2389 83.2379 54.9058 82.8337 54.6016 82.343C54.7175 82.1121 54.8478 81.8162 54.9927 81.4553C55.152 81.0945 55.3331 80.6615 55.5359 80.1563C55.7532 79.6366 55.9922 79.0376 56.253 78.3593C56.5282 77.6664 56.8396 76.8654 57.1873 75.956C56.7093 75.7539 56.3906 75.4725 56.2312 75.1116C56.3037 75.0539 56.463 74.9962 56.7093 74.9384C56.97 74.8663 57.2887 74.7941 57.6654 74.7219L57.9478 74.0291C58.252 73.2497 58.4983 72.5929 58.6866 72.0589C58.8894 71.5248 59.056 71.0052 59.1864 70.5C59.3312 69.9804 59.4616 69.4103 59.5775 68.7896C59.7079 68.169 59.86 67.3823 60.0338 66.4297C60.6422 66.5452 61.1927 66.8122 61.6852 67.2308C62.1922 67.6493 62.6268 68.1545 62.989 68.7463C62.8586 68.9195 62.6992 69.1793 62.5109 69.5257C62.3226 69.8722 62.1126 70.2907 61.8808 70.7815C61.6635 71.2578 61.4245 71.7991 61.1637 72.4053C60.903 72.9971 60.6205 73.625 60.3163 74.2889C61.2144 74.1734 62.127 74.0652 63.0541 73.9642C63.677 73.892 64.2492 73.8342 64.7707 73.7909C64.7997 73.7332 64.8287 73.6755 64.8576 73.6177C65.2053 72.6651 65.6254 71.763 66.1179 70.9114C66.6105 70.0454 67.1464 69.2876 67.7259 68.6381C68.3198 67.9741 68.9499 67.4473 69.6163 67.0576C70.2971 66.6678 70.9925 66.473 71.7023 66.473C71.9341 66.473 72.1513 66.4946 72.3542 66.5379C72.557 66.5668 72.7742 66.6318 73.006 66.7328C73.2813 66.8483 73.5637 66.9998 73.8535 67.1875C74.1432 67.3607 74.4112 67.5411 74.6574 67.7287C74.9037 67.9164 75.1065 68.104 75.2658 68.2917C75.4397 68.4649 75.5338 68.6092 75.5483 68.7247C75.302 68.6669 75.0558 68.6308 74.8095 68.6164C74.5633 68.5875 74.3387 68.5731 74.1359 68.5731C73.4841 68.5731 72.8322 68.7319 72.1803 69.0494C71.5429 69.367 70.9345 69.8 70.3551 70.3485C69.7756 70.897 69.2397 71.5393 68.7471 72.2754C68.356 72.8527 68.0084 73.4662 67.7041 74.1157Z" fill="#2361A8"/>
<path d="M84.5029 82.0182C84.2276 81.7873 84.0393 81.4986 83.9379 81.1522C83.851 80.8058 83.8075 80.5099 83.8075 80.2645C83.8075 79.9614 83.8437 79.7016 83.9162 79.4851C83.8582 79.4851 83.7279 79.6006 83.5251 79.8315C83.3223 80.0624 83.0977 80.3367 82.8515 80.6542C82.6197 80.9718 82.3879 81.2821 82.1561 81.5852C81.9244 81.8883 81.7505 82.1121 81.6346 82.2564C81.4463 82.4585 81.2652 82.6172 81.0914 82.7327C80.9321 82.8482 80.8017 82.9131 80.7003 82.9276C80.4685 82.9131 80.2222 82.8626 79.9615 82.776C79.7152 82.7038 79.4762 82.5956 79.2444 82.4512C79.0272 82.3069 78.8316 82.1337 78.6578 81.9316C78.4984 81.7296 78.3898 81.4986 78.3318 81.2388C78.3318 80.8347 78.3391 80.5027 78.3536 80.2429C78.3825 79.9831 78.4332 79.7016 78.5057 79.3985C78.636 78.85 78.8751 78.2799 79.2227 77.6881C79.5704 77.0963 79.976 76.6344 80.4395 76.3024C80.5699 76.3024 80.722 76.3169 80.8958 76.3457C81.0697 76.3602 81.2435 76.3963 81.4173 76.454C81.6057 76.5117 81.7795 76.5839 81.9388 76.6705C82.1127 76.7427 82.2575 76.8437 82.3734 76.9736C82.243 77.1179 81.9244 77.8252 81.4173 79.0954C80.9103 80.3656 80.6568 81.0945 80.6568 81.2821C80.6568 81.3976 80.6713 81.4842 80.7003 81.5419C80.7437 81.5997 80.78 81.643 80.8089 81.6718C81.0262 81.5852 81.3015 81.3471 81.6346 80.9573C81.9678 80.5676 82.4314 79.9686 83.0253 79.1603C83.1702 78.9583 83.3367 78.7273 83.5251 78.4675C83.7279 78.2077 83.9307 77.9335 84.1335 77.6448C84.3363 77.3417 84.5246 77.0313 84.6984 76.7138C84.8867 76.3963 85.0388 76.0787 85.1547 75.7612C85.2127 75.588 85.2851 75.3859 85.372 75.1549C85.4734 74.9096 85.5893 74.657 85.7197 74.3972C85.8645 74.1374 86.0239 73.8775 86.1977 73.6177C86.386 73.3435 86.6033 73.0909 86.8496 72.86C87.0379 72.86 87.2407 72.8816 87.458 72.9249C87.6753 72.9682 87.8781 73.026 88.0664 73.0981C88.2692 73.1559 88.4431 73.228 88.5879 73.3146C88.7328 73.3868 88.8414 73.4662 88.9138 73.5528C88.6531 74.1879 88.3634 74.8157 88.0447 75.4364C87.726 76.0571 87.429 76.6705 87.1538 77.2767C86.8786 77.8685 86.6468 78.4603 86.4585 79.0521C86.2702 79.6439 86.176 80.2212 86.176 80.7841C86.176 81.0872 86.1977 81.3543 86.2412 81.5852C86.2991 81.8017 86.3571 81.9894 86.415 82.1481C86.473 82.2925 86.5237 82.4152 86.5671 82.5162C86.6251 82.6172 86.654 82.7038 86.654 82.776C86.654 82.7904 86.6395 82.8121 86.6106 82.841C86.5961 82.8554 86.5816 82.8626 86.5671 82.8626C86.4657 82.8626 86.3353 82.841 86.176 82.7977C86.0167 82.7544 85.8356 82.6894 85.6328 82.6028C85.4445 82.5306 85.2489 82.444 85.0461 82.343C84.8578 82.242 84.6767 82.1337 84.5029 82.0182Z" fill="#2361A8"/>
<path d="M93.5017 71.6475C93.5017 71.5609 93.5234 71.431 93.5669 71.2578C93.4945 71.1856 93.4293 71.0774 93.3713 70.933C93.3279 70.7887 93.3062 70.6588 93.3062 70.5433C93.3062 70.4134 93.3206 70.2402 93.3496 70.0237C93.3931 69.7928 93.4438 69.5474 93.5017 69.2876C93.5597 69.0278 93.6321 68.7608 93.719 68.4865C93.8059 68.1978 93.8928 67.938 93.9798 67.7071C94.1536 67.7071 94.3636 67.7576 94.6099 67.8586C94.8706 67.9452 95.1314 68.0679 95.3921 68.2267C95.6529 68.371 95.8919 68.537 96.1092 68.7247C96.3265 68.8979 96.4931 69.0639 96.609 69.2226C96.4496 69.3814 96.2396 69.6051 95.9788 69.8938C95.7181 70.1681 95.4646 70.4639 95.2183 70.7815C94.972 71.0846 94.7475 71.3733 94.5447 71.6475C94.3419 71.9218 94.2115 72.1166 94.1536 72.2321C93.9798 72.2032 93.8277 72.1311 93.6973 72.0156C93.5669 71.8857 93.5017 71.763 93.5017 71.6475ZM90.1772 76.6705C90.5973 75.5302 90.9232 74.8013 91.155 74.4838C91.3868 74.1518 91.6692 73.9064 92.0024 73.7476C92.2487 73.7765 92.5746 73.9136 92.9802 74.159C93.4003 74.3899 93.7552 74.7147 94.0449 75.1333C93.4076 75.8839 92.9223 76.6561 92.5891 77.4499C92.2704 78.2438 91.9662 79.1098 91.6765 80.048C91.662 80.1057 91.6403 80.1635 91.6113 80.2212C91.5099 80.6398 91.4592 81.0151 91.4592 81.3471C91.4592 81.6502 91.5027 81.8522 91.5896 81.9533C91.6765 82.0399 91.7996 82.0832 91.959 82.0832C92.1328 82.0832 92.2921 82.0543 92.437 81.9966C92.5963 81.9244 92.7122 81.8883 92.7847 81.8883C92.8716 81.9461 92.9223 82.0182 92.9368 82.1048C92.9513 82.1914 92.9585 82.2708 92.9585 82.343C92.6688 82.5739 92.3718 82.7616 92.0676 82.9059C91.7634 83.0647 91.423 83.1441 91.0463 83.1441C90.6987 83.1441 90.409 83.0863 90.1772 82.9709C89.9599 82.8554 89.7788 82.6966 89.634 82.4945C89.4891 82.2925 89.3877 82.0615 89.3298 81.8017C89.2718 81.5419 89.2428 81.2605 89.2428 80.9573C89.4601 79.2397 89.7716 77.8108 90.1772 76.6705Z" fill="#2361A8"/>
<path d="M98.6369 78.316C98.6224 78.3304 98.6079 78.3376 98.5934 78.3376C98.2892 78.4819 98.0212 78.5685 97.7895 78.5974C97.2245 78.5252 96.8044 78.352 96.5292 78.0778C96.2539 77.8036 96.1163 77.4499 96.1163 77.0169C96.1163 76.5983 96.2322 76.1437 96.464 75.6529C96.6958 75.1477 96.9927 74.6786 97.3549 74.2456C97.7315 73.8126 98.1589 73.4517 98.6369 73.1631C99.1149 72.86 99.593 72.7084 100.071 72.7084C100.593 72.7084 100.984 72.8672 101.244 73.1847C101.288 73.2425 101.331 73.3074 101.375 73.3796C101.52 73.1919 101.679 73.0187 101.853 72.86C102.041 72.86 102.244 72.8816 102.461 72.9249C102.678 72.9682 102.881 73.026 103.07 73.0981C103.272 73.1559 103.446 73.228 103.591 73.3146C103.736 73.3868 103.845 73.4662 103.917 73.5528C103.656 74.1879 103.367 74.8157 103.048 75.4364C102.729 76.0571 102.432 76.6705 102.157 77.2767C101.882 77.8685 101.65 78.4603 101.462 79.0521C101.273 79.6439 101.179 80.2212 101.179 80.7841C101.179 81.0872 101.201 81.3543 101.244 81.5852C101.302 81.8017 101.36 81.9894 101.418 82.1481C101.476 82.2925 101.527 82.4152 101.57 82.5162C101.628 82.6172 101.657 82.7038 101.657 82.776C101.657 82.7904 101.643 82.8121 101.614 82.841C101.599 82.8554 101.585 82.8626 101.57 82.8626C101.469 82.8626 101.339 82.841 101.179 82.7977C101.02 82.7544 100.839 82.6894 100.636 82.6028C100.448 82.5306 100.252 82.444 100.049 82.343C99.861 82.242 99.6799 82.1337 99.5061 82.0182C99.2308 81.7873 99.0425 81.4986 98.9411 81.1522C98.8542 80.8058 98.8107 80.5099 98.8107 80.2645C98.8107 79.9614 98.8469 79.7016 98.9194 79.4851C98.8614 79.4851 98.7311 79.6006 98.5282 79.8315C98.3254 80.0624 98.1009 80.3367 97.8546 80.6542C97.6229 80.9718 97.3911 81.2821 97.1593 81.5852C96.9275 81.8883 96.7537 82.1121 96.6378 82.2564C96.4495 82.4585 96.2684 82.6172 96.0946 82.7327C95.9353 82.8482 95.8049 82.9131 95.7035 82.9276C95.4717 82.9131 95.2254 82.8626 94.9647 82.776C94.7184 82.7038 94.4794 82.5956 94.2476 82.4512C94.0303 82.3069 93.8348 82.1337 93.661 81.9316C93.5016 81.7296 93.393 81.4986 93.335 81.2388C93.335 80.8347 93.364 80.5099 93.4219 80.2645C93.4799 80.0191 93.5813 79.6872 93.7261 79.2686C93.8855 78.85 94.1969 78.4747 94.6605 78.1427C94.7909 78.1427 94.943 78.1572 95.1168 78.186C95.2906 78.2005 95.4645 78.2366 95.6383 78.2943C95.8266 78.352 96.0004 78.4242 96.1598 78.5108C96.3336 78.583 96.4785 78.684 96.5944 78.8139C96.464 78.9583 96.2757 79.3624 96.0294 80.0264C95.7831 80.6759 95.66 81.0945 95.66 81.2821C95.66 81.3976 95.6745 81.4842 95.7035 81.5419C95.7469 81.5997 95.7831 81.643 95.8121 81.6718C96.0294 81.5852 96.3046 81.3471 96.6378 80.9573C96.971 80.5676 97.4346 79.9686 98.0285 79.1603C98.1733 78.9583 98.3472 78.7273 98.55 78.4675C98.5789 78.4242 98.6079 78.3737 98.6369 78.316ZM100.853 74.159C100.839 74.1301 100.824 74.1013 100.81 74.0724C100.737 74.0002 100.6 73.9497 100.397 73.9208C100.078 73.993 99.7523 74.1518 99.4191 74.3972C99.086 74.6425 98.7817 74.9312 98.5065 75.2632C98.2458 75.5807 98.0285 75.9127 97.8546 76.2591C97.6953 76.5911 97.6156 76.8726 97.6156 77.1035C97.6156 77.5077 97.8329 77.7097 98.2675 77.7097C98.4413 77.7097 98.6152 77.6736 98.789 77.6015C98.9628 77.5437 99.1294 77.4788 99.2888 77.4066C99.4336 77.1757 99.5785 76.9447 99.7233 76.7138C99.8972 76.3963 100.042 76.0787 100.158 75.7612C100.216 75.588 100.288 75.3859 100.375 75.1549C100.477 74.9096 100.6 74.657 100.745 74.3972C100.774 74.325 100.81 74.2456 100.853 74.159Z" fill="#2361A8"/>
<path d="M56.1226 103.51C56.1226 102.5 56.2385 101.511 56.4703 100.544C56.7165 99.5626 57.0569 98.6388 57.4915 97.7728C57.9261 96.8923 58.4404 96.0912 59.0343 95.3695C59.6427 94.6334 60.3018 93.9983 61.0116 93.4643C61.7359 92.9302 62.5037 92.5188 63.3149 92.2302C64.1261 91.9271 64.959 91.7755 65.8137 91.7755C66.8133 91.7755 67.5883 91.9848 68.1387 92.4034C68.7037 92.822 68.9862 93.4065 68.9862 94.1571C68.9862 94.4458 68.9427 94.7417 68.8558 95.0448C68.7834 95.3479 68.6675 95.651 68.5081 95.9541C68.3633 96.2428 68.1894 96.5242 67.9866 96.7985C67.7838 97.0727 67.5593 97.3109 67.313 97.513C66.9364 97.4552 66.6105 97.2892 66.3352 97.015C66.06 96.7263 65.8862 96.3943 65.8137 96.0191C66.3207 95.6005 66.7191 95.1675 67.0088 94.72C67.313 94.2581 67.4651 93.8395 67.4651 93.4643C67.4651 92.8292 67.0668 92.5116 66.27 92.5116C65.9369 92.5116 65.5892 92.5838 65.227 92.7281C64.8794 92.858 64.5245 93.0457 64.1623 93.2911C63.8002 93.5364 63.4453 93.8323 63.0976 94.1787C62.7644 94.5252 62.453 94.9076 62.1633 95.3262C60.1497 98.213 59.1429 101.165 59.1429 104.181C59.1429 105.249 59.3095 106.108 59.6427 106.758C59.9759 107.407 60.4177 107.79 60.9682 107.905C61.5911 107.761 62.3805 107.364 63.3366 106.715C64.2927 106.065 65.3357 105.221 66.4656 104.181C66.6105 104.326 66.6974 104.477 66.7263 104.636C66.3062 105.185 65.8717 105.711 65.4226 106.217C64.9735 106.722 64.5245 107.184 64.0754 107.602C63.6408 108.021 63.2062 108.389 62.7717 108.706C62.3516 109.024 61.9604 109.269 61.5983 109.443C59.802 109.414 58.4404 108.901 57.5132 107.905C56.5861 106.909 56.1226 105.444 56.1226 103.51Z" fill="#2361A8"/>
<path d="M76.4287 104.398C76.0955 105.452 75.7623 106.411 75.4291 107.277C75.096 108.143 74.7411 108.937 74.3644 109.659C73.9878 110.395 73.5822 111.066 73.1476 111.673C72.713 112.293 72.235 112.878 71.7135 113.426C71.0471 114.119 70.359 114.646 69.6492 115.007C68.9394 115.382 68.2296 115.57 67.5198 115.57C67.1576 115.57 66.7955 115.526 66.4333 115.44C66.0857 115.368 65.7597 115.259 65.4555 115.115C65.1368 114.985 64.8616 114.826 64.6298 114.639C64.3836 114.465 64.2097 114.278 64.1083 114.076C64.1083 113.903 64.2097 113.751 64.4125 113.621C64.5864 113.78 64.7312 113.903 64.8471 113.989C64.963 114.076 65.0789 114.148 65.1948 114.206C65.2962 114.263 65.4121 114.3 65.5424 114.314C65.6583 114.328 65.796 114.336 65.9553 114.336C66.781 114.336 67.585 114.09 68.3672 113.599C69.1639 113.123 69.91 112.438 70.6053 111.543C71.3151 110.662 71.9597 109.587 72.5392 108.317C73.1186 107.061 73.6111 105.654 74.0168 104.095C73.8284 104.383 73.5967 104.737 73.3214 105.156C73.0462 105.574 72.742 105.993 72.4088 106.411C72.0756 106.816 71.728 107.184 71.3658 107.516C71.0182 107.848 70.6777 108.071 70.3446 108.187C70.1128 108.172 69.8665 108.122 69.6058 108.035C69.3595 107.963 69.1205 107.855 68.8887 107.71C68.6714 107.566 68.4759 107.393 68.302 107.191C68.1282 106.989 68.0123 106.758 67.9544 106.498C67.9544 106.079 67.9689 105.747 67.9978 105.502C68.0268 105.242 68.0775 104.961 68.1499 104.658C68.2803 104.109 68.4686 103.489 68.7149 102.796C68.9756 102.103 69.2726 101.425 69.6058 100.761C69.9534 100.082 70.3301 99.4543 70.7357 98.877C71.1558 98.2852 71.5904 97.8233 72.0394 97.4913C72.1553 97.4913 72.3002 97.5057 72.474 97.5346C72.6478 97.549 72.8289 97.5851 73.0172 97.6429C73.2055 97.7006 73.3866 97.7728 73.5604 97.8594C73.7343 97.9315 73.8864 98.0326 74.0168 98.1625C73.8574 98.3068 73.5097 98.7904 72.9738 99.6131C72.4378 100.436 71.8439 101.619 71.192 103.164C71.1196 103.323 71.0326 103.554 70.9312 103.857C70.8298 104.16 70.7284 104.477 70.627 104.809C70.5401 105.141 70.4604 105.466 70.388 105.784C70.3156 106.101 70.2794 106.354 70.2794 106.541C70.2794 106.657 70.2939 106.743 70.3228 106.801C70.3663 106.859 70.4025 106.902 70.4315 106.931C70.6922 106.888 71.0399 106.678 71.4745 106.303C71.909 105.913 72.4016 105.314 72.952 104.506C73.2997 103.987 73.6184 103.474 73.9081 102.969C74.1978 102.449 74.4803 101.93 74.7555 101.41C75.0453 100.89 75.3422 100.356 75.6464 99.8079C75.9506 99.2594 76.2766 98.6965 76.6242 98.1192C76.8126 98.1192 77.0154 98.1408 77.2326 98.1841C77.4499 98.2274 77.66 98.2852 77.8628 98.3573C78.0656 98.4151 78.2394 98.4872 78.3843 98.5738C78.5436 98.646 78.6595 98.7254 78.7319 98.812C78.2829 99.7646 77.8628 100.696 77.4717 101.605C77.0805 102.514 76.7329 103.445 76.4287 104.398Z" fill="#2361A8"/>
<path d="M84.7999 107.277C84.5247 107.047 84.3364 106.758 84.235 106.411C84.1481 106.065 84.1046 105.769 84.1046 105.524C84.1046 105.221 84.1408 104.961 84.2133 104.744C84.1553 104.744 84.0249 104.86 83.8221 105.091C83.6193 105.322 83.3948 105.596 83.1485 105.913C82.9168 106.231 82.685 106.541 82.4532 106.844C82.2214 107.148 82.0476 107.371 81.9317 107.516C81.7434 107.718 81.5623 107.876 81.3885 107.992C81.2291 108.107 81.0988 108.172 80.9974 108.187C80.7656 108.172 80.5193 108.122 80.2586 108.035C80.0123 107.963 79.7733 107.855 79.5415 107.71C79.3242 107.566 79.1287 107.393 78.9548 107.191C78.7955 106.989 78.6868 106.758 78.6289 106.498C78.6289 106.094 78.6361 105.762 78.6506 105.502C78.6796 105.242 78.7303 104.961 78.8027 104.658C78.9331 104.109 79.1721 103.539 79.5198 102.947C79.8675 102.356 80.2731 101.894 80.7366 101.562C80.867 101.562 81.0191 101.576 81.1929 101.605C81.3668 101.619 81.5406 101.655 81.7144 101.713C81.9027 101.771 82.0766 101.843 82.2359 101.93C82.4097 102.002 82.5546 102.103 82.6705 102.233C82.5401 102.377 82.2214 103.084 81.7144 104.355C81.2074 105.625 80.9539 106.354 80.9539 106.541C80.9539 106.657 80.9684 106.743 80.9974 106.801C81.0408 106.859 81.077 106.902 81.106 106.931C81.3233 106.844 81.5985 106.606 81.9317 106.217C82.2649 105.827 82.7284 105.228 83.3224 104.42C83.4672 104.217 83.6338 103.987 83.8221 103.727C84.0249 103.467 84.2277 103.193 84.4305 102.904C84.6333 102.601 84.8217 102.291 84.9955 101.973C85.1838 101.655 85.3359 101.338 85.4518 101.02C85.5098 100.847 85.5822 100.645 85.6691 100.414C85.7705 100.169 85.8864 99.9162 86.0168 99.6564C86.1616 99.3966 86.321 99.1368 86.4948 98.877C86.6831 98.6027 86.9004 98.3501 87.1467 98.1192C87.335 98.1192 87.5378 98.1408 87.7551 98.1841C87.9724 98.2274 88.1752 98.2852 88.3635 98.3573C88.5663 98.4151 88.7401 98.4872 88.885 98.5738C89.0298 98.646 89.1385 98.7254 89.2109 98.812C88.9502 99.4471 88.6605 100.075 88.3418 100.696C88.0231 101.316 87.7261 101.93 87.4509 102.536C87.1756 103.128 86.9439 103.72 86.7556 104.311C86.5672 104.903 86.4731 105.48 86.4731 106.043C86.4731 106.346 86.4948 106.613 86.5383 106.844C86.5962 107.061 86.6541 107.249 86.7121 107.407C86.77 107.552 86.8207 107.674 86.8642 107.775C86.9221 107.876 86.9511 107.963 86.9511 108.035C86.9511 108.05 86.9366 108.071 86.9076 108.1C86.8932 108.115 86.8787 108.122 86.8642 108.122C86.7628 108.122 86.6324 108.1 86.4731 108.057C86.3137 108.014 86.1326 107.949 85.9298 107.862C85.7415 107.79 85.546 107.703 85.3432 107.602C85.1548 107.501 84.9738 107.393 84.7999 107.277Z" fill="#2361A8"/>
<path d="M97.1233 99.0069C97.2682 99.0069 97.4348 99.0357 97.6231 99.0935C97.8259 99.1368 98.007 99.2017 98.1663 99.2883C98.3257 99.3605 98.456 99.4399 98.5574 99.5265C98.6733 99.6131 98.7313 99.6925 98.7313 99.7646C98.4416 100.371 98.1736 100.984 97.9273 101.605C97.681 102.211 97.471 102.796 97.2972 103.359C97.1233 103.922 96.9857 104.448 96.8843 104.939C96.7974 105.43 96.7539 105.856 96.7539 106.217C96.7539 106.621 96.7974 106.96 96.8843 107.234C96.9712 107.494 97.1161 107.682 97.3189 107.797C97.1451 107.913 96.9205 108.006 96.6453 108.079C96.3701 108.151 96.1238 108.187 95.9065 108.187C95.1243 108.187 94.7331 107.653 94.7331 106.585C94.7331 105.762 95.0084 104.636 95.5588 103.207C95.2691 103.871 94.9359 104.499 94.5593 105.091C94.1827 105.668 93.7988 106.18 93.4077 106.628C93.0166 107.075 92.6182 107.443 92.2126 107.732C91.8215 108.006 91.4593 108.172 91.1261 108.23C90.5901 108.201 90.1556 107.949 89.8224 107.472C89.4892 106.982 89.3226 106.361 89.3226 105.61C89.3226 104.802 89.4965 103.95 89.8441 103.056C90.1918 102.161 90.6336 101.331 91.1696 100.566C91.7201 99.8007 92.314 99.1656 92.9514 98.6604C93.5887 98.1408 94.2044 97.8666 94.7983 97.8377C94.9432 97.881 95.1025 97.9676 95.2764 98.0975C95.4647 98.2274 95.6385 98.379 95.7979 98.5522C95.9717 98.7254 96.1166 98.9058 96.2324 99.0935C96.3483 99.2667 96.4135 99.4182 96.428 99.5481C95.8486 99.6347 95.2474 99.9162 94.6245 100.393C94.0161 100.869 93.4584 101.446 92.9514 102.125C92.4588 102.789 92.0532 103.503 91.7345 104.268C91.4159 105.033 91.2565 105.747 91.2565 106.411C91.2565 106.686 91.3579 106.859 91.5607 106.931C91.9808 106.844 92.4661 106.491 93.0166 105.87C93.567 105.235 94.2334 104.261 95.0156 102.947C95.1605 102.687 95.3198 102.399 95.4937 102.081C95.682 101.764 95.8703 101.432 96.0586 101.085C96.2469 100.739 96.428 100.393 96.6018 100.046C96.7902 99.6852 96.964 99.3388 97.1233 99.0069Z" fill="#2361A8"/>
<path d="M102.441 104.073C102.398 104.42 102.376 104.766 102.376 105.112C102.376 106.282 102.637 106.982 103.158 107.212C103.375 107.184 103.629 107.119 103.919 107.018C104.208 106.917 104.52 106.787 104.853 106.628C105.186 106.455 105.527 106.26 105.874 106.043C106.236 105.827 106.584 105.596 106.917 105.351C106.975 105.394 107.026 105.459 107.069 105.545C107.113 105.632 107.134 105.711 107.134 105.784C106.888 106.087 106.606 106.383 106.287 106.671C105.968 106.96 105.635 107.227 105.287 107.472C104.94 107.703 104.599 107.898 104.266 108.057C103.948 108.23 103.665 108.338 103.419 108.382C102.941 108.338 102.492 108.187 102.072 107.927C101.652 107.682 101.282 107.357 100.963 106.953C100.659 106.549 100.413 106.087 100.225 105.567C100.051 105.047 99.9639 104.506 99.9639 103.943C99.9639 103.121 100.13 102.327 100.464 101.562C100.811 100.782 101.26 100.097 101.811 99.5048C102.376 98.8986 103.013 98.4151 103.723 98.0542C104.447 97.6789 105.193 97.4913 105.961 97.4913C106.714 97.4913 107.294 97.6789 107.699 98.0542C108.105 98.4295 108.308 98.9636 108.308 99.6564C108.308 99.9884 108.257 100.313 108.156 100.631C108.069 100.934 107.946 101.208 107.786 101.453C107.641 101.699 107.468 101.901 107.265 102.06C107.062 102.204 106.859 102.276 106.656 102.276C106.483 102.276 106.302 102.226 106.113 102.125C105.939 102.009 105.794 101.865 105.679 101.692C106.649 100.811 107.134 100.01 107.134 99.2883C107.134 98.8697 106.968 98.6604 106.635 98.6604C106.345 98.6604 105.983 98.7976 105.548 99.0718C105.114 99.3461 104.694 99.7069 104.288 100.154C103.665 100.847 103.194 101.612 102.876 102.449C102.847 102.521 102.818 102.594 102.789 102.666H103.267C103.527 102.666 103.737 102.666 103.897 102.666C104.071 102.651 104.244 102.63 104.418 102.601C104.447 102.644 104.469 102.724 104.484 102.839C104.512 102.94 104.527 103.019 104.527 103.077C104.527 103.409 104.426 103.669 104.223 103.857C104.02 104.044 103.752 104.138 103.419 104.138C103.1 104.138 102.781 104.116 102.463 104.073H102.441Z" fill="#2361A8"/>
<path d="M116.129 94.4818C117.07 93.4859 117.541 92.6055 117.541 91.8405C117.541 91.7827 117.526 91.7394 117.497 91.7106C116.353 92.7787 115.332 94.0488 114.434 95.5211C114.839 95.3479 115.165 95.1819 115.412 95.0231C115.672 94.8499 115.911 94.6695 116.129 94.4818ZM117.78 95.1097C117.331 95.5427 116.853 95.8747 116.346 96.1057C115.853 96.3366 114.991 96.5242 113.76 96.6686C112.775 98.5305 111.957 100.674 111.305 103.099C111.71 102.348 112.167 101.627 112.674 100.934C113.181 100.227 113.68 99.6059 114.173 99.0718C114.68 98.5378 115.158 98.112 115.607 97.7944C116.071 97.4769 116.454 97.3181 116.759 97.3181C116.99 97.3758 117.215 97.4769 117.432 97.6212C117.65 97.7655 117.845 97.946 118.019 98.1625C118.193 98.3646 118.338 98.5883 118.454 98.8337C118.569 99.0646 118.642 99.31 118.671 99.5698C118.656 100.176 118.548 100.826 118.345 101.518C118.157 102.197 117.896 102.868 117.563 103.532C117.244 104.196 116.875 104.831 116.454 105.437C116.049 106.043 115.614 106.577 115.151 107.039C114.702 107.487 114.245 107.848 113.782 108.122C113.333 108.396 112.905 108.533 112.5 108.533C112.326 108.533 112.145 108.512 111.957 108.468C111.783 108.439 111.616 108.389 111.457 108.317C111.312 108.259 111.189 108.194 111.087 108.122C111.001 108.05 110.957 107.977 110.957 107.905C111.623 107.458 112.275 106.888 112.913 106.195C113.55 105.488 114.129 104.73 114.651 103.922C115.172 103.099 115.614 102.247 115.976 101.367C116.339 100.486 116.585 99.6419 116.715 98.8337C116.715 98.6604 116.621 98.545 116.433 98.4872C116.23 98.4872 115.947 98.6677 115.585 99.0285C115.238 99.3749 114.847 99.8224 114.412 100.371C113.992 100.919 113.557 101.533 113.108 102.211C112.674 102.89 112.275 103.568 111.913 104.246C111.551 104.91 111.24 105.538 110.979 106.13C110.733 106.707 110.595 107.176 110.566 107.537C110.421 107.537 110.298 107.393 110.197 107.104C110.168 107.032 110.117 106.96 110.044 106.888C109.972 106.801 109.856 106.7 109.697 106.585C109.624 106.527 109.552 106.462 109.479 106.39C109.407 106.303 109.356 106.231 109.327 106.173C109.269 106.058 109.24 105.87 109.24 105.61C109.24 104.759 109.349 103.799 109.566 102.731C109.784 101.663 110.066 100.573 110.414 99.4615C110.776 98.3501 111.196 97.2604 111.674 96.1923C112.152 95.1097 112.645 94.121 113.152 93.2261C113.673 92.3312 114.195 91.5734 114.716 90.9528C115.238 90.3321 115.73 89.9208 116.194 89.7187C116.339 89.762 116.512 89.8342 116.715 89.9352C116.918 90.0362 117.121 90.1517 117.324 90.2816C117.526 90.4115 117.715 90.5414 117.889 90.6713C118.077 90.8012 118.215 90.9167 118.301 91.0177C118.693 91.4219 118.888 91.9271 118.888 92.5333C118.888 92.9952 118.794 93.4643 118.606 93.9406C118.417 94.4025 118.142 94.7922 117.78 95.1097Z" fill="#2361A8"/>
<path d="M126.704 99.0069C126.848 99.0069 127.015 99.0357 127.203 99.0935C127.406 99.1368 127.587 99.2017 127.747 99.2883C127.906 99.3605 128.036 99.4399 128.138 99.5265C128.254 99.6131 128.312 99.6925 128.312 99.7646C128.022 100.371 127.754 100.984 127.508 101.605C127.261 102.211 127.051 102.796 126.877 103.359C126.704 103.922 126.566 104.448 126.465 104.939C126.378 105.43 126.334 105.856 126.334 106.217C126.334 106.621 126.378 106.96 126.465 107.234C126.552 107.494 126.696 107.682 126.899 107.797C126.725 107.913 126.501 108.006 126.226 108.079C125.95 108.151 125.704 108.187 125.487 108.187C124.705 108.187 124.313 107.653 124.313 106.585C124.313 105.762 124.589 104.636 125.139 103.207C124.849 103.871 124.516 104.499 124.14 105.091C123.763 105.668 123.379 106.18 122.988 106.628C122.597 107.075 122.198 107.443 121.793 107.732C121.402 108.006 121.04 108.172 120.706 108.23C120.17 108.201 119.736 107.949 119.403 107.472C119.07 106.982 118.903 106.361 118.903 105.61C118.903 104.802 119.077 103.95 119.424 103.056C119.772 102.161 120.214 101.331 120.75 100.566C121.3 99.8007 121.894 99.1656 122.532 98.6604C123.169 98.1408 123.785 97.8666 124.379 97.8377C124.523 97.881 124.683 97.9676 124.857 98.0975C125.045 98.2274 125.219 98.379 125.378 98.5522C125.552 98.7254 125.697 98.9058 125.813 99.0935C125.929 99.2667 125.994 99.4182 126.008 99.5481C125.429 99.6347 124.828 99.9162 124.205 100.393C123.596 100.869 123.039 101.446 122.532 102.125C122.039 102.789 121.634 103.503 121.315 104.268C120.996 105.033 120.837 105.747 120.837 106.411C120.837 106.686 120.938 106.859 121.141 106.931C121.561 106.844 122.046 106.491 122.597 105.87C123.147 105.235 123.814 104.261 124.596 102.947C124.741 102.687 124.9 102.399 125.074 102.081C125.262 101.764 125.451 101.432 125.639 101.085C125.827 100.739 126.008 100.393 126.182 100.046C126.37 99.6852 126.544 99.3388 126.704 99.0069Z" fill="#2361A8"/>
</svg>
