<svg width="182" height="182" viewBox="0 0 182 182" fill="none" xmlns="http://www.w3.org/2000/svg">
<rect x="0.5" y="0.5" width="181" height="181" rx="90.5" fill="white"/>
<rect x="0.5" y="0.5" width="181" height="181" rx="90.5" stroke="#CBD8E5"/>
<path d="M119.479 87.9738C118.936 89.0845 118.496 90.116 117.955 91.0956C117.58 91.7888 117.124 92.4346 116.597 93.0194C114.872 94.8887 112.212 94.5803 110.892 92.4C110.047 91.0028 109.938 89.4174 109.751 87.851C109.732 87.6873 109.702 87.5236 109.645 87.1443C109.352 87.6355 109.161 87.9629 108.971 88.2658C108.738 88.6506 108.528 89.0572 108.259 89.4147C107.991 89.7721 107.651 90.4052 107.298 90.438C106.545 90.5089 105.668 90.4598 105.032 90.0996C104.554 89.8267 104.375 89.0081 104.108 88.3995C104.014 88.0741 103.957 87.7391 103.937 87.4008C103.758 87.7064 103.666 87.8674 103.568 88.0393C102.685 89.7885 101.055 90.5226 99.1506 90.0232C97.469 89.5838 97.2027 89.311 97.3168 87.5672C97.4119 86.0691 97.6836 84.5656 97.8602 83.0838C97.9172 82.6363 97.9553 82.1833 98.0014 81.733L97.7814 81.6675C97.5874 81.8985 97.406 82.1399 97.2381 82.3907C96.5154 83.5832 95.8308 84.8002 95.0838 85.9763C94.4834 86.926 93.8178 87.8347 93.1685 88.7488C93.0121 88.9886 92.7801 89.1687 92.5097 89.2602C92.2393 89.3517 91.9461 89.3494 91.6771 89.2537C90.3677 88.8716 89.3245 88.1458 89.387 86.5112C89.4549 84.7538 89.4793 82.9965 89.5228 81.2391C89.531 81.0979 89.4842 80.9589 89.3924 80.8516C89.1343 81.1654 88.8491 81.4629 88.6182 81.7958C87.594 83.2775 86.5888 84.7702 85.5647 86.252C84.8013 87.3599 84.0298 88.4623 83.2338 89.5456C83.1634 89.6227 83.0755 89.6816 82.9776 89.7172C82.8797 89.7528 82.7747 89.7642 82.6714 89.7503C82.0059 89.5511 81.3593 89.2946 80.71 89.0408C80.2482 88.858 80.1151 88.5223 80.1667 88.0148C80.3569 86.3147 80.5796 84.6119 80.634 82.9037C80.6281 81.7619 80.519 80.6229 80.308 79.5009C80.202 78.7914 80.2373 78.5021 80.9382 78.4748C81.9187 78.4719 82.898 78.5467 83.8668 78.6986C84.0216 78.7177 84.2172 78.9715 84.2688 79.1598C84.3487 79.4873 84.3852 79.8241 84.3775 80.1612C84.3775 81.7767 84.3775 83.3922 84.3775 85.1986C84.6845 84.7811 84.9208 84.4973 85.1137 84.1972C85.8282 83.1329 86.491 82.0141 87.2598 81.0044C88.4334 79.4408 90.0471 78.8951 91.9623 79.1407C92.1497 79.1423 92.3303 79.2107 92.4721 79.3336C92.6139 79.4565 92.7076 79.6261 92.7366 79.812C93.0952 81.22 92.9512 82.6308 92.8398 84.0471C92.7882 84.7293 92.7719 85.4115 92.7393 86.0964L92.9213 86.1565C93.0517 85.9654 93.1767 85.769 93.3152 85.5861C94.516 84.0116 95.6515 82.3825 96.9501 80.8926C97.569 80.2477 98.3249 79.7514 99.1614 79.4408C100.196 79.0233 100.669 79.5391 100.62 80.6497C100.52 82.9201 100.468 85.1932 100.444 87.4717C100.444 87.9493 100.634 88.4268 100.783 89.109C101.416 88.5633 101.919 88.1485 102.413 87.7146C103.473 86.7895 104.073 85.7662 103.853 84.2081C103.69 82.7751 103.721 81.3265 103.945 79.902C104.187 78.131 105.937 77.4461 107.502 78.3902C106.79 81.8013 107.07 85.2368 107.17 88.8634C107.364 88.7234 107.546 88.5673 107.713 88.3968C108.295 87.6518 108.882 86.9096 109.419 86.1346C109.55 85.8821 109.614 85.6004 109.607 85.316C109.944 79.2662 110.734 73.2955 112.595 67.505C112.889 66.5854 113.31 65.7067 113.682 64.8117C113.852 64.4182 114.106 64.0674 114.427 63.7844C114.748 63.5013 115.127 63.293 115.537 63.1744C117.053 62.6204 118.575 62.705 120.096 63.1662C120.664 63.3326 120.585 63.7392 120.506 64.1349C120.158 65.9032 119.819 67.6824 119.436 69.4315C118.412 74.1306 116.926 78.6413 114.206 82.6718C113.909 83.1734 113.747 83.7444 113.736 84.3281C113.625 86.7595 113.579 89.1936 113.522 91.6277C113.516 91.8755 113.554 92.1223 113.636 92.3563C113.67 92.4738 113.734 92.5804 113.822 92.6655C113.909 92.7507 114.017 92.8115 114.135 92.842C114.253 92.8726 114.377 92.8718 114.495 92.8397C114.613 92.8077 114.72 92.7455 114.807 92.6592C116.513 91.0847 117.773 89.1691 118.955 87.2016C119.036 87.0438 119.062 86.863 119.028 86.6886C118.485 83.9161 119.371 81.4083 120.571 79.0124C121.226 77.7588 122.012 76.5788 122.916 75.4922C124.361 73.7076 126.333 73.7049 128.349 74.196C129.061 74.3888 129.748 74.6635 130.397 75.0147C130.511 75.0639 130.613 75.137 130.696 75.229C130.78 75.3209 130.842 75.4297 130.88 75.5481C130.918 75.6664 130.931 75.7915 130.917 75.9151C130.903 76.0386 130.863 76.1578 130.799 76.2645C130.627 76.6286 130.432 76.9822 130.218 77.3233C128.87 79.4354 127.254 81.3618 125.41 83.0538C124.926 83.4877 124.491 83.9789 124.051 84.4591C122.506 86.1455 123.092 88.5032 125.051 89.6766C125.19 89.7267 125.337 89.748 125.484 89.739C125.631 89.7301 125.775 89.6913 125.907 89.6248C128.102 88.5551 129.889 86.9505 131.544 85.185C131.66 85.0439 131.797 84.9207 131.949 84.8193C131.54 86.4734 130.687 87.9834 129.485 89.1854C126.081 92.7138 121.987 90.9319 119.892 88.506C119.764 88.3313 119.642 88.1758 119.479 87.9738ZM113.932 80.8598L114.119 80.939C114.271 80.707 114.443 80.486 114.573 80.2431C116.233 77.1432 117.235 73.8058 117.969 70.3894C118.273 68.8031 118.492 67.2018 118.626 65.5921C118.656 65.2974 118.393 64.9672 118.265 64.6561C117.89 64.8226 117.504 64.9699 117.146 65.1664C117.025 65.2693 116.938 65.4062 116.896 65.5593C116.352 66.8173 115.727 68.048 115.309 69.3442C114.261 72.6188 114.049 76.0053 113.935 79.4081C113.918 79.8911 113.932 80.3768 113.932 80.8598ZM122.438 82.1533L122.652 82.2488C124.702 80.2248 126.574 78.0263 128.246 75.6778C126.792 75.3312 125.749 75.7324 124.888 76.6438C123.712 77.8881 123.095 79.4299 122.66 81.059C122.56 81.4192 122.511 81.7876 122.438 82.1533Z" fill="#1D1D1B"/>
<path d="M59.9653 103.399C59.5823 103.825 59.1938 104.245 58.8135 104.676C56.4799 107.328 55.0971 110.507 53.9018 113.774C53.7605 114.161 53.9697 114.743 54.1599 115.171C54.2961 115.443 54.3555 115.748 54.3316 116.052C54.3076 116.356 54.2013 116.648 54.024 116.896C53.9042 117.082 53.7375 117.233 53.5409 117.334C53.3444 117.435 53.1248 117.481 52.9044 117.47C52.6839 117.458 52.4705 117.388 52.2855 117.267C52.1005 117.147 51.9505 116.979 51.8507 116.781C51.7746 116.645 51.7393 116.464 51.628 116.372C50.2533 115.226 50.0713 113.643 50.055 112.006C49.9871 104.692 50.7315 97.4691 52.6032 90.3851C52.9781 88.9607 53.622 88.4749 55.1025 88.4286C56.2976 88.3765 57.4863 88.6291 58.5581 89.1626C59.5279 89.6374 59.9164 90.3387 59.7724 91.4057C59.4247 93.932 58.6993 96.391 57.6209 98.6998C56.8412 100.414 55.7898 101.999 54.983 103.702C54.5185 104.687 54.2712 105.781 53.9833 106.84C53.804 107.516 53.6787 108.204 53.6084 108.9C53.6128 109.244 53.6584 109.585 53.7442 109.918L53.9425 109.943C54.2142 109.465 54.5049 108.993 54.7575 108.504C55.6975 106.723 56.7624 105.028 58.1913 103.593C58.6253 103.169 59.0883 102.776 59.5768 102.416C60.1419 101.988 60.783 101.732 61.4459 102.174C61.7648 102.366 62.0225 102.646 62.1889 102.981C62.3554 103.315 62.4237 103.69 62.3858 104.062C62.2247 106.336 61.7114 108.57 60.8645 110.685C60.726 111.042 60.5929 111.4 60.4597 111.76C60.4597 111.76 60.4842 111.793 60.5331 111.855C61.5545 111.345 62.595 110.84 63.6138 110.297C63.7333 110.232 63.7659 109.951 63.7849 109.752C64.0729 107.061 64.8716 104.542 66.3902 102.302C67.7892 100.25 71.4458 99.936 73.2442 101.669C73.4245 101.866 73.5941 102.073 73.7522 102.288C73.0486 102.193 72.5162 102.149 71.9973 102.043C70.878 101.813 70.0223 102.223 69.3241 103.071C68.1044 104.559 67.6262 106.346 67.4469 108.199C67.3707 109.241 67.4172 110.289 67.5855 111.321C67.8788 111.044 68.1512 110.746 68.4005 110.428C69.2616 109.135 70.0794 107.814 70.9378 106.521C71.2095 106.109 71.5654 105.754 71.856 105.355C72.6574 104.264 73.7142 103.89 75.0399 104.117C76.0098 104.28 76.238 104.575 75.9772 105.53C75.7055 106.551 75.3904 107.563 75.1622 108.594C75.0476 109.329 74.9714 110.068 74.934 110.81C75.1649 110.726 75.26 110.72 75.3116 110.668C76.3983 109.615 77.4849 108.564 78.5254 107.487C78.6656 107.29 78.7459 107.057 78.7563 106.815C79.1176 104.482 79.4029 102.135 79.843 99.8186C80.0168 98.9099 80.5031 98.0531 80.9296 97.2072C81.0107 97.0878 81.1181 96.9888 81.2434 96.9178C81.3687 96.8468 81.5086 96.8058 81.6522 96.7978C82.4835 96.7978 83.3067 96.9288 83.9885 97.5674C82.834 99.7231 82.5053 101.988 82.9671 104.572C83.2062 104.237 83.3528 104.026 83.4968 103.833C84.5563 102.324 85.5615 100.771 86.697 99.322C87.2105 98.6671 87.9467 98.165 88.6421 97.6847C88.934 97.4882 89.2675 97.363 89.616 97.3189C89.9646 97.2748 90.3186 97.3132 90.6497 97.4309C91.6848 97.7529 92.1385 98.3505 92.0923 99.4339C92.0162 101.279 91.1415 102.837 90.2776 104.398C90.0059 104.892 89.7723 105.407 89.4789 105.999C89.3741 106.011 89.2685 106.011 89.1637 105.999C87.5664 105.77 87.3572 105.366 87.8516 103.86C88.2591 102.624 88.5634 101.355 88.8703 100.089C88.9518 99.7559 88.8839 99.3875 88.8839 98.8062C88.4302 99.1855 88.0336 99.3875 87.8217 99.7122C86.947 101.041 85.9853 102.34 85.3251 103.778C84.2222 106.166 83.3012 108.641 82.3694 111.105C82.2037 111.539 82.345 112.087 82.345 112.723C81.9169 112.956 81.4376 113.076 80.951 113.074C80.4644 113.071 79.9862 112.946 79.5604 112.71C78.2347 112.036 78.2157 110.799 78.3841 109.348C78.2229 109.503 78.0696 109.667 77.925 109.839C77.3219 110.679 76.7351 111.533 76.1239 112.368C75.882 112.709 75.5575 112.982 75.1813 113.161C74.8051 113.34 74.3896 113.42 73.9741 113.392C73.5586 113.365 73.1569 113.232 72.8072 113.005C72.4575 112.778 72.1712 112.465 71.9756 112.096C71.655 111.509 71.4322 110.87 71.0845 110.114C70.6471 110.81 70.2396 111.411 69.881 112.041C69.4518 112.802 69.0362 113.555 68.0283 113.616C66.6863 113.697 65.328 113.722 64.3228 112.647C63.9859 112.289 63.8936 111.703 63.6545 111.13C62.7471 111.896 61.8479 112.704 60.8998 113.449C59.6991 114.393 58.4712 115.296 57.2351 116.192C56.9758 116.371 56.6812 116.492 56.3712 116.546C55.6893 116.677 55.3117 116.249 55.597 115.621C56.325 114.025 57.1074 112.45 57.8681 110.87C58.7836 108.96 59.7045 107.05 60.0414 104.932C60.1174 104.469 60.1256 103.994 60.1636 103.524L59.9653 103.399ZM54.1164 101.691L54.3446 101.748C54.6163 101.098 54.926 100.452 55.2058 99.7968C56.4011 96.9807 57.7485 94.2218 58.338 91.1847C58.4983 90.366 58.1479 89.8885 57.3275 89.8202C56.6863 89.7657 56.2408 90.0495 56.0724 90.7808C55.529 93.264 54.9993 95.7472 54.5266 98.2441C54.312 99.3738 54.2495 100.55 54.1164 101.691Z" fill="#1D1D1B"/>
<path d="M64.7679 89.0916C65.4253 90.6307 66.1045 92.1506 66.7157 93.6951C67.02 94.4646 67.5117 94.672 68.2859 94.582C69.4554 94.4929 70.5803 94.0936 71.5459 93.425C73.271 92.1588 73.7192 90.0849 72.6923 88.2047C71.9018 86.7612 70.5951 85.8934 69.2558 85.0475C68.4453 84.5676 67.6692 84.0315 66.9331 83.443C64.9608 81.7729 64.2381 79.5653 64.4093 77.0384C64.5338 74.4682 65.5463 72.022 67.2726 70.1209C67.7008 69.6113 68.2339 69.201 68.8351 68.9183C69.4364 68.6357 70.0915 68.4874 70.7554 68.4836C73.1154 68.4203 75.4675 68.7845 77.6991 69.5587C79.8724 70.3392 80.6005 71.6708 80.0137 73.9248C79.7242 74.9875 79.3034 76.0097 78.7613 76.9675C77.9789 78.3837 77.0634 79.729 76.1805 81.088C76.0936 81.2217 75.7594 81.3609 75.6833 81.3036C75.5013 81.1671 75.2813 80.9024 75.3003 80.7114C75.3621 80.3112 75.4772 79.9211 75.6426 79.5517C76.3897 77.5678 77.0362 75.5621 77.2318 73.4255C77.4084 71.4989 77.096 70.9914 75.2079 70.552C74.8377 70.4588 74.4607 70.395 74.0805 70.361C71.9072 70.2273 71.0922 70.8495 70.5 72.3722C69.9078 73.8948 69.321 75.483 69.1634 77.1667C68.9271 79.6772 69.7747 81.7511 71.6736 83.3502C72.8934 84.3735 74.2136 85.2794 75.4986 86.2263C76.7836 87.1732 78.0305 88.1775 78.8428 89.6046C80.0001 91.6403 79.6958 93.5287 77.9083 95.0459C76.9669 95.8569 75.8738 96.4711 74.6932 96.8525C73.5126 97.2339 72.268 97.3749 71.0325 97.2671C68.7097 97.1007 66.3952 96.7896 64.0806 96.514C63.9709 96.4876 63.8688 96.4359 63.7825 96.3629C63.6962 96.29 63.6281 96.1978 63.5834 96.0937C63.1162 94.511 62.7684 92.9065 62.869 91.2392C62.945 89.9839 63.5916 89.2553 64.7679 89.0916Z" fill="#1D1D1B"/>
<path d="M109.26 70.3891C108.89 71.366 108.543 72.2174 108.246 73.0852C107.967 73.8636 107.733 74.6582 107.548 75.4647C107.534 75.6404 107.453 75.8038 107.322 75.9208C107.191 76.0378 107.02 76.0993 106.845 76.0924C106.508 76.1428 106.164 76.0669 105.88 75.8792C105.595 75.6914 105.389 75.405 105.302 75.0745C104.937 73.8582 104.971 72.5565 105.397 71.3606C105.818 70.2336 106.671 69.7615 107.842 69.9962C108.295 70.0753 108.735 70.239 109.26 70.3891Z" fill="#1D1D1B"/>
<path d="M92.9336 110.855L99.8311 104.727L116.634 105.349L122.559 109.027V113.612L104.607 111.036L92.9336 111.3V110.855Z" fill="#741923"/>
<path d="M113.035 110.403L116.512 110.225L116.996 110.536L118.197 110.102L118.819 109.969L121.807 111.792C121.807 111.792 116.146 111.835 115.961 111.792C115.776 111.748 113.035 110.403 113.035 110.403Z" fill="white"/>
<path d="M98.4385 107.931C98.4117 107.957 98.3952 107.991 98.3923 108.029C98.3788 108.206 98.3543 108.733 98.5282 108.826C98.702 108.918 100.158 108.976 100.299 108.981H100.321L101.046 108.899C101.071 108.896 101.094 108.888 101.114 108.875L101.47 108.64L101.639 108.968C101.65 108.993 101.669 109.014 101.692 109.029C101.715 109.044 101.742 109.052 101.769 109.052C102.41 109.071 106.235 109.178 106.621 109.129C107.007 109.079 107.814 108.525 108.104 108.329C108.133 108.31 108.167 108.3 108.202 108.303C108.236 108.305 108.269 108.319 108.294 108.343L108.936 108.905C108.952 108.919 108.971 108.93 108.991 108.937C109.012 108.944 109.034 108.946 109.055 108.943L113.673 108.506L114.76 108.34C114.842 108.34 114.961 108.223 114.953 108.141C114.95 108.046 114.984 107.954 115.048 107.884C115.159 107.813 115.719 108.023 115.893 108.072C115.918 108.079 115.944 108.079 115.969 108.072L116.708 107.906C116.736 107.899 116.762 107.885 116.782 107.865C116.803 107.844 116.818 107.819 116.825 107.79C116.832 107.762 116.831 107.733 116.822 107.705C116.814 107.677 116.798 107.652 116.776 107.633C116.232 107.176 115.657 106.759 115.053 106.386C114.238 105.919 112.831 105.663 111.106 105.887C109.435 106.102 104.298 106.075 103.991 106.075H103.961L99.4518 106.951C99.4218 106.957 99.3943 106.972 99.373 106.995L98.4385 107.931Z" fill="white"/>
<path d="M125.131 106.368C123.882 105.274 122.694 104.111 121.575 102.883C120.184 101.415 118.859 99.8814 117.5 98.3914C116.272 97.0407 114.71 96.6614 113.023 97.128C111.7 97.4964 110.44 98.094 109.168 98.6343C109.01 98.7255 108.833 98.7776 108.651 98.7861C108.469 98.7947 108.288 98.7595 108.122 98.6834C107.254 98.274 106.343 97.9628 105.406 97.7556C103.398 97.3845 101.458 97.5591 99.8855 99.0846C99.1971 99.7309 98.5467 100.417 97.9377 101.139C95.8241 103.704 93.7704 106.324 91.6459 108.867C90.505 110.308 89.12 111.534 87.5547 112.491C87.9763 112.518 88.3991 112.518 88.8206 112.491C91.7872 112.087 94.6723 112.543 97.5139 113.326C101.336 114.382 104.849 116.202 108.397 117.911C109.712 118.544 111.021 119.13 112.529 119.196C114.756 119.291 116.78 118.65 118.706 117.63C122.295 115.747 125.226 113.045 127.908 110.046C128.546 109.337 129.19 108.63 129.763 107.997C128.005 108.382 126.484 107.5 125.131 106.368ZM118.647 111.577C117.231 111.577 116.172 111.577 115.115 111.222C114.058 110.868 112.284 109.801 110.872 109.446C109.459 109.091 107.688 108.734 104.151 109.091C100.614 109.449 96.3675 110.155 95.8377 110.333C95.8377 110.333 97.9594 108.556 99.0216 107.847C100.084 107.137 101.496 106.425 105.387 106.78C106.443 106.878 108.217 107.492 108.217 107.492C108.882 107.056 109.594 106.699 110.339 106.425C111.401 106.07 112.108 106.07 113.523 106.07C114.938 106.07 116.354 107.492 116.707 107.847C117.06 108.202 118.829 109.978 119.891 110.69C120.953 111.402 121.306 111.4 121.306 111.4L121.483 111.577H118.647Z" fill="#DD2C14"/>
<path opacity="0.33" d="M88.6208 112.109L92.9321 110.715L97.0071 108.906L98.4822 108.234C98.4822 108.234 98.1535 109.296 96.0182 110.256C93.8829 111.217 90.1666 112.295 89.0582 112.407C88.5609 112.47 88.0598 112.499 87.5586 112.491L88.6208 112.109Z" fill="#741923"/>
<path opacity="0.33" d="M117.723 108.852C118.483 109.38 119.285 109.843 120.121 110.238C121.034 110.657 122.044 110.82 123.042 110.707C124.036 110.595 126.682 110.126 127.508 109.959C128.334 109.793 127.535 110.541 126.15 111.013C124.764 111.485 123.917 111.982 122.428 111.73C120.939 111.479 120.388 111.133 119.23 110.325C118.073 109.517 117.723 108.852 117.723 108.852Z" fill="#741923"/>
<path d="M110.004 112.656C113.166 113.096 115.981 114.902 119.306 113.639C117.681 115.478 112.862 114.921 110.004 112.656Z" fill="white"/>
<path d="M118.127 110.239C118.828 110.027 119.485 109.855 120.108 110.499C120.379 110.791 120.822 110.935 121.194 111.145C118.988 111.529 116.721 111.325 114.617 110.556V110.346C115.576 110.346 116.535 110.346 117.494 110.346C117.709 110.34 117.922 110.304 118.127 110.239Z" fill="white"/>
<path d="M107.969 100.911C106.53 99.8578 104.878 99.6531 103.183 99.5931C102.832 99.5968 102.482 99.5675 102.137 99.5057C104.052 98.96 105.956 98.9136 107.782 99.8414C107.948 99.9451 108.141 99.9943 108.336 99.982C108.531 99.9698 108.717 99.8968 108.869 99.7732C110.7 98.608 112.699 98.4088 114.788 98.9245C113.775 99.0828 112.723 99.1264 111.756 99.4348C110.71 99.7732 109.746 100.365 108.73 100.818C108.494 100.917 108.116 101.02 107.969 100.911Z" fill="white"/>
<path d="M108.722 112.997C109.112 112.997 109.428 112.679 109.428 112.288C109.428 111.896 109.112 111.578 108.722 111.578C108.332 111.578 108.016 111.896 108.016 112.288C108.016 112.679 108.332 112.997 108.722 112.997Z" fill="white"/>
</svg>
